Consequences.ufo
<glyph name="exclam" format="2">
  <advance width="384"/>
  <unicode hex="0021"/>
  <outline>
    <contour>
      <point x="355" y="694" type="line"/>
      <point x="355" y="179" type="line"/>
      <point x="28" y="179" type="line"/>
      <point x="28" y="694" type="line"/>
    </contour>
    <contour>
      <point x="355" y="120" type="line"/>
      <point x="355" y="0" type="line"/>
      <point x="28" y="0" type="line"/>
      <point x="28" y="122" type="line"/>
    </contour>
  </outline>
</glyph>
<glyph name="quotedbl" format="1">
  <advance width="600"/>
  <unicode hex="0022"/>
  <outline>
    <contour>
      <point x="288" y="694" type="line"/>
      <point x="240" y="394" type="line"/>
      <point x="77" y="394" type="line"/>
      <point x="25" y="694" type="line"/>
    </contour>
    <contour>
      <point x="569" y="694" type="line"/>
      <point x="521" y="394" type="line"/>
      <point x="358" y="394" type="line"/>
      <point x="306" y="694" type="line"/>
    </contour>
  </outline>
</glyph>
<glyph name="numbersign" format="1">
  <advance width="753"/>
  <unicode hex="0023"/>
  <outline>
    <contour>
      <point x="311" y="356" type="line"/>
      <point x="278" y="241" type="line"/>
      <point x="412" y="241" type="line"/>
      <point x="445" y="356" type="line"/>
    </contour>
    <contour>
      <point x="21" y="110" type="line"/>
      <point x="58" y="241" type="line"/>
      <point x="147" y="241" type="line"/>
      <point x="180" y="356" type="line"/>
      <point x="91" y="356" type="line"/>
      <point x="128" y="487" type="line"/>
      <point x="218" y="487" type="line"/>
      <point x="250" y="600" type="line"/>
      <point x="381" y="600" type="line"/>
      <point x="349" y="487" type="line"/>
      <point x="483" y="487" type="line"/>
      <point x="515" y="600" type="line"/>
      <point x="646" y="600" type="line"/>
      <point x="614" y="487" type="line"/>
      <point x="728" y="487" type="line"/>
      <point x="691" y="356" type="line"/>
      <point x="576" y="356" type="line"/>
      <point x="543" y="241" type="line"/>
      <point x="658" y="241" type="line"/>
      <point x="620" y="110" type="line"/>
      <point x="506" y="110" type="line"/>
      <point x="474" y="0" type="line"/>
      <point x="343" y="0" type="line"/>
      <point x="375" y="110" type="line"/>
      <point x="241" y="110" type="line"/>
      <point x="209" y="0" type="line"/>
      <point x="78" y="0" type="line"/>
      <point x="110" y="110" type="line"/>
    </contour>
  </outline>
</glyph>
<glyph name="dollar" format="1">
  <advance width="750"/>
  <unicode hex="0024"/>
  <outline>
    <contour>
      <point x="218" y="0" type="line" smooth="yes"/>
      <point x="179" y="0"/>
      <point x="111" y="36"/>
      <point x="62" y="95"/>
      <point x="33" y="168"/>
      <point x="32" y="204" type="qcurve"/>
      <point x="155" y="204" type="line"/>
      <point x="155" y="200" type="line" smooth="yes"/>
      <point x="155" y="182"/>
      <point x="180" y="142"/>
      <point x="201" y="131" type="qcurve"/>
      <point x="210" y="125"/>
      <point x="224" y="123" type="qcurve"/>
      <point x="224" y="292" type="line"/>
      <point x="155" y="292" type="line" smooth="yes"/>
      <point x="133" y="292"/>
      <point x="89" y="310"/>
      <point x="54" y="340"/>
      <point x="32" y="381"/>
      <point x="32" y="404" type="qcurve" smooth="yes"/>
      <point x="32" y="491" type="line" smooth="yes"/>
      <point x="32" y="555"/>
      <point x="101" y="656"/>
      <point x="158" y="680" type="qcurve" smooth="yes"/>
      <point x="174" y="687"/>
      <point x="207" y="695"/>
      <point x="224" y="696" type="qcurve"/>
      <point x="224" y="782" type="line"/>
      <point x="339" y="782" type="line"/>
      <point x="339" y="696" type="line"/>
      <point x="412" y="696" type="line"/>
      <point x="412" y="782" type="line"/>
      <point x="527" y="782" type="line"/>
      <point x="527" y="696" type="line"/>
      <point x="531" y="696" type="line" smooth="yes"/>
      <point x="570" y="696"/>
      <point x="637" y="660"/>
      <point x="687" y="601"/>
      <point x="716" y="528"/>
      <point x="717" y="492" type="qcurve"/>
      <point x="594" y="492" type="line"/>
      <point x="594" y="496" type="line" smooth="yes"/>
      <point x="594" y="515"/>
      <point x="569" y="554"/>
      <point x="548" y="566" type="qcurve"/>
      <point x="543" y="568"/>
      <point x="532" y="572"/>
      <point x="527" y="573" type="qcurve"/>
      <point x="527" y="417" type="line"/>
      <point x="594" y="417" type="line" smooth="yes"/>
      <point x="616" y="417"/>
      <point x="660" y="399"/>
      <point x="695" y="369"/>
      <point x="717" y="328"/>
      <point x="717" y="305" type="qcurve" smooth="yes"/>
      <point x="717" y="205" type="line" smooth="yes"/>
      <point x="717" y="141"/>
      <point x="647" y="40"/>
      <point x="592" y="16" type="qcurve" smooth="yes"/>
      <point x="560" y="2"/>
      <point x="527" y="1" type="qcurve"/>
      <point x="527" y="-85" type="line"/>
      <point x="412" y="-85" type="line"/>
      <point x="412" y="0" type="line"/>
      <point x="339" y="0" type="line"/>
      <point x="339" y="-85" type="line"/>
      <point x="224" y="-85" type="line"/>
      <point x="224" y="0" type="line"/>
    </contour>
    <contour>
      <point x="339" y="415" type="line"/>
      <point x="412" y="415" type="line"/>
      <point x="412" y="573" type="line"/>
      <point x="339" y="573" type="line"/>
    </contour>
    <contour>
      <point x="224" y="415" type="line"/>
      <point x="224" y="573" type="line"/>
      <point x="212" y="571"/>
      <point x="203" y="566" type="qcurve" smooth="yes"/>
      <point x="184" y="556"/>
      <point x="155" y="519"/>
      <point x="155" y="499" type="qcurve" smooth="yes"/>
      <point x="155" y="483" type="line" smooth="yes"/>
      <point x="155" y="475"/>
      <point x="162" y="452"/>
      <point x="174" y="431"/>
      <point x="188" y="415"/>
      <point x="196" y="415" type="qcurve" smooth="yes"/>
    </contour>
    <contour>
      <point x="527" y="124" type="line"/>
      <point x="537" y="125"/>
      <point x="546" y="130" type="qcurve" smooth="yes"/>
      <point x="565" y="140"/>
      <point x="594" y="177"/>
      <point x="594" y="197" type="qcurve" smooth="yes"/>
      <point x="594" y="257" type="line" smooth="yes"/>
      <point x="594" y="272"/>
      <point x="567" y="294"/>
      <point x="553" y="294" type="qcurve" smooth="yes"/>
      <point x="527" y="294" type="line"/>
    </contour>
    <contour>
      <point x="339" y="123" type="line"/>
      <point x="412" y="123" type="line"/>
      <point x="412" y="292" type="line"/>
      <point x="339" y="292" type="line"/>
    </contour>
  </outline>
</glyph>
<glyph name="percent" format="1">
  <advance width="830"/>
  <unicode hex="0025"/>
  <outline>
    <contour>
      <point x="701" y="696" type="line"/>
      <point x="305" y="0" type="line"/>
      <point x="138" y="0" type="line"/>
      <point x="527" y="696" type="line"/>
    </contour>
    <contour>
      <point x="319" y="412" type="line" smooth="yes"/>
      <point x="319" y="391"/>
      <point x="300" y="355"/>
      <point x="270" y="327"/>
      <point x="232" y="311"/>
      <point x="213" y="311" type="qcurve"/>
      <point x="121" y="312" type="line"/>
      <point x="100" y="312"/>
      <point x="64" y="331"/>
      <point x="37" y="362"/>
      <point x="22" y="402"/>
      <point x="22" y="422" type="qcurve" smooth="yes"/>
      <point x="22" y="595" type="line" smooth="yes"/>
      <point x="22" y="613"/>
      <point x="39" y="649"/>
      <point x="68" y="678"/>
      <point x="103" y="696"/>
      <point x="121" y="696" type="qcurve" smooth="yes"/>
      <point x="221" y="696" type="line" smooth="yes"/>
      <point x="242" y="696"/>
      <point x="277" y="676"/>
      <point x="304" y="645"/>
      <point x="319" y="605"/>
      <point x="319" y="585" type="qcurve" smooth="yes"/>
    </contour>
    <contour>
      <point x="239" y="585" type="line" smooth="yes"/>
      <point x="239" y="596"/>
      <point x="226" y="613"/>
      <point x="216" y="613" type="qcurve" smooth="yes"/>
      <point x="167" y="613" type="line"/>
      <point x="167" y="393" type="line"/>
      <point x="216" y="393" type="line" smooth="yes"/>
      <point x="224" y="393"/>
      <point x="239" y="409"/>
      <point x="239" y="418" type="qcurve" smooth="yes"/>
    </contour>
    <contour>
      <point x="801" y="100" type="line" smooth="yes"/>
      <point x="801" y="79"/>
      <point x="782" y="43"/>
      <point x="752" y="15"/>
      <point x="714" y="-1"/>
      <point x="695" y="-1" type="qcurve"/>
      <point x="603" y="0" type="line"/>
      <point x="582" y="0"/>
      <point x="546" y="19"/>
      <point x="519" y="50"/>
      <point x="504" y="90"/>
      <point x="504" y="110" type="qcurve" smooth="yes"/>
      <point x="504" y="283" type="line" smooth="yes"/>
      <point x="504" y="301"/>
      <point x="521" y="337"/>
      <point x="550" y="366"/>
      <point x="585" y="384"/>
      <point x="603" y="384" type="qcurve" smooth="yes"/>
      <point x="703" y="384" type="line" smooth="yes"/>
      <point x="724" y="384"/>
      <point x="759" y="364"/>
      <point x="786" y="333"/>
      <point x="801" y="293"/>
      <point x="801" y="273" type="qcurve" smooth="yes"/>
    </contour>
    <contour>
      <point x="721" y="273" type="line" smooth="yes"/>
      <point x="721" y="284"/>
      <point x="708" y="301"/>
      <point x="698" y="301" type="qcurve" smooth="yes"/>
      <point x="649" y="301" type="line"/>
      <point x="649" y="81" type="line"/>
      <point x="698" y="81" type="line" smooth="yes"/>
      <point x="706" y="81"/>
      <point x="721" y="97"/>
      <point x="721" y="106" type="qcurve" smooth="yes"/>
    </contour>
  </outline>
</glyph>
<glyph name="ampersand" format="2">
  <advance width="767"/>
  <unicode hex="0026"/>
  <outline>
    <contour>
      <point x="584" y="499" type="line"/>
      <point x="584" y="512"/>
      <point x="570" y="539"/>
      <point x="549" y="560"/>
      <point x="522" y="573"/>
      <point x="509" y="573" type="qcurve" smooth="yes"/>
      <point x="379" y="573" type="line"/>
      <point x="379" y="410" type="line"/>
      <point x="583" y="410" type="line"/>
      <point x="583" y="412" type="line"/>
      <point x="583" y="413" type="line"/>
      <point x="583" y="414" type="line"/>
      <point x="582" y="425"/>
      <point x="582" y="438"/>
      <point x="582" y="439" type="qcurve"/>
      <point x="706" y="439" type="line"/>
      <point x="706" y="431" type="line"/>
      <point x="706" y="430" type="line"/>
      <point x="706" y="429" type="line"/>
      <point x="706" y="428" type="line"/>
      <point x="706" y="425" type="line"/>
      <point x="706" y="423" type="line"/>
      <point x="706" y="419" type="line"/>
      <point x="706" y="418" type="line"/>
      <point x="706" y="416" type="line"/>
      <point x="706" y="414" type="line"/>
      <point x="706" y="410" type="line"/>
      <point x="746" y="410" type="line"/>
      <point x="746" y="286" type="line"/>
      <point x="707" y="286" type="line"/>
      <point x="707" y="273" type="line"/>
      <point x="707" y="272" type="line"/>
      <point x="707" y="271" type="line"/>
      <point x="707" y="270" type="line"/>
      <point x="707" y="203" type="line"/>
      <point x="707" y="201" type="line"/>
      <point x="707" y="200" type="line"/>
      <point x="707" y="199" type="line"/>
      <point x="707" y="192" type="line"/>
      <point x="707" y="191" type="line"/>
      <point x="707" y="190" type="line"/>
      <point x="707" y="189" type="line"/>
      <point x="707" y="184" type="line"/>
      <point x="707" y="183" type="line"/>
      <point x="707" y="164" type="line"/>
      <point x="707" y="163" type="line"/>
      <point x="707" y="162" type="line"/>
      <point x="707" y="161" type="line"/>
      <point x="707" y="101" type="line"/>
      <point x="707" y="100" type="line"/>
      <point x="707" y="99" type="line"/>
      <point x="707" y="98" type="line"/>
      <point x="707" y="97" type="line"/>
      <point x="707" y="91" type="line"/>
      <point x="707" y="90" type="line"/>
      <point x="707" y="89" type="line"/>
      <point x="707" y="84" type="line"/>
      <point x="707" y="69" type="line"/>
      <point x="707" y="68" type="line"/>
      <point x="707" y="67" type="line"/>
      <point x="707" y="24" type="line"/>
      <point x="707" y="23" type="line"/>
      <point x="707" y="22" type="line"/>
      <point x="707" y="18" type="line"/>
      <point x="707" y="17" type="line"/>
      <point x="707" y="8" type="line"/>
      <point x="707" y="7" type="line"/>
      <point x="707" y="-1" type="line"/>
      <point x="514" y="0" type="line"/>
      <point x="215" y="0" type="line" smooth="yes"/>
      <point x="175" y="0"/>
      <point x="105" y="30"/>
      <point x="52" y="83"/>
      <point x="22" y="153"/>
      <point x="22" y="193" type="qcurve" smooth="yes"/>
      <point x="22" y="210"/>
      <point x="21" y="226"/>
      <point x="21" y="227" type="qcurve"/>
      <point x="21" y="239"/>
      <point x="26" y="256" type="qcurve"/>
      <point x="30" y="274"/>
      <point x="52" y="307"/>
      <point x="82" y="333"/>
      <point x="116" y="348"/>
      <point x="133" y="348" type="qcurve"/>
      <point x="134" y="348" type="line"/>
      <point x="135" y="348" type="line"/>
      <point x="136" y="348" type="line"/>
      <point x="137" y="348" type="line"/>
      <point x="114" y="349"/>
      <point x="73" y="367"/>
      <point x="41" y="397"/>
      <point x="22" y="439"/>
      <point x="22" y="465" type="qcurve" smooth="yes"/>
      <point x="22" y="470" type="line"/>
      <point x="22" y="471" type="line"/>
      <point x="22" y="472" type="line"/>
      <point x="22" y="473" type="line"/>
      <point x="22" y="474" type="line"/>
      <point x="22" y="475" type="line"/>
      <point x="22" y="476" type="line"/>
      <point x="22" y="477" type="line"/>
      <point x="22" y="478" type="line"/>
      <point x="22" y="479" type="line"/>
      <point x="22" y="480" type="line"/>
      <point x="22" y="483" type="line"/>
      <point x="22" y="484" type="line"/>
      <point x="22" y="485" type="line"/>
      <point x="22" y="487" type="line"/>
      <point x="22" y="488" type="line"/>
      <point x="22" y="505" type="line"/>
      <point x="22" y="506" type="line"/>
      <point x="22" y="511" type="line" smooth="yes"/>
      <point x="22" y="535"/>
      <point x="29" y="556" type="qcurve" smooth="yes"/>
      <point x="38" y="587"/>
      <point x="74" y="639"/>
      <point x="123" y="676"/>
      <point x="182" y="696"/>
      <point x="215" y="696" type="qcurve" smooth="yes"/>
      <point x="291" y="696"/>
      <point x="404" y="698"/>
      <point x="441" y="698" type="qcurve" smooth="yes"/>
      <point x="460" y="698"/>
      <point x="498" y="698"/>
      <point x="517" y="697" type="qcurve"/>
      <point x="560" y="697"/>
      <point x="628" y="665"/>
      <point x="677" y="610"/>
      <point x="705" y="537"/>
      <point x="707" y="497" type="qcurve"/>
      <point x="584" y="497" type="line"/>
    </contour>
    <contour>
      <point x="379" y="123" type="line"/>
      <point x="584" y="122" type="line"/>
      <point x="584" y="124" type="line"/>
      <point x="584" y="125" type="line"/>
      <point x="584" y="151" type="line"/>
      <point x="584" y="152" type="line"/>
      <point x="584" y="158" type="line"/>
      <point x="584" y="159" type="line"/>
      <point x="584" y="161" type="line"/>
      <point x="584" y="162" type="line"/>
      <point x="584" y="256" type="line"/>
      <point x="584" y="258" type="line"/>
      <point x="584" y="261" type="line"/>
      <point x="584" y="263" type="line"/>
      <point x="584" y="271" type="line"/>
      <point x="584" y="274" type="line"/>
      <point x="584" y="280" type="line"/>
      <point x="583" y="282"/>
      <point x="583" y="286" type="qcurve"/>
      <point x="379" y="286" type="line"/>
    </contour>
  </outline>
</glyph>
<glyph name="quotesingle" format="1">
  <advance width="317"/>
  <unicode hex="0027"/>
  <outline>
    <contour>
      <point x="288" y="694" type="line"/>
      <point x="240" y="367" type="line"/>
      <point x="77" y="367" type="line"/>
      <point x="25" y="694" type="line"/>
    </contour>
  </outline>
</glyph>
<glyph name="parenleft" format="2">
  <advance width="287"/>
  <unicode hex="0028"/>
  <outline>
    <contour>
      <point x="388" y="855" type="line"/>
      <point x="388" y="732" type="line"/>
      <point x="265" y="732" type="line"/>
      <point x="265" y="-43" type="line"/>
      <point x="388" y="-43" type="line"/>
      <point x="388" y="-166" type="line"/>
      <point x="226" y="-166" type="line" smooth="yes"/>
      <point x="184" y="-166"/>
      <point x="110" y="-134"/>
      <point x="54" y="-78"/>
      <point x="22" y="-4"/>
      <point x="22" y="38" type="qcurve" smooth="yes"/>
      <point x="22" y="651" type="line" smooth="yes"/>
      <point x="22" y="693"/>
      <point x="54" y="767"/>
      <point x="110" y="823"/>
      <point x="184" y="855"/>
      <point x="226" y="855" type="qcurve" smooth="yes"/>
    </contour>
  </outline>
</glyph>
<glyph name="parenright" format="1">
  <advance width="287"/>
  <unicode hex="0029"/>
  <outline>
    <contour>
      <point x="61" y="855" type="line" smooth="yes"/>
      <point x="103" y="855"/>
      <point x="177" y="823"/>
      <point x="233" y="767"/>
      <point x="265" y="693"/>
      <point x="265" y="651" type="qcurve" smooth="yes"/>
      <point x="265" y="38" type="line" smooth="yes"/>
      <point x="265" y="-4"/>
      <point x="233" y="-78"/>
      <point x="177" y="-134"/>
      <point x="103" y="-166"/>
      <point x="61" y="-166" type="qcurve" smooth="yes"/>
      <point x="-101" y="-166" type="line"/>
      <point x="-101" y="-43" type="line"/>
      <point x="22" y="-43" type="line"/>
      <point x="22" y="732" type="line"/>
      <point x="-101" y="732" type="line"/>
      <point x="-101" y="855" type="line"/>
    </contour>
  </outline>
</glyph>
<glyph name="asterisk" format="2">
  <advance width="394"/>
  <unicode hex="002A"/>
  <outline>
    <contour>
      <point x="371" y="456" type="line"/>
      <point x="310" y="355" type="line"/>
      <point x="239" y="421" type="line"/>
      <point x="249" y="324" type="line"/>
      <point x="132" y="324" type="line"/>
      <point x="142" y="405" type="line"/>
      <point x="86" y="349" type="line"/>
      <point x="20" y="451" type="line"/>
      <point x="91" y="487" type="line"/>
      <point x="15" y="523" type="line"/>
      <point x="81" y="619" type="line"/>
      <point x="142" y="563" type="line"/>
      <point x="127" y="660" type="line"/>
      <point x="244" y="660" type="line"/>
      <point x="234" y="558" type="line"/>
      <point x="305" y="619" type="line"/>
      <point x="366" y="523" type="line"/>
      <point x="300" y="492" type="line"/>
    </contour>
  </outline>
</glyph>
<glyph name="plus" format="2">
  <advance width="410"/>
  <unicode hex="002B"/>
  <outline>
    <contour>
      <point x="397" y="411" type="line"/>
      <point x="397" y="267" type="line"/>
      <point x="18" y="267" type="line"/>
      <point x="18" y="411" type="line"/>
    </contour>
    <contour>
      <point x="280" y="142" type="line"/>
      <point x="136" y="142" type="line"/>
      <point x="136" y="521" type="line"/>
      <point x="280" y="521" type="line"/>
    </contour>
  </outline>
</glyph>
<glyph name="comma" format="1">
  <advance width="228"/>
  <unicode hex="002C"/>
  <outline>
    <contour>
      <point x="208" y="123" type="line"/>
      <point x="208" y="0" type="line"/>
      <point x="46" y="-115" type="line"/>
      <point x="-13" y="-62" type="line"/>
      <point x="69" y="0" type="line"/>
      <point x="14" y="0" type="line"/>
      <point x="14" y="123" type="line"/>
    </contour>
  </outline>
</glyph>
<glyph name="hyphen" format="2">
  <advance width="331"/>
  <unicode hex="002D"/>
  <outline>
    <contour>
      <point x="310" y="377" type="line"/>
      <point x="310" y="298" type="line"/>
      <point x="16" y="298" type="line"/>
      <point x="16" y="377" type="line"/>
    </contour>
  </outline>
</glyph>
<glyph name="period" format="2">
  <advance width="227"/>
  <unicode hex="002E"/>
  <outline>
    <contour>
      <point x="209" y="123" type="line"/>
      <point x="209" y="0" type="line"/>
      <point x="17" y="0" type="line"/>
      <point x="17" y="123" type="line"/>
    </contour>
  </outline>
</glyph>
<glyph name="slash" format="1">
  <advance width="507"/>
  <unicode hex="002F"/>
  <outline>
    <contour>
      <point x="492" y="696" type="line"/>
      <point x="157" y="0" type="line"/>
      <point x="15" y="0" type="line"/>
      <point x="349" y="696" type="line"/>
    </contour>
  </outline>
</glyph>
<glyph name="zero" format="2">
  <advance width="751"/>
  <unicode hex="0030"/>
  <outline>
    <contour>
      <point x="723" y="492" type="qcurve"/>
      <point x="722" y="186" type="line"/>
      <point x="722" y="147"/>
      <point x="686" y="80"/>
      <point x="627" y="29"/>
      <point x="554" y="0"/>
      <point x="518" y="0" type="qcurve"/>
      <point x="213" y="1" type="line"/>
      <point x="174" y="1"/>
      <point x="106" y="37"/>
      <point x="55" y="95"/>
      <point x="26" y="168"/>
      <point x="26" y="205" type="qcurve" smooth="yes"/>
      <point x="26" y="510" type="line" smooth="yes"/>
      <point x="26" y="543"/>
      <point x="60" y="609"/>
      <point x="114" y="663"/>
      <point x="180" y="696"/>
      <point x="213" y="696" type="qcurve" smooth="yes"/>
      <point x="536" y="696" type="line" smooth="yes"/>
      <point x="574" y="696"/>
      <point x="642" y="659"/>
      <point x="693" y="601"/>
      <point x="723" y="528"/>
    </contour>
    <contour>
      <point x="589" y="533" type="line"/>
      <point x="581" y="547"/>
      <point x="543" y="573"/>
      <point x="527" y="573" type="qcurve" smooth="yes"/>
      <point x="395" y="573" type="line"/>
      <point x="395" y="202" type="line"/>
    </contour>
    <contour>
      <point x="599" y="466" type="line"/>
      <point x="395" y="123" type="line"/>
      <point x="525" y="123" type="line" smooth="yes"/>
      <point x="538" y="123"/>
      <point x="565" y="136"/>
      <point x="586" y="157"/>
      <point x="599" y="183"/>
      <point x="599" y="197" type="qcurve" smooth="yes"/>
    </contour>
  </outline>
</glyph>
<glyph name="one" format="1">
  <advance width="499"/>
  <unicode hex="0031"/>
  <outline>
    <contour>
      <point x="143" y="696" type="line"/>
      <point x="471" y="696" type="line"/>
      <point x="471" y="0" type="line"/>
      <point x="143" y="0" type="line"/>
      <point x="143" y="492" type="line"/>
      <point x="20" y="492" type="line"/>
      <point x="20" y="573" type="line"/>
    </contour>
  </outline>
</glyph>
<glyph name="two" format="2">
  <advance width="734"/>
  <unicode hex="0032"/>
  <outline>
    <contour>
      <point x="207" y="696" type="qcurve" smooth="yes"/>
      <point x="530" y="696" type="line" smooth="yes"/>
      <point x="563" y="696"/>
      <point x="630" y="663"/>
      <point x="682" y="609"/>
      <point x="716" y="543"/>
      <point x="716" y="510" type="qcurve"/>
      <point x="717" y="368" type="line"/>
      <point x="717" y="347"/>
      <point x="699" y="303"/>
      <point x="669" y="268"/>
      <point x="628" y="246"/>
      <point x="605" y="246" type="qcurve" smooth="yes"/>
      <point x="184" y="246" type="line" smooth="yes"/>
      <point x="166" y="246"/>
      <point x="149" y="228"/>
      <point x="143" y="202"/>
      <point x="143" y="187" type="qcurve" smooth="yes"/>
      <point x="143" y="185" type="line" smooth="yes"/>
      <point x="143" y="183"/>
      <point x="143" y="182" type="qcurve"/>
      <point x="143" y="181" type="line"/>
      <point x="143" y="180"/>
      <point x="143" y="180" type="qcurve"/>
      <point x="143" y="174" type="line"/>
      <point x="143" y="173"/>
      <point x="143" y="173" type="qcurve"/>
      <point x="143" y="160" type="line" smooth="yes"/>
      <point x="143" y="155"/>
      <point x="149" y="142"/>
      <point x="159" y="131"/>
      <point x="171" y="123"/>
      <point x="177" y="123" type="qcurve" smooth="yes"/>
      <point x="717" y="123" type="line"/>
      <point x="717" y="0" type="line"/>
      <point x="20" y="0" type="line"/>
      <point x="20" y="246" type="line" smooth="yes"/>
      <point x="20" y="268"/>
      <point x="38" y="311"/>
      <point x="68" y="346"/>
      <point x="109" y="368"/>
      <point x="132" y="368" type="qcurve" smooth="yes"/>
      <point x="348" y="368" type="line"/>
      <point x="348" y="573" type="line"/>
      <point x="218" y="573" type="line" smooth="yes"/>
      <point x="192" y="573"/>
      <point x="162" y="549"/>
      <point x="147" y="513"/>
      <point x="143" y="470"/>
      <point x="143" y="451" type="qcurve"/>
      <point x="20" y="451" type="line"/>
      <point x="20" y="492" type="line" smooth="yes"/>
      <point x="20" y="528"/>
      <point x="49" y="601"/>
      <point x="100" y="660"/>
      <point x="168" y="696"/>
    </contour>
  </outline>
</glyph>
<glyph name="three" format="1">
  <advance width="722"/>
  <unicode hex="0033"/>
  <outline>
    <contour>
      <point x="507" y="697" type="line" smooth="yes"/>
      <point x="559" y="697"/>
      <point x="632" y="659"/>
      <point x="679" y="595"/>
      <point x="701" y="511"/>
      <point x="701" y="465" type="qcurve" smooth="yes"/>
      <point x="701" y="440"/>
      <point x="682" y="398"/>
      <point x="651" y="367"/>
      <point x="608" y="349"/>
      <point x="584" y="348" type="qcurve"/>
      <point x="589" y="348" type="line" smooth="yes"/>
      <point x="622" y="348"/>
      <point x="665" y="322"/>
      <point x="691" y="278"/>
      <point x="701" y="223"/>
      <point x="701" y="194" type="qcurve" smooth="yes"/>
      <point x="701" y="155"/>
      <point x="670" y="84"/>
      <point x="617" y="31"/>
      <point x="546" y="0"/>
      <point x="507" y="0" type="qcurve" smooth="yes"/>
      <point x="220" y="0" type="line" smooth="yes"/>
      <point x="166" y="0"/>
      <point x="88" y="41"/>
      <point x="38" y="109"/>
      <point x="15" y="195"/>
      <point x="15" y="239" type="qcurve" smooth="yes"/>
      <point x="15" y="246" type="line"/>
      <point x="138" y="246" type="line"/>
      <point x="138" y="228"/>
      <point x="142" y="185"/>
      <point x="158" y="148"/>
      <point x="187" y="123"/>
      <point x="213" y="123" type="qcurve" smooth="yes"/>
      <point x="343" y="123" type="line"/>
      <point x="343" y="287" type="line"/>
      <point x="261" y="287" type="line"/>
      <point x="261" y="411" type="line"/>
      <point x="343" y="411" type="line"/>
      <point x="343" y="574" type="line"/>
      <point x="220" y="574" type="line" smooth="yes"/>
      <point x="192" y="574"/>
      <point x="159" y="552"/>
      <point x="143" y="517"/>
      <point x="138" y="473"/>
      <point x="138" y="451" type="qcurve"/>
      <point x="15" y="451" type="line"/>
      <point x="15" y="492" type="line" smooth="yes"/>
      <point x="15" y="534"/>
      <point x="48" y="609"/>
      <point x="103" y="664"/>
      <point x="178" y="697"/>
      <point x="220" y="697" type="qcurve" smooth="yes"/>
    </contour>
  </outline>
</glyph>
<glyph name="four" format="2">
  <advance width="724"/>
  <unicode hex="0034"/>
  <outline>
    <contour>
      <point x="695" y="410" type="line"/>
      <point x="695" y="286" type="line"/>
      <point x="636" y="286" type="line"/>
      <point x="636" y="0" type="line"/>
      <point x="308" y="0" type="line"/>
      <point x="308" y="286" type="line"/>
      <point x="31" y="286" type="line"/>
      <point x="31" y="409" type="line"/>
      <point x="308" y="696" type="line"/>
      <point x="636" y="696" type="line"/>
      <point x="636" y="410" type="line"/>
    </contour>
    <contour>
      <point x="308" y="410" type="line"/>
      <point x="308" y="532" type="line"/>
      <point x="199" y="410" type="line"/>
    </contour>
  </outline>
</glyph>
<glyph name="five" format="1">
  <advance width="744"/>
  <unicode hex="0035"/>
  <outline>
    <contour>
      <point x="393" y="246" type="line"/>
      <point x="393" y="123" type="line"/>
      <point x="524" y="123" type="line" smooth="yes"/>
      <point x="537" y="123"/>
      <point x="564" y="137"/>
      <point x="585" y="158"/>
      <point x="598" y="185"/>
      <point x="598" y="198" type="qcurve" smooth="yes"/>
      <point x="598" y="294" type="line" smooth="yes"/>
      <point x="598" y="306"/>
      <point x="571" y="328"/>
      <point x="561" y="328" type="qcurve" smooth="yes"/>
      <point x="25" y="328" type="line"/>
      <point x="25" y="697" type="line"/>
      <point x="721" y="697" type="line"/>
      <point x="721" y="574" type="line"/>
      <point x="393" y="574" type="line"/>
      <point x="393" y="451" type="line"/>
      <point x="598" y="451" type="line" smooth="yes"/>
      <point x="620" y="451"/>
      <point x="664" y="433"/>
      <point x="699" y="403"/>
      <point x="721" y="362"/>
      <point x="721" y="339" type="qcurve" smooth="yes"/>
      <point x="721" y="205" type="line" smooth="yes"/>
      <point x="721" y="163"/>
      <point x="689" y="88"/>
      <point x="633" y="32"/>
      <point x="558" y="0"/>
      <point x="516" y="0" type="qcurve" smooth="yes"/>
      <point x="211" y="0" type="line" smooth="yes"/>
      <point x="161" y="0"/>
      <point x="90" y="46"/>
      <point x="45" y="116"/>
      <point x="25" y="201"/>
      <point x="25" y="239" type="qcurve" smooth="yes"/>
      <point x="25" y="246" type="line"/>
    </contour>
  </outline>
</glyph>
<glyph name="six" format="2">
  <advance width="743"/>
  <unicode hex="0036"/>
  <outline>
    <contour>
      <point x="714" y="492" type="qcurve"/>
      <point x="591" y="492" type="line"/>
      <point x="591" y="496"/>
      <point x="591" y="500" type="qcurve" smooth="yes"/>
      <point x="591" y="522"/>
      <point x="571" y="552"/>
      <point x="534" y="570"/>
      <point x="488" y="576"/>
      <point x="459" y="577"/>
      <point x="453" y="577" type="qcurve" smooth="yes"/>
      <point x="436" y="577"/>
      <point x="399" y="574"/>
      <point x="386" y="574" type="qcurve"/>
      <point x="386" y="451" type="line"/>
      <point x="602" y="451" type="line" smooth="yes"/>
      <point x="625" y="451"/>
      <point x="666" y="429"/>
      <point x="696" y="393"/>
      <point x="714" y="349"/>
      <point x="714" y="328" type="qcurve" smooth="yes"/>
      <point x="714" y="205" type="line" smooth="yes"/>
      <point x="714" y="163"/>
      <point x="681" y="88"/>
      <point x="626" y="33"/>
      <point x="551" y="0"/>
      <point x="509" y="0" type="qcurve"/>
      <point x="204" y="1" type="line"/>
      <point x="165" y="1"/>
      <point x="97" y="37"/>
      <point x="46" y="96"/>
      <point x="17" y="169"/>
      <point x="17" y="205" type="qcurve"/>
      <point x="18" y="510" type="line"/>
      <point x="18" y="543"/>
      <point x="52" y="610"/>
      <point x="104" y="663"/>
      <point x="171" y="696"/>
      <point x="204" y="696" type="qcurve" smooth="yes"/>
      <point x="509" y="696" type="line" smooth="yes"/>
      <point x="552" y="696"/>
      <point x="627" y="664"/>
      <point x="681" y="609"/>
      <point x="713" y="534"/>
    </contour>
    <contour>
      <point x="386" y="328" type="line"/>
      <point x="386" y="123" type="line"/>
      <point x="516" y="123" type="line" smooth="yes"/>
      <point x="529" y="123"/>
      <point x="556" y="137"/>
      <point x="578" y="158"/>
      <point x="591" y="185"/>
      <point x="591" y="198" type="qcurve" smooth="yes"/>
      <point x="591" y="291" type="line" smooth="yes"/>
      <point x="591" y="304"/>
      <point x="567" y="328"/>
      <point x="554" y="328" type="qcurve" smooth="yes"/>
    </contour>
  </outline>
</glyph>
<glyph name="seven" format="2">
  <advance width="781"/>
  <unicode hex="0037"/>
  <outline>
    <contour>
      <point x="762" y="696" type="line"/>
      <point x="434" y="0" type="line"/>
      <point x="65" y="0" type="line"/>
      <point x="369" y="573" type="line"/>
      <point x="24" y="573" type="line"/>
      <point x="24" y="696" type="line"/>
    </contour>
  </outline>
</glyph>
<glyph name="eight" format="2">
  <advance width="722"/>
  <unicode hex="0038"/>
  <outline>
    <contour>
      <point x="211" y="697" type="qcurve"/>
      <point x="230" y="698"/>
      <point x="268" y="698"/>
      <point x="287" y="698" type="qcurve" smooth="yes"/>
      <point x="325" y="698"/>
      <point x="437" y="696"/>
      <point x="513" y="696" type="qcurve" smooth="yes"/>
      <point x="546" y="696"/>
      <point x="605" y="676"/>
      <point x="654" y="639"/>
      <point x="690" y="587"/>
      <point x="699" y="556" type="qcurve" smooth="yes"/>
      <point x="706" y="535"/>
      <point x="706" y="511" type="qcurve" smooth="yes"/>
      <point x="706" y="507" type="line"/>
      <point x="706" y="506" type="line"/>
      <point x="706" y="503" type="line"/>
      <point x="706" y="498" type="line"/>
      <point x="706" y="497" type="line"/>
      <point x="706" y="492" type="line"/>
      <point x="706" y="490" type="line"/>
      <point x="706" y="489" type="line"/>
      <point x="706" y="465" type="line" smooth="yes"/>
      <point x="706" y="439"/>
      <point x="687" y="397"/>
      <point x="655" y="367"/>
      <point x="613" y="349"/>
      <point x="591" y="348" type="qcurve"/>
      <point x="592" y="348" type="line"/>
      <point x="593" y="348" type="line"/>
      <point x="594" y="348" type="line"/>
      <point x="595" y="348" type="line"/>
      <point x="611" y="348"/>
      <point x="646" y="333"/>
      <point x="676" y="307"/>
      <point x="698" y="274"/>
      <point x="702" y="256" type="qcurve"/>
      <point x="707" y="239"/>
      <point x="707" y="227" type="qcurve"/>
      <point x="707" y="226"/>
      <point x="706" y="210"/>
      <point x="706" y="193" type="qcurve" smooth="yes"/>
      <point x="706" y="153"/>
      <point x="676" y="83"/>
      <point x="623" y="30"/>
      <point x="553" y="0"/>
      <point x="513" y="0" type="qcurve" smooth="yes"/>
      <point x="214" y="0" type="line" smooth="yes"/>
      <point x="169" y="0"/>
      <point x="98" y="35"/>
      <point x="48" y="93"/>
      <point x="21" y="168"/>
      <point x="21" y="209" type="qcurve" smooth="yes"/>
      <point x="21" y="249"/>
      <point x="63" y="317"/>
      <point x="94" y="334" type="qcurve" smooth="yes"/>
      <point x="113" y="345"/>
      <point x="132" y="348" type="qcurve"/>
      <point x="128" y="348" type="line" smooth="yes"/>
      <point x="109" y="348"/>
      <point x="70" y="373"/>
      <point x="55" y="395" type="qcurve"/>
      <point x="39" y="416"/>
      <point x="21" y="467"/>
      <point x="21" y="488" type="qcurve" smooth="yes"/>
      <point x="21" y="530"/>
      <point x="48" y="606"/>
      <point x="97" y="663"/>
      <point x="167" y="697"/>
    </contour>
    <contour>
      <point x="144" y="499" type="qcurve" smooth="yes"/>
      <point x="144" y="482"/>
      <point x="155" y="451"/>
      <point x="175" y="425"/>
      <point x="202" y="410"/>
      <point x="218" y="410" type="qcurve" smooth="yes"/>
      <point x="349" y="410" type="line"/>
      <point x="349" y="573" type="line"/>
      <point x="219" y="573" type="line" smooth="yes"/>
      <point x="206" y="573"/>
      <point x="179" y="560"/>
      <point x="158" y="539"/>
      <point x="144" y="512"/>
    </contour>
    <contour>
      <point x="349" y="123" type="line"/>
      <point x="349" y="286" type="line"/>
      <point x="225" y="286" type="line" smooth="yes"/>
      <point x="192" y="286"/>
      <point x="144" y="237"/>
      <point x="144" y="204" type="qcurve" smooth="yes"/>
      <point x="144" y="189"/>
      <point x="156" y="160"/>
      <point x="177" y="137"/>
      <point x="204" y="123"/>
      <point x="219" y="123" type="qcurve" smooth="yes"/>
    </contour>
  </outline>
</glyph>
<glyph name="nine" format="2">
  <advance width="742"/>
  <unicode hex="0039"/>
  <outline>
    <contour>
      <point x="24" y="245" type="qcurve"/>
      <point x="352" y="245" type="line"/>
      <point x="352" y="122" type="line"/>
      <point x="524" y="122" type="line" smooth="yes"/>
      <point x="537" y="122"/>
      <point x="563" y="136"/>
      <point x="584" y="157"/>
      <point x="598" y="183"/>
      <point x="598" y="196" type="qcurve" smooth="yes"/>
      <point x="598" y="286" type="line"/>
      <point x="136" y="286" type="line" smooth="yes"/>
      <point x="113" y="286"/>
      <point x="72" y="308"/>
      <point x="42" y="343"/>
      <point x="24" y="387"/>
      <point x="24" y="409" type="qcurve" smooth="yes"/>
      <point x="24" y="491" type="line" smooth="yes"/>
      <point x="24" y="533"/>
      <point x="57" y="607"/>
      <point x="113" y="663"/>
      <point x="187" y="696"/>
      <point x="229" y="696" type="qcurve"/>
      <point x="535" y="695" type="line"/>
      <point x="573" y="695"/>
      <point x="641" y="658"/>
      <point x="692" y="600"/>
      <point x="721" y="527"/>
      <point x="721" y="491" type="qcurve" smooth="yes"/>
      <point x="721" y="204" type="line" smooth="yes"/>
      <point x="721" y="168"/>
      <point x="692" y="95"/>
      <point x="641" y="36"/>
      <point x="574" y="0"/>
      <point x="535" y="0" type="qcurve"/>
      <point x="229" y="-1" type="line"/>
      <point x="175" y="-1"/>
      <point x="96" y="40"/>
      <point x="46" y="108"/>
      <point x="24" y="193"/>
      <point x="24" y="237" type="qcurve" smooth="yes"/>
      <point x="24" y="241"/>
    </contour>
    <contour>
      <point x="352" y="572" type="line"/>
      <point x="352" y="409" type="line"/>
      <point x="598" y="409" type="line"/>
      <point x="598" y="498" type="line" smooth="yes"/>
      <point x="598" y="511"/>
      <point x="584" y="537"/>
      <point x="563" y="558"/>
      <point x="537" y="572"/>
      <point x="524" y="572" type="qcurve" smooth="yes"/>
    </contour>
  </outline>
</glyph>
<glyph name="colon" format="1">
  <advance width="212"/>
  <unicode hex="003A"/>
  <outline>
    <contour>
      <point x="195" y="123" type="line"/>
      <point x="195" y="0" type="line"/>
      <point x="21" y="0" type="line"/>
      <point x="21" y="123" type="line"/>
    </contour>
    <contour>
      <point x="196" y="452" type="line"/>
      <point x="196" y="329" type="line"/>
      <point x="22" y="329" type="line"/>
      <point x="22" y="452" type="line"/>
    </contour>
  </outline>
</glyph>
<glyph name="semicolon" format="2">
  <advance width="238"/>
  <unicode hex="003B"/>
  <outline>
    <contour>
      <point x="204" y="0" type="line"/>
      <point x="46" y="-115" type="line"/>
      <point x="-13" y="-62" type="line"/>
      <point x="69" y="0" type="line"/>
      <point x="14" y="0" type="line"/>
      <point x="14" y="123" type="line"/>
      <point x="204" y="123" type="line"/>
    </contour>
    <contour>
      <point x="22" y="458" type="line"/>
      <point x="212" y="458" type="line"/>
      <point x="212" y="335" type="line"/>
      <point x="22" y="335" type="line"/>
    </contour>
  </outline>
</glyph>
<glyph name="less" format="2">
  <advance width="422"/>
  <unicode hex="003C"/>
  <outline>
    <contour>
      <point x="18" y="292" type="line"/>
      <point x="18" y="416" type="line"/>
      <point x="328" y="617" type="line"/>
      <point x="402" y="502" type="line"/>
      <point x="175" y="354" type="line"/>
      <point x="231" y="318"/>
      <point x="348" y="241"/>
      <point x="402" y="206" type="qcurve"/>
      <point x="328" y="91" type="line"/>
    </contour>
  </outline>
</glyph>
<glyph name="equal" format="2">
  <advance width="481"/>
  <unicode hex="003D"/>
  <outline>
    <contour>
      <point x="444" y="475" type="line"/>
      <point x="444" y="411" type="line"/>
      <point x="40" y="411" type="line"/>
      <point x="40" y="475" type="line"/>
    </contour>
    <contour>
      <point x="445" y="294" type="line"/>
      <point x="445" y="230" type="line"/>
      <point x="41" y="230" type="line"/>
      <point x="41" y="294" type="line"/>
    </contour>
  </outline>
</glyph>
<glyph name="greater" format="1">
  <advance width="422"/>
  <unicode hex="003E"/>
  <outline>
    <contour>
      <point x="92" y="91" type="line"/>
      <point x="18" y="206" type="line"/>
      <point x="72" y="241"/>
      <point x="189" y="318"/>
      <point x="245" y="354" type="qcurve"/>
      <point x="18" y="502" type="line"/>
      <point x="92" y="617" type="line"/>
      <point x="402" y="416" type="line"/>
      <point x="402" y="292" type="line"/>
    </contour>
  </outline>
</glyph>
<glyph name="question" format="2">
  <advance width="729"/>
  <unicode hex="003F"/>
  <outline>
    <contour>
      <point x="387" y="572" type="line"/>
      <point x="344" y="572" type="line" smooth="yes"/>
      <point x="292" y="572"/>
      <point x="248" y="574"/>
      <point x="243" y="574" type="qcurve" smooth="yes"/>
      <point x="219" y="574"/>
      <point x="181" y="566"/>
      <point x="154" y="540"/>
      <point x="140" y="490"/>
      <point x="140" y="449" type="qcurve"/>
      <point x="17" y="449" type="line"/>
      <point x="17" y="490" type="line" smooth="yes"/>
      <point x="17" y="532"/>
      <point x="49" y="606"/>
      <point x="105" y="661"/>
      <point x="179" y="694"/>
      <point x="221" y="694" type="qcurve"/>
      <point x="525" y="693" type="line"/>
      <point x="558" y="693"/>
      <point x="624" y="660"/>
      <point x="677" y="608"/>
      <point x="710" y="541"/>
      <point x="710" y="508" type="qcurve"/>
      <point x="711" y="368" type="line"/>
      <point x="711" y="324"/>
      <point x="677" y="275"/>
      <point x="623" y="251"/>
      <point x="556" y="245"/>
      <point x="523" y="245" type="qcurve"/>
      <point x="523" y="182" type="line"/>
      <point x="229" y="182" type="line"/>
      <point x="229" y="256" type="line" smooth="yes"/>
      <point x="229" y="289"/>
      <point x="259" y="332"/>
      <point x="304" y="357"/>
      <point x="357" y="368"/>
      <point x="379" y="368" type="qcurve" smooth="yes"/>
      <point x="383" y="368" type="line"/>
      <point x="384" y="368" type="line"/>
      <point x="385" y="368" type="line"/>
      <point x="386" y="368" type="line"/>
      <point x="387" y="368" type="line"/>
    </contour>
    <contour>
      <point x="523" y="123" type="line"/>
      <point x="523" y="0" type="line"/>
      <point x="229" y="0" type="line"/>
      <point x="229" y="123" type="line"/>
    </contour>
  </outline>
</glyph>
<glyph name="at" format="1">
  <advance width="742"/>
  <unicode hex="0040"/>
  <outline>
    <contour>
      <point x="366" y="625" type="qcurve" smooth="yes"/>
      <point x="436" y="625"/>
      <point x="560" y="571"/>
      <point x="652" y="478"/>
      <point x="706" y="353"/>
      <point x="706" y="282" type="qcurve" smooth="yes"/>
      <point x="706" y="225"/>
      <point x="690" y="174" type="qcurve"/>
      <point x="690" y="174"/>
      <point x="690" y="174" type="qcurve"/>
      <point x="690" y="173"/>
      <point x="690" y="173" type="qcurve"/>
      <point x="690" y="173"/>
      <point x="690" y="173" type="qcurve"/>
      <point x="689" y="172"/>
      <point x="689" y="172" type="qcurve"/>
      <point x="689" y="172"/>
      <point x="689" y="171" type="qcurve"/>
      <point x="689" y="171"/>
      <point x="689" y="170" type="qcurve"/>
      <point x="689" y="170"/>
      <point x="689" y="170" type="qcurve"/>
      <point x="689" y="170"/>
      <point x="688" y="169" type="qcurve"/>
      <point x="688" y="169"/>
      <point x="688" y="169" type="qcurve"/>
      <point x="688" y="169"/>
      <point x="688" y="168" type="qcurve"/>
      <point x="688" y="168"/>
      <point x="688" y="168" type="qcurve"/>
      <point x="687" y="165"/>
      <point x="685" y="161" type="qcurve" smooth="yes"/>
      <point x="683" y="155"/>
      <point x="677" y="140"/>
      <point x="672" y="131" type="qcurve"/>
      <point x="248" y="131" type="line" smooth="yes"/>
      <point x="231" y="131"/>
      <point x="200" y="147"/>
      <point x="177" y="172"/>
      <point x="164" y="204"/>
      <point x="164" y="221" type="qcurve" smooth="yes"/>
      <point x="164" y="352" type="line"/>
      <point x="165" y="367"/>
      <point x="180" y="396"/>
      <point x="204" y="420"/>
      <point x="233" y="434"/>
      <point x="248" y="434" type="qcurve" smooth="yes"/>
      <point x="555" y="434" type="line"/>
      <point x="555" y="179" type="line"/>
      <point x="645" y="179" type="line"/>
      <point x="653" y="204"/>
      <point x="663" y="255"/>
      <point x="663" y="282" type="qcurve" smooth="yes"/>
      <point x="663" y="343"/>
      <point x="616" y="452"/>
      <point x="536" y="534"/>
      <point x="427" y="581"/>
      <point x="366" y="581" type="qcurve" smooth="yes"/>
      <point x="304" y="581"/>
      <point x="196" y="534"/>
      <point x="114" y="452"/>
      <point x="67" y="343"/>
      <point x="67" y="282" type="qcurve" smooth="yes"/>
      <point x="67" y="220"/>
      <point x="114" y="112"/>
      <point x="196" y="32"/>
      <point x="304" y="-15"/>
      <point x="366" y="-15" type="qcurve" smooth="yes"/>
      <point x="415" y="-15"/>
      <point x="504" y="14"/>
      <point x="540" y="40" type="qcurve"/>
      <point x="576" y="15" type="line"/>
      <point x="530" y="-20"/>
      <point x="426" y="-58"/>
      <point x="366" y="-58" type="qcurve" smooth="yes"/>
      <point x="295" y="-58"/>
      <point x="170" y="-4"/>
      <point x="77" y="88"/>
      <point x="23" y="212"/>
      <point x="23" y="282" type="qcurve" smooth="yes"/>
      <point x="23" y="353"/>
      <point x="77" y="478"/>
      <point x="170" y="571"/>
      <point x="295" y="625"/>
    </contour>
    <contour>
      <point x="370" y="373" type="line"/>
      <point x="330" y="373" type="line"/>
      <point x="330" y="192" type="line"/>
      <point x="370" y="192" type="line"/>
    </contour>
  </outline>
</glyph>
<glyph name="D" format="1">
  <advance width="726"/>
  <unicode hex="0044"/>
  <outline>
    <contour>
      <point x="714" y="205" type="line" smooth="yes"/>
      <point x="714" y="163"/>
      <point x="682" y="88"/>
      <point x="626" y="32"/>
      <point x="551" y="0"/>
      <point x="509" y="0" type="qcurve" smooth="yes"/>
      <point x="18" y="0" type="line"/>
      <point x="18" y="697" type="line"/>
      <point x="509" y="697" type="line" smooth="yes"/>
      <point x="551" y="697"/>
      <point x="626" y="664"/>
      <point x="681" y="609"/>
      <point x="714" y="534"/>
      <point x="714" y="492" type="qcurve" smooth="yes"/>
    </contour>
    <contour>
      <point x="591" y="499" type="line" smooth="yes"/>
      <point x="591" y="512"/>
      <point x="577" y="539"/>
      <point x="556" y="560"/>
      <point x="530" y="573"/>
      <point x="517" y="573" type="qcurve" smooth="yes"/>
      <point x="345" y="573" type="line"/>
      <point x="345" y="123" type="line"/>
      <point x="517" y="123" type="line" smooth="yes"/>
      <point x="530" y="123"/>
      <point x="556" y="137"/>
      <point x="577" y="158"/>
      <point x="591" y="184"/>
      <point x="591" y="197" type="qcurve" smooth="yes"/>
    </contour>
  </outline>
</glyph>
<glyph name="F" format="2">
  <advance width="631"/>
  <unicode hex="0046"/>
  <outline>
    <contour>
      <point x="360" y="410" type="line"/>
      <point x="565" y="410" type="line"/>
      <point x="565" y="328" type="line"/>
      <point x="360" y="328" type="line"/>
      <point x="360" y="0" type="line"/>
      <point x="33" y="0" type="line"/>
      <point x="33" y="697" type="line"/>
      <point x="606" y="697" type="line"/>
      <point x="606" y="574" type="line"/>
      <point x="360" y="574" type="line"/>
    </contour>
  </outline>
</glyph>
<glyph name="P" format="1">
  <advance width="660"/>
  <unicode hex="0050"/>
  <outline>
    <contour>
      <point x="390" y="287" type="line"/>
      <point x="390" y="0" type="line"/>
      <point x="21" y="0" type="line"/>
      <point x="21" y="696" type="line"/>
      <point x="449" y="696" type="line" smooth="yes"/>
      <point x="488" y="696"/>
      <point x="557" y="659"/>
      <point x="607" y="601"/>
      <point x="636" y="528"/>
      <point x="636" y="492" type="qcurve" smooth="yes"/>
      <point x="636" y="447"/>
      <point x="606" y="372"/>
      <point x="552" y="318"/>
      <point x="476" y="288"/>
      <point x="430" y="287" type="qcurve"/>
    </contour>
    <contour>
      <point x="513" y="492" type="qcurve" smooth="yes"/>
      <point x="513" y="507"/>
      <point x="501" y="536"/>
      <point x="480" y="559"/>
      <point x="454" y="573"/>
      <point x="439" y="573" type="qcurve" smooth="yes"/>
      <point x="390" y="573" type="line"/>
      <point x="390" y="409" type="line"/>
      <point x="431" y="409" type="line" smooth="yes"/>
      <point x="448" y="409"/>
      <point x="478" y="423"/>
      <point x="500" y="445"/>
      <point x="513" y="475"/>
    </contour>
  </outline>
</glyph>
<glyph name="Q" format="2">
  <advance width="755"/>
  <unicode hex="0051"/>
  <outline>
    <contour>
      <point x="694" y="102" type="qcurve"/>
      <point x="602" y="204" type="line"/>
      <point x="602" y="499" type="line" smooth="yes"/>
      <point x="602" y="512"/>
      <point x="588" y="539"/>
      <point x="567" y="560"/>
      <point x="540" y="573"/>
      <point x="527" y="573" type="qcurve" smooth="yes"/>
      <point x="397" y="573" type="line"/>
      <point x="397" y="122" type="line"/>
      <point x="438" y="122" type="line"/>
      <point x="558" y="3" type="line"/>
      <point x="558" y="3"/>
      <point x="558" y="3" type="qcurve"/>
      <point x="557" y="3" type="line"/>
      <point x="557" y="3"/>
      <point x="557" y="3" type="qcurve"/>
      <point x="556" y="3" type="line"/>
      <point x="556" y="3"/>
      <point x="556" y="3" type="qcurve"/>
      <point x="555" y="2" type="line"/>
      <point x="555" y="2"/>
      <point x="555" y="2" type="qcurve"/>
      <point x="554" y="2" type="line"/>
      <point x="554" y="2"/>
      <point x="554" y="2" type="qcurve"/>
      <point x="553" y="2" type="line"/>
      <point x="553" y="2"/>
      <point x="553" y="2" type="qcurve"/>
      <point x="552" y="2" type="line"/>
      <point x="552" y="2"/>
      <point x="552" y="2" type="qcurve"/>
      <point x="551" y="2" type="line"/>
      <point x="551" y="2"/>
      <point x="551" y="2" type="qcurve"/>
      <point x="550" y="1" type="line"/>
      <point x="550" y="1"/>
      <point x="550" y="1" type="qcurve"/>
      <point x="549" y="1" type="line"/>
      <point x="549" y="1"/>
      <point x="549" y="1" type="qcurve"/>
      <point x="548" y="1" type="line"/>
      <point x="543" y="0"/>
      <point x="538" y="0" type="qcurve" smooth="yes"/>
      <point x="215" y="0" type="line" smooth="yes"/>
      <point x="177" y="0"/>
      <point x="109" y="36"/>
      <point x="58" y="95"/>
      <point x="28" y="168"/>
      <point x="28" y="204" type="qcurve" smooth="yes"/>
      <point x="28" y="409" type="line"/>
      <point x="29" y="510" type="line"/>
      <point x="29" y="543"/>
      <point x="63" y="609"/>
      <point x="116" y="662"/>
      <point x="182" y="695"/>
      <point x="215" y="695" type="qcurve"/>
      <point x="520" y="696" type="line"/>
      <point x="562" y="696"/>
      <point x="637" y="663"/>
      <point x="693" y="608"/>
      <point x="725" y="533"/>
      <point x="725" y="491" type="qcurve"/>
      <point x="723" y="180" type="line"/>
      <point x="723" y="171"/>
      <point x="718" y="150"/>
      <point x="710" y="128"/>
      <point x="700" y="108"/>
    </contour>
    <contour>
      <point x="747" y="0" type="qcurve"/>
      <point x="602" y="0" type="line"/>
      <point x="559" y="39"/>
      <point x="479" y="122"/>
      <point x="438" y="163" type="qcurve"/>
      <point x="520" y="246" type="line"/>
      <point x="581" y="189"/>
      <point x="693" y="63"/>
    </contour>
  </outline>
</glyph>
<glyph name="R" format="2">
  <advance width="739"/>
  <unicode hex="0052"/>
  <outline>
    <contour>
      <point x="645" y="492" type="qcurve" smooth="yes"/>
      <point x="645" y="438"/>
      <point x="594" y="350"/>
      <point x="550" y="319" type="qcurve"/>
      <point x="727" y="0" type="line"/>
      <point x="481" y="0" type="line"/>
      <point x="465" y="36"/>
      <point x="419" y="109"/>
      <point x="399" y="144" type="qcurve"/>
      <point x="399" y="0" type="line"/>
      <point x="30" y="0" type="line"/>
      <point x="30" y="697" type="line"/>
      <point x="440" y="697" type="line" smooth="yes"/>
      <point x="482" y="697"/>
      <point x="557" y="664"/>
      <point x="612" y="609"/>
      <point x="645" y="534"/>
    </contour>
    <contour>
      <point x="522" y="492" type="qcurve" smooth="yes"/>
      <point x="522" y="526"/>
      <point x="473" y="574"/>
      <point x="440" y="574" type="qcurve" smooth="yes"/>
      <point x="399" y="574" type="line"/>
      <point x="399" y="410" type="line"/>
      <point x="447" y="410" type="line" smooth="yes"/>
      <point x="462" y="410"/>
      <point x="490" y="425"/>
      <point x="510" y="449"/>
      <point x="522" y="478"/>
    </contour>
  </outline>
</glyph>
<glyph name="T" format="2">
  <advance width="699"/>
  <unicode hex="0054"/>
  <outline>
    <contour>
      <point x="680" y="697" type="line"/>
      <point x="680" y="574" type="line"/>
      <point x="516" y="574" type="line"/>
      <point x="516" y="0" type="line"/>
      <point x="188" y="0" type="line"/>
      <point x="188" y="574" type="line"/>
      <point x="25" y="574" type="line"/>
      <point x="25" y="697" type="line"/>
    </contour>
  </outline>
</glyph>
<glyph name="W" format="1">
  <advance width="1120"/>
  <unicode hex="0057"/>
  <outline>
    <contour>
      <point x="137" y="0" type="line"/>
      <point x="24" y="696" type="line"/>
      <point x="351" y="696" type="line"/>
      <point x="424" y="243" type="line"/>
      <point x="498" y="696" type="line"/>
      <point x="838" y="696" type="line"/>
      <point x="911" y="243" type="line"/>
      <point x="985" y="696" type="line"/>
      <point x="1109" y="696" type="line"/>
      <point x="996" y="0" type="line"/>
      <point x="624" y="0" type="line"/>
      <point x="566" y="354" type="line"/>
      <point x="509" y="0" type="line"/>
    </contour>
  </outline>
</glyph>
<glyph name="X" format="2">
  <advance width="727"/>
  <unicode hex="0058"/>
  <outline>
    <contour>
      <point x="174" y="0" type="line"/>
      <point x="16" y="0" type="line"/>
      <point x="541" y="697" type="line"/>
      <point x="712" y="697" type="line"/>
    </contour>
    <contour>
      <point x="16" y="697" type="line"/>
      <point x="401" y="697" type="line"/>
      <point x="712" y="0" type="line"/>
      <point x="340" y="0" type="line"/>
    </contour>
  </outline>
</glyph>
<glyph name="Y" format="1">
  <advance width="758"/>
  <unicode hex="0059"/>
  <outline>
    <contour>
      <point x="501" y="491" type="line"/>
      <point x="597" y="696" type="line"/>
      <point x="745" y="696" type="line"/>
      <point x="560" y="329" type="line"/>
      <point x="560" y="0" type="line"/>
      <point x="200" y="0" type="line"/>
      <point x="200" y="329" type="line"/>
      <point x="15" y="696" type="line"/>
      <point x="406" y="696" type="line"/>
    </contour>
  </outline>
</glyph>
<glyph name="Z" format="2">
  <advance width="731"/>
  <unicode hex="005A"/>
  <outline>
    <contour>
      <point x="713" y="122" type="line"/>
      <point x="713" y="0" type="line"/>
      <point x="17" y="0" type="line"/>
      <point x="17" y="122" type="line"/>
      <point x="385" y="573" type="line"/>
      <point x="17" y="573" type="line"/>
      <point x="17" y="696" type="line"/>
      <point x="713" y="696" type="line"/>
      <point x="713" y="573" type="line"/>
      <point x="385" y="122" type="line"/>
    </contour>
  </outline>
</glyph>
<glyph name="bracketleft" format="2">
  <advance width="287"/>
  <unicode hex="005B"/>
  <outline>
    <contour>
      <point x="415" y="898" type="line"/>
      <point x="415" y="775" type="line"/>
      <point x="260" y="775" type="line"/>
      <point x="260" y="-87" type="line"/>
      <point x="415" y="-87" type="line"/>
      <point x="415" y="-210" type="line"/>
      <point x="29" y="-209" type="line"/>
      <point x="29" y="899" type="line"/>
    </contour>
  </outline>
</glyph>
<glyph name="backslash" format="1">
  <advance width="507"/>
  <unicode hex="005C"/>
  <outline>
    <contour>
      <point x="349" y="0" type="line"/>
      <point x="15" y="696" type="line"/>
      <point x="157" y="696" type="line"/>
      <point x="492" y="0" type="line"/>
    </contour>
  </outline>
</glyph>
<glyph name="bracketright" format="2">
  <advance width="446"/>
  <unicode hex="005D"/>
  <outline>
    <contour>
      <point x="415" y="899" type="line"/>
      <point x="415" y="-209" type="line"/>
      <point x="29" y="-210" type="line"/>
      <point x="29" y="-87" type="line"/>
      <point x="184" y="-87" type="line"/>
      <point x="184" y="775" type="line"/>
      <point x="29" y="775" type="line"/>
      <point x="29" y="898" type="line"/>
    </contour>
  </outline>
</glyph>
<glyph name="asciicircum" format="2">
  <advance width="573"/>
  <unicode hex="005E"/>
  <outline>
    <contour>
      <point x="552" y="368" type="line"/>
      <point x="486" y="324" type="line"/>
      <point x="289" y="598" type="line"/>
      <point x="92" y="324" type="line"/>
      <point x="26" y="368" type="line"/>
      <point x="245" y="671" type="line"/>
      <point x="333" y="671" type="line"/>
    </contour>
  </outline>
</glyph>
<glyph name="underscore" format="2">
  <advance width="394"/>
  <unicode hex="005F"/>
  <outline>
    <contour>
      <point x="374" y="-20" type="line"/>
      <point x="374" y="-98" type="line"/>
      <point x="20" y="-97" type="line"/>
      <point x="20" y="-20" type="line"/>
    </contour>
  </outline>
</glyph>
<glyph name="grave" format="1">
  <advance width="350"/>
  <unicode hex="0060"/>
  <outline>
    <contour>
      <point x="334" y="826" type="line"/>
      <point x="276" y="750" type="line"/>
      <point x="25" y="856" type="line"/>
      <point x="122" y="982" type="line"/>
    </contour>
  </outline>
</glyph>
<glyph name="b" format="1">
  <advance width="686"/>
  <unicode hex="0062"/>
  <outline>
    <contour>
      <point x="662" y="245" type="qcurve" smooth="yes"/>
      <point x="662" y="194"/>
      <point x="623" y="105"/>
      <point x="557" y="38"/>
      <point x="467" y="0"/>
      <point x="416" y="0" type="qcurve" smooth="yes"/>
      <point x="7" y="0" type="line"/>
      <point x="7" y="696" type="line"/>
      <point x="416" y="696" type="line" smooth="yes"/>
      <point x="458" y="696"/>
      <point x="533" y="664"/>
      <point x="589" y="608"/>
      <point x="621" y="533"/>
      <point x="621" y="491" type="qcurve" smooth="yes"/>
      <point x="621" y="446"/>
      <point x="603" y="406" type="qcurve"/>
      <point x="632" y="373"/>
      <point x="662" y="290"/>
    </contour>
    <contour>
      <point x="498" y="499" type="qcurve" smooth="yes"/>
      <point x="498" y="512"/>
      <point x="484" y="538"/>
      <point x="463" y="559"/>
      <point x="437" y="573"/>
      <point x="424" y="573" type="qcurve" smooth="yes"/>
      <point x="376" y="573" type="line"/>
      <point x="376" y="409" type="line"/>
      <point x="416" y="409" type="line" smooth="yes"/>
      <point x="455" y="409"/>
      <point x="498" y="462"/>
    </contour>
    <contour>
      <point x="376" y="327" type="line"/>
      <point x="376" y="163" type="line"/>
      <point x="416" y="163" type="line" smooth="yes"/>
      <point x="455" y="163"/>
      <point x="498" y="217"/>
      <point x="498" y="253" type="qcurve" smooth="yes"/>
      <point x="498" y="266"/>
      <point x="484" y="293"/>
      <point x="463" y="314"/>
      <point x="437" y="327"/>
      <point x="424" y="327" type="qcurve" smooth="yes"/>
    </contour>
  </outline>
</glyph>
<glyph name="e" format="1">
  <advance width="616"/>
  <unicode hex="0065"/>
  <outline>
    <contour>
      <point x="349" y="410" type="line"/>
      <point x="554" y="410" type="line"/>
      <point x="554" y="328" type="line"/>
      <point x="349" y="328" type="line"/>
      <point x="349" y="123" type="line"/>
      <point x="595" y="123" type="line"/>
      <point x="595" y="0" type="line"/>
      <point x="22" y="0" type="line"/>
      <point x="22" y="696" type="line"/>
      <point x="595" y="696" type="line"/>
      <point x="595" y="573" type="line"/>
      <point x="349" y="573" type="line"/>
    </contour>
  </outline>
</glyph>
<glyph name="f" format="2">
  <advance width="631"/>
  <unicode hex="0066"/>
  <outline>
    <contour>
      <point x="360" y="410" type="line"/>
      <point x="565" y="410" type="line"/>
      <point x="565" y="328" type="line"/>
      <point x="360" y="328" type="line"/>
      <point x="360" y="0" type="line"/>
      <point x="33" y="0" type="line"/>
      <point x="33" y="697" type="line"/>
      <point x="606" y="697" type="line"/>
      <point x="606" y="574" type="line"/>
      <point x="360" y="574" type="line"/>
    </contour>
  </outline>
</glyph>
<glyph name="g" format="1">
  <advance width="744"/>
  <unicode hex="0067"/>
  <outline>
    <contour>
      <point x="535" y="696" type="line" smooth="yes"/>
      <point x="574" y="696"/>
      <point x="641" y="660"/>
      <point x="691" y="601"/>
      <point x="720" y="528"/>
      <point x="721" y="492" type="qcurve"/>
      <point x="598" y="492" type="line"/>
      <point x="598" y="496" type="line" smooth="yes"/>
      <point x="598" y="508"/>
      <point x="586" y="535"/>
      <point x="566" y="558"/>
      <point x="539" y="573"/>
      <point x="524" y="573" type="qcurve" smooth="yes"/>
      <point x="393" y="573" type="line"/>
      <point x="393" y="123" type="line"/>
      <point x="504" y="123" type="line"/>
      <point x="512" y="124"/>
      <point x="521" y="126" type="qcurve" smooth="yes"/>
      <point x="538" y="130"/>
      <point x="553" y="137" type="qcurve" smooth="yes"/>
      <point x="591" y="156"/>
      <point x="591" y="197" type="qcurve" smooth="yes"/>
      <point x="591" y="205" type="line"/>
      <point x="468" y="205" type="line"/>
      <point x="468" y="328" type="line"/>
      <point x="714" y="328" type="line"/>
      <point x="714" y="205" type="line" smooth="yes"/>
      <point x="714" y="163"/>
      <point x="681" y="89"/>
      <point x="626" y="33"/>
      <point x="588" y="16" type="qcurve" smooth="yes"/>
      <point x="554" y="1"/>
      <point x="517" y="0" type="qcurve"/>
      <point x="211" y="0" type="line" smooth="yes"/>
      <point x="172" y="0"/>
      <point x="105" y="37"/>
      <point x="54" y="95"/>
      <point x="25" y="169"/>
      <point x="25" y="205" type="qcurve" smooth="yes"/>
      <point x="25" y="492" type="line" smooth="yes"/>
      <point x="25" y="528"/>
      <point x="54" y="601"/>
      <point x="105" y="659"/>
      <point x="172" y="696"/>
      <point x="211" y="696" type="qcurve" smooth="yes"/>
    </contour>
  </outline>
</glyph>
<glyph name="j" format="2">
  <advance width="491"/>
  <unicode hex="006A"/>
  <outline>
    <contour>
      <point x="469" y="697" type="line"/>
      <point x="469" y="205" type="line" smooth="yes"/>
      <point x="469" y="163"/>
      <point x="436" y="88"/>
      <point x="381" y="33"/>
      <point x="306" y="0"/>
      <point x="264" y="0" type="qcurve" smooth="yes"/>
      <point x="18" y="0" type="line"/>
      <point x="18" y="123" type="line"/>
      <point x="141" y="123" type="line"/>
      <point x="141" y="697" type="line"/>
    </contour>
  </outline>
</glyph>
<glyph name="k" format="2">
  <advance width="778"/>
  <unicode hex="006B"/>
  <outline>
    <contour>
      <point x="483" y="377" type="line"/>
      <point x="757" y="0" type="line"/>
      <point x="470" y="0" type="line"/>
      <point x="388" y="109" type="line"/>
      <point x="388" y="0" type="line"/>
      <point x="19" y="0" type="line"/>
      <point x="19" y="697" type="line"/>
      <point x="388" y="697" type="line"/>
      <point x="388" y="410" type="line"/>
      <point x="440" y="482"/>
      <point x="542" y="625"/>
      <point x="593" y="697" type="qcurve"/>
      <point x="716" y="697" type="line"/>
    </contour>
  </outline>
</glyph>
<glyph name="l" format="2">
  <advance width="626"/>
  <unicode hex="006C"/>
  <outline>
    <contour>
      <point x="599" y="123" type="line"/>
      <point x="599" y="0" type="line"/>
      <point x="26" y="0" type="line"/>
      <point x="26" y="697" type="line"/>
      <point x="354" y="697" type="line"/>
      <point x="354" y="123" type="line"/>
    </contour>
  </outline>
</glyph>
<glyph name="m" format="2">
  <advance width="1043"/>
  <unicode hex="006D"/>
  <outline>
    <contour>
      <point x="1012" y="696" type="line"/>
      <point x="1012" y="0" type="line"/>
      <point x="684" y="0" type="line"/>
      <point x="684" y="278" type="line"/>
      <point x="602" y="0" type="line"/>
      <point x="479" y="0" type="line"/>
      <point x="397" y="278" type="line"/>
      <point x="397" y="0" type="line"/>
      <point x="29" y="0" type="line"/>
      <point x="29" y="696" type="line"/>
      <point x="397" y="696" type="line"/>
      <point x="541" y="209" type="line"/>
      <point x="684" y="696" type="line"/>
    </contour>
  </outline>
</glyph>
<glyph name="o" format="2">
  <advance width="744"/>
  <unicode hex="006F"/>
  <outline>
    <contour>
      <point x="719" y="186" type="line" smooth="yes"/>
      <point x="719" y="148"/>
      <point x="683" y="80"/>
      <point x="624" y="29"/>
      <point x="551" y="0"/>
      <point x="515" y="0" type="qcurve"/>
      <point x="210" y="1" type="line"/>
      <point x="171" y="1"/>
      <point x="103" y="37"/>
      <point x="52" y="95"/>
      <point x="23" y="168"/>
      <point x="23" y="205" type="qcurve" smooth="yes"/>
      <point x="23" y="510" type="line" smooth="yes"/>
      <point x="23" y="543"/>
      <point x="57" y="609"/>
      <point x="110" y="663"/>
      <point x="177" y="696"/>
      <point x="210" y="696" type="qcurve" smooth="yes"/>
      <point x="533" y="696" type="line" smooth="yes"/>
      <point x="571" y="696"/>
      <point x="639" y="659"/>
      <point x="690" y="601"/>
      <point x="719" y="528"/>
      <point x="719" y="492" type="qcurve" smooth="yes"/>
    </contour>
    <contour>
      <point x="596" y="492" type="line" smooth="yes"/>
      <point x="596" y="507"/>
      <point x="584" y="536"/>
      <point x="564" y="559"/>
      <point x="537" y="573"/>
      <point x="522" y="573" type="qcurve" smooth="yes"/>
      <point x="392" y="573" type="line"/>
      <point x="392" y="123" type="line"/>
      <point x="522" y="123" type="line" smooth="yes"/>
      <point x="535" y="123"/>
      <point x="562" y="136"/>
      <point x="583" y="157"/>
      <point x="596" y="183"/>
      <point x="596" y="197" type="qcurve" smooth="yes"/>
    </contour>
  </outline>
</glyph>
<glyph name="q" format="2">
  <advance width="744"/>
  <unicode hex="0071"/>
  <outline>
    <contour>
      <point x="525" y="0" type="line"/>
      <point x="515" y="0" type="line"/>
      <point x="210" y="1" type="line"/>
      <point x="171" y="1"/>
      <point x="103" y="37"/>
      <point x="52" y="95"/>
      <point x="23" y="168"/>
      <point x="23" y="205" type="qcurve" smooth="yes"/>
      <point x="23" y="510" type="line" smooth="yes"/>
      <point x="23" y="543"/>
      <point x="57" y="609"/>
      <point x="110" y="663"/>
      <point x="177" y="696"/>
      <point x="210" y="696" type="qcurve" smooth="yes"/>
      <point x="533" y="696" type="line" smooth="yes"/>
      <point x="571" y="696"/>
      <point x="639" y="659"/>
      <point x="690" y="601"/>
      <point x="719" y="528"/>
      <point x="719" y="492" type="qcurve" smooth="yes"/>
      <point x="719" y="186" type="line" smooth="yes"/>
      <point x="719" y="140"/>
      <point x="669" y="63"/>
      <point x="631" y="37" type="qcurve"/>
      <point x="671" y="-31" type="line"/>
      <point x="544" y="-31" type="line"/>
    </contour>
    <contour>
      <point x="596" y="492" type="line" smooth="yes"/>
      <point x="596" y="507"/>
      <point x="584" y="536"/>
      <point x="564" y="559"/>
      <point x="537" y="573"/>
      <point x="522" y="573" type="qcurve" smooth="yes"/>
      <point x="392" y="573" type="line"/>
      <point x="392" y="123" type="line"/>
      <point x="452" y="123" type="line"/>
      <point x="404" y="203" type="line"/>
      <point x="535" y="203" type="line"/>
      <point x="569" y="143" type="line"/>
      <point x="581" y="154"/>
      <point x="596" y="182"/>
      <point x="596" y="197" type="qcurve" smooth="yes"/>
    </contour>
  </outline>
</glyph>
<glyph name="u" format="2">
  <advance width="761"/>
  <unicode hex="0075"/>
  <outline>
    <contour>
      <point x="732" y="696" type="line"/>
      <point x="732" y="185" type="line" smooth="yes"/>
      <point x="732" y="152"/>
      <point x="699" y="86"/>
      <point x="645" y="33"/>
      <point x="579" y="0"/>
      <point x="546" y="0" type="qcurve"/>
      <point x="241" y="-1" type="line"/>
      <point x="205" y="-1"/>
      <point x="132" y="28"/>
      <point x="73" y="79"/>
      <point x="37" y="147"/>
      <point x="37" y="185" type="qcurve" smooth="yes"/>
      <point x="37" y="696" type="line"/>
      <point x="405" y="696" type="line"/>
      <point x="405" y="122" type="line"/>
      <point x="535" y="122" type="line" smooth="yes"/>
      <point x="548" y="122"/>
      <point x="575" y="135"/>
      <point x="596" y="156"/>
      <point x="609" y="182"/>
      <point x="609" y="196" type="qcurve" smooth="yes"/>
      <point x="609" y="696" type="line"/>
    </contour>
  </outline>
</glyph>
<glyph name="v" format="2">
  <advance width="850"/>
  <unicode hex="0076"/>
  <outline>
    <contour>
      <point x="536" y="190" type="qcurve"/>
      <point x="581" y="318"/>
      <point x="670" y="568"/>
      <point x="715" y="696" type="qcurve"/>
      <point x="838" y="696" type="line"/>
      <point x="592" y="0" type="line"/>
      <point x="264" y="0" type="line"/>
      <point x="202" y="175"/>
      <point x="81" y="521"/>
      <point x="19" y="696" type="qcurve"/>
      <point x="387" y="696" type="line"/>
      <point x="425" y="569"/>
      <point x="499" y="318"/>
    </contour>
  </outline>
</glyph>
<glyph name="w" format="2">
  <advance width="1282"/>
  <unicode hex="0077"/>
  <outline>
    <contour>
      <point x="973" y="190" type="qcurve"/>
      <point x="1018" y="319"/>
      <point x="1107" y="568"/>
      <point x="1152" y="697" type="qcurve"/>
      <point x="1275" y="697" type="line"/>
      <point x="1029" y="0" type="line"/>
      <point x="701" y="0" type="line"/>
      <point x="640" y="174" type="line"/>
      <point x="578" y="0" type="line"/>
      <point x="250" y="0" type="line"/>
      <point x="5" y="697" type="line"/>
      <point x="373" y="697" type="line"/>
      <point x="410" y="568"/>
      <point x="485" y="319"/>
      <point x="522" y="190" type="qcurve"/>
      <point x="701" y="697" type="line"/>
      <point x="824" y="697" type="line"/>
      <point x="861" y="568"/>
      <point x="935" y="319"/>
    </contour>
  </outline>
</glyph>
<glyph name="x" format="2">
  <advance width="727"/>
  <unicode hex="0078"/>
  <outline>
    <contour>
      <point x="469" y="294" type="line"/>
      <point x="711" y="0" type="line"/>
      <point x="588" y="0" type="line"/>
      <point x="417" y="208" type="line"/>
      <point x="293" y="0" type="line"/>
      <point x="18" y="0" type="line"/>
      <point x="254" y="407" type="line"/>
      <point x="15" y="697" type="line"/>
      <point x="138" y="697" type="line"/>
      <point x="305" y="494" type="line"/>
      <point x="422" y="697" type="line"/>
      <point x="710" y="697" type="line"/>
    </contour>
  </outline>
</glyph>
<glyph name="y" format="2">
  <advance width="692"/>
  <unicode hex="0079"/>
  <outline>
    <contour>
      <point x="140" y="696" type="line"/>
      <point x="243" y="405" type="line"/>
      <point x="345" y="696" type="line"/>
      <point x="672" y="696" type="line"/>
      <point x="493" y="187" type="line"/>
      <point x="493" y="0" type="line"/>
      <point x="182" y="0" type="line"/>
      <point x="182" y="231" type="line"/>
      <point x="18" y="696" type="line"/>
    </contour>
  </outline>
</glyph>
<glyph name="z" format="2">
  <advance width="731"/>
  <unicode hex="007A"/>
  <outline>
    <contour>
      <point x="713" y="122" type="line"/>
      <point x="713" y="0" type="line"/>
      <point x="17" y="0" type="line"/>
      <point x="17" y="122" type="line"/>
      <point x="385" y="573" type="line"/>
      <point x="17" y="573" type="line"/>
      <point x="17" y="696" type="line"/>
      <point x="713" y="696" type="line"/>
      <point x="713" y="573" type="line"/>
      <point x="385" y="122" type="line"/>
    </contour>
  </outline>
</glyph>
<glyph name="braceleft" format="1">
  <advance width="428"/>
  <unicode hex="007B"/>
  <outline>
    <contour>
      <point x="354" y="654" type="qcurve"/>
      <point x="351" y="619"/>
      <point x="346" y="575"/>
      <point x="342" y="536"/>
      <point x="337" y="492"/>
      <point x="334" y="457" type="qcurve"/>
      <point x="328" y="436"/>
      <point x="312" y="417" type="qcurve" smooth="yes"/>
      <point x="298" y="400"/>
      <point x="247" y="366"/>
      <point x="204" y="355" type="qcurve"/>
      <point x="249" y="344"/>
      <point x="299" y="308"/>
      <point x="313" y="291" type="qcurve" smooth="yes"/>
      <point x="329" y="271"/>
      <point x="334" y="249" type="qcurve"/>
      <point x="337" y="214"/>
      <point x="342" y="170"/>
      <point x="346" y="133"/>
      <point x="351" y="89"/>
      <point x="354" y="54" type="qcurve"/>
      <point x="357" y="31"/>
      <point x="382" y="-1"/>
      <point x="414" y="-23"/>
      <point x="447" y="-35"/>
      <point x="458" y="-37" type="qcurve"/>
      <point x="458" y="-88" type="line"/>
      <point x="439" y="-90"/>
      <point x="406" y="-92"/>
      <point x="390" y="-92" type="qcurve" smooth="yes"/>
      <point x="377" y="-92"/>
      <point x="325" y="-89"/>
      <point x="294" y="-82" type="qcurve" smooth="yes"/>
      <point x="263" y="-75"/>
      <point x="219" y="-54"/>
      <point x="204" y="-42" type="qcurve" smooth="yes"/>
      <point x="168" y="-12"/>
      <point x="158" y="25" type="qcurve"/>
      <point x="154" y="59"/>
      <point x="149" y="100"/>
      <point x="145" y="138"/>
      <point x="140" y="183"/>
      <point x="136" y="220" type="qcurve" smooth="yes"/>
      <point x="133" y="249"/>
      <point x="97" y="285"/>
      <point x="76" y="296" type="qcurve" smooth="yes"/>
      <point x="52" y="308"/>
      <point x="22" y="314" type="qcurve"/>
      <point x="16" y="349" type="line"/>
      <point x="15" y="349" type="line"/>
      <point x="16" y="355" type="line"/>
      <point x="15" y="359" type="line"/>
      <point x="16" y="359" type="line"/>
      <point x="22" y="393" type="line"/>
      <point x="54" y="401"/>
      <point x="76" y="412" type="qcurve" smooth="yes"/>
      <point x="97" y="423"/>
      <point x="133" y="459"/>
      <point x="136" y="487" type="qcurve" smooth="yes"/>
      <point x="140" y="525"/>
      <point x="145" y="570"/>
      <point x="149" y="608"/>
      <point x="154" y="649"/>
      <point x="158" y="683" type="qcurve"/>
      <point x="168" y="720"/>
      <point x="204" y="750" type="qcurve" smooth="yes"/>
      <point x="219" y="762"/>
      <point x="263" y="784"/>
      <point x="294" y="791" type="qcurve" smooth="yes"/>
      <point x="325" y="798"/>
      <point x="377" y="801"/>
      <point x="390" y="801" type="qcurve" smooth="yes"/>
      <point x="406" y="801"/>
      <point x="439" y="799"/>
      <point x="458" y="797" type="qcurve"/>
      <point x="458" y="746" type="line"/>
      <point x="448" y="744"/>
      <point x="415" y="733"/>
      <point x="383" y="711"/>
      <point x="357" y="678"/>
    </contour>
  </outline>
</glyph>
<glyph name="bar" format="1">
  <advance width="172"/>
  <unicode hex="007C"/>
  <outline>
    <contour>
      <point x="144" y="864" type="line"/>
      <point x="144" y="-176" type="line"/>
      <point x="29" y="-176" type="line"/>
      <point x="29" y="864" type="line"/>
    </contour>
  </outline>
</glyph>
<glyph name="braceright" format="1">
  <advance width="428"/>
  <unicode hex="007D"/>
  <outline>
    <contour>
      <point x="72" y="55" type="qcurve"/>
      <point x="75" y="90"/>
      <point x="80" y="134"/>
      <point x="84" y="173"/>
      <point x="89" y="217"/>
      <point x="92" y="252" type="qcurve"/>
      <point x="98" y="273"/>
      <point x="114" y="292" type="qcurve" smooth="yes"/>
      <point x="128" y="309"/>
      <point x="179" y="343"/>
      <point x="222" y="354" type="qcurve"/>
      <point x="177" y="365"/>
      <point x="127" y="401"/>
      <point x="113" y="418" type="qcurve" smooth="yes"/>
      <point x="96" y="437"/>
      <point x="92" y="460" type="qcurve"/>
      <point x="89" y="495"/>
      <point x="84" y="539"/>
      <point x="80" y="576"/>
      <point x="75" y="620"/>
      <point x="72" y="655" type="qcurve"/>
      <point x="69" y="677"/>
      <point x="44" y="710"/>
      <point x="12" y="732"/>
      <point x="-21" y="744"/>
      <point x="-32" y="746" type="qcurve"/>
      <point x="-32" y="797" type="line"/>
      <point x="-13" y="799"/>
      <point x="20" y="801"/>
      <point x="36" y="801" type="qcurve" smooth="yes"/>
      <point x="49" y="801"/>
      <point x="101" y="798"/>
      <point x="132" y="791" type="qcurve" smooth="yes"/>
      <point x="163" y="784"/>
      <point x="207" y="763"/>
      <point x="222" y="751" type="qcurve" smooth="yes"/>
      <point x="258" y="721"/>
      <point x="268" y="684" type="qcurve"/>
      <point x="272" y="650"/>
      <point x="277" y="609"/>
      <point x="281" y="571"/>
      <point x="286" y="526"/>
      <point x="290" y="489" type="qcurve" smooth="yes"/>
      <point x="293" y="460"/>
      <point x="329" y="424"/>
      <point x="350" y="413" type="qcurve" smooth="yes"/>
      <point x="374" y="401"/>
      <point x="404" y="395" type="qcurve"/>
      <point x="410" y="360" type="line"/>
      <point x="411" y="360" type="line"/>
      <point x="410" y="354" type="line"/>
      <point x="411" y="350" type="line"/>
      <point x="410" y="350" type="line"/>
      <point x="404" y="316" type="line"/>
      <point x="372" y="308"/>
      <point x="350" y="297" type="qcurve" smooth="yes"/>
      <point x="329" y="286"/>
      <point x="293" y="250"/>
      <point x="290" y="222" type="qcurve" smooth="yes"/>
      <point x="286" y="184"/>
      <point x="281" y="139"/>
      <point x="277" y="101"/>
      <point x="272" y="60"/>
      <point x="268" y="26" type="qcurve"/>
      <point x="258" y="-11"/>
      <point x="222" y="-41" type="qcurve" smooth="yes"/>
      <point x="207" y="-53"/>
      <point x="163" y="-75"/>
      <point x="132" y="-82" type="qcurve" smooth="yes"/>
      <point x="101" y="-89"/>
      <point x="49" y="-92"/>
      <point x="36" y="-92" type="qcurve" smooth="yes"/>
      <point x="20" y="-92"/>
      <point x="-13" y="-90"/>
      <point x="-32" y="-88" type="qcurve"/>
      <point x="-32" y="-37" type="line"/>
      <point x="-22" y="-35"/>
      <point x="11" y="-24"/>
      <point x="43" y="-2"/>
      <point x="69" y="31"/>
    </contour>
  </outline>
</glyph>
<glyph name="asciitilde" format="2">
  <advance width="679"/>
  <unicode hex="007E"/>
  <outline>
    <contour>
      <point x="492" y="460" type="qcurve" smooth="yes"/>
      <point x="506" y="460"/>
      <point x="535" y="471"/>
      <point x="563" y="489"/>
      <point x="588" y="510"/>
      <point x="598" y="519" type="qcurve"/>
      <point x="654" y="502" type="line"/>
      <point x="641" y="473"/>
      <point x="609" y="414"/>
      <point x="568" y="360"/>
      <point x="517" y="316"/>
      <point x="485" y="303" type="qcurve"/>
      <point x="486" y="303" type="line"/>
      <point x="471" y="297"/>
      <point x="440" y="289"/>
      <point x="423" y="289" type="qcurve" smooth="yes"/>
      <point x="394" y="289"/>
      <point x="334" y="309"/>
      <point x="275" y="333"/>
      <point x="216" y="353"/>
      <point x="187" y="353" type="qcurve" smooth="yes"/>
      <point x="155" y="353"/>
      <point x="99" y="317"/>
      <point x="78" y="297" type="qcurve"/>
      <point x="22" y="312" type="line"/>
      <point x="34" y="340"/>
      <point x="67" y="400"/>
      <point x="109" y="454"/>
      <point x="161" y="498"/>
      <point x="192" y="511" type="qcurve"/>
      <point x="191" y="511" type="line"/>
      <point x="221" y="525"/>
      <point x="251" y="525" type="qcurve" smooth="yes"/>
      <point x="282" y="525"/>
      <point x="343" y="505"/>
      <point x="404" y="480"/>
      <point x="463" y="460"/>
    </contour>
  </outline>
</glyph>
<glyph name="exclamdown" format="1">
  <advance width="384"/>
  <unicode hex="00A1"/>
  <outline>
    <contour>
      <point x="355" y="574" type="line"/>
      <point x="28" y="572" type="line"/>
      <point x="28" y="694" type="line"/>
      <point x="355" y="694" type="line"/>
    </contour>
    <contour>
      <point x="355" y="0" type="line"/>
      <point x="28" y="0" type="line"/>
      <point x="28" y="515" type="line"/>
      <point x="355" y="515" type="line"/>
    </contour>
  </outline>
</glyph>
<glyph name="cent" format="2">
  <advance width="503"/>
  <unicode hex="00A2"/>
  <outline>
    <contour>
      <point x="153" y="0" type="line"/>
      <point x="170" y="86" type="line"/>
      <point x="161" y="86" type="line" smooth="yes"/>
      <point x="137" y="86"/>
      <point x="96" y="109"/>
      <point x="64" y="145"/>
      <point x="46" y="190"/>
      <point x="46" y="213" type="qcurve" smooth="yes"/>
      <point x="46" y="390" type="line" smooth="yes"/>
      <point x="46" y="412"/>
      <point x="64" y="458"/>
      <point x="96" y="494"/>
      <point x="137" y="517"/>
      <point x="161" y="517" type="qcurve" smooth="yes"/>
      <point x="255" y="517" type="line"/>
      <point x="271" y="600" type="line"/>
      <point x="394" y="600" type="line"/>
      <point x="377" y="516" type="line"/>
      <point x="399" y="512"/>
      <point x="435" y="487"/>
      <point x="462" y="452"/>
      <point x="477" y="411"/>
      <point x="478" y="390" type="qcurve"/>
      <point x="396" y="390" type="line"/>
      <point x="396" y="391" type="line"/>
      <point x="396" y="392" type="line"/>
      <point x="396" y="409"/>
      <point x="368" y="441"/>
      <point x="349" y="441" type="qcurve" smooth="yes"/>
      <point x="269" y="441" type="line"/>
      <point x="269" y="162" type="line"/>
      <point x="349" y="162" type="line" smooth="yes"/>
      <point x="368" y="162"/>
      <point x="396" y="194"/>
      <point x="396" y="211" type="qcurve"/>
      <point x="396" y="212" type="line"/>
      <point x="396" y="213" type="line"/>
      <point x="478" y="213" type="line"/>
      <point x="477" y="187"/>
      <point x="457" y="140"/>
      <point x="424" y="106"/>
      <point x="379" y="86"/>
      <point x="352" y="86" type="qcurve" smooth="yes"/>
      <point x="293" y="86" type="line"/>
      <point x="276" y="0" type="line"/>
    </contour>
  </outline>
</glyph>
<glyph name="sterling" format="2">
  <advance width="607"/>
  <unicode hex="00A3"/>
  <outline>
    <contour>
      <point x="295" y="546" type="line"/>
      <point x="295" y="640" type="line"/>
      <point x="200" y="640" type="line" smooth="yes"/>
      <point x="182" y="640"/>
      <point x="149" y="606"/>
      <point x="149" y="587" type="qcurve" smooth="yes"/>
      <point x="149" y="435" type="line"/>
      <point x="150" y="424"/>
      <point x="158" y="378"/>
      <point x="175" y="361" type="qcurve" smooth="yes"/>
      <point x="176" y="360" type="line"/>
      <point x="415" y="360" type="line"/>
      <point x="415" y="279" type="line"/>
      <point x="236" y="279" type="line"/>
      <point x="238" y="273"/>
      <point x="240" y="267" type="qcurve" smooth="yes"/>
      <point x="246" y="246"/>
      <point x="246" y="220" type="qcurve" smooth="yes"/>
      <point x="246" y="200"/>
      <point x="237" y="167"/>
      <point x="230" y="153" type="qcurve"/>
      <point x="247" y="167"/>
      <point x="281" y="176"/>
      <point x="295" y="176" type="qcurve" smooth="yes"/>
      <point x="311" y="176"/>
      <point x="325" y="172" type="qcurve" smooth="yes"/>
      <point x="387" y="151" type="line"/>
      <point x="398" y="146"/>
      <point x="422" y="139"/>
      <point x="435" y="134" type="qcurve"/>
      <point x="434" y="134" type="line"/>
      <point x="439" y="132"/>
      <point x="450" y="128"/>
      <point x="455" y="126" type="qcurve" smooth="yes"/>
      <point x="464" y="123"/>
      <point x="473" y="123" type="qcurve" smooth="yes"/>
      <point x="481" y="123"/>
      <point x="506" y="132"/>
      <point x="520" y="142" type="qcurve" smooth="yes"/>
      <point x="536" y="153"/>
      <point x="550" y="170" type="qcurve"/>
      <point x="587" y="157" type="line"/>
      <point x="573" y="122"/>
      <point x="544" y="71"/>
      <point x="513" y="36"/>
      <point x="483" y="15"/>
      <point x="470" y="9" type="qcurve" smooth="yes"/>
      <point x="448" y="0"/>
      <point x="427" y="0" type="qcurve" smooth="yes"/>
      <point x="417" y="0"/>
      <point x="408" y="2" type="qcurve"/>
      <point x="324" y="33" type="line"/>
      <point x="318" y="37"/>
      <point x="295" y="47"/>
      <point x="275" y="54" type="qcurve" smooth="yes"/>
      <point x="266" y="58"/>
      <point x="257" y="58" type="qcurve" smooth="yes"/>
      <point x="255" y="58"/>
      <point x="241" y="56"/>
      <point x="231" y="51" type="qcurve"/>
      <point x="223" y="38"/>
      <point x="196" y="16"/>
      <point x="180" y="8" type="qcurve"/>
      <point x="159" y="0"/>
      <point x="139" y="0" type="qcurve" smooth="yes"/>
      <point x="111" y="0"/>
      <point x="65" y="27"/>
      <point x="55" y="50" type="qcurve"/>
      <point x="51" y="62"/>
      <point x="51" y="75" type="qcurve" smooth="yes"/>
      <point x="51" y="79"/>
      <point x="53" y="100"/>
      <point x="69" y="132"/>
      <point x="98" y="157"/>
      <point x="117" y="165" type="qcurve" smooth="yes"/>
      <point x="125" y="169" type="line"/>
      <point x="150" y="201" type="line" smooth="yes"/>
      <point x="158" y="210"/>
      <point x="158" y="222" type="qcurve" smooth="yes"/>
      <point x="158" y="225"/>
      <point x="154" y="245"/>
      <point x="144" y="262" type="qcurve"/>
      <point x="138" y="270"/>
      <point x="131" y="279" type="qcurve"/>
      <point x="18" y="279" type="line"/>
      <point x="18" y="360" type="line"/>
      <point x="65" y="360" type="line"/>
      <point x="57" y="382"/>
      <point x="52" y="402" type="qcurve" smooth="yes"/>
      <point x="47" y="427"/>
      <point x="45" y="453" type="qcurve"/>
      <point x="45" y="581" type="line" smooth="yes"/>
      <point x="45" y="615"/>
      <point x="70" y="674"/>
      <point x="114" y="718"/>
      <point x="173" y="743"/>
      <point x="206" y="743" type="qcurve" smooth="yes"/>
      <point x="439" y="743" type="line" smooth="yes"/>
      <point x="478" y="743"/>
      <point x="535" y="706"/>
      <point x="571" y="649"/>
      <point x="586" y="583"/>
      <point x="586" y="553" type="qcurve" smooth="yes"/>
      <point x="586" y="550"/>
      <point x="586" y="546" type="qcurve"/>
    </contour>
  </outline>
</glyph>
<glyph name="currency" format="2">
  <advance width="372"/>
  <unicode hex="00A4"/>
  <outline>
    <contour>
      <point x="342" y="337" type="qcurve" smooth="yes"/>
      <point x="342" y="306"/>
      <point x="317" y="250"/>
      <point x="297" y="227" type="qcurve"/>
      <point x="301" y="213"/>
      <point x="314" y="176"/>
      <point x="319" y="159" type="qcurve" smooth="yes"/>
      <point x="325" y="139"/>
      <point x="332" y="118" type="qcurve"/>
      <point x="304" y="98" type="line"/>
      <point x="226" y="184" type="line"/>
      <point x="215" y="179"/>
      <point x="193" y="177"/>
      <point x="180" y="177" type="qcurve" smooth="yes"/>
      <point x="171" y="177"/>
      <point x="149" y="179"/>
      <point x="140" y="184" type="qcurve"/>
      <point x="53" y="98" type="line"/>
      <point x="21" y="118" type="line"/>
      <point x="29" y="140"/>
      <point x="36" y="160" type="qcurve" smooth="yes"/>
      <point x="42" y="177"/>
      <point x="56" y="215"/>
      <point x="62" y="229" type="qcurve"/>
      <point x="21" y="273"/>
      <point x="21" y="337" type="qcurve" smooth="yes"/>
      <point x="21" y="366"/>
      <point x="39" y="420"/>
      <point x="57" y="440" type="qcurve"/>
      <point x="52" y="455"/>
      <point x="37" y="497"/>
      <point x="31" y="517" type="qcurve" smooth="yes"/>
      <point x="23" y="540"/>
      <point x="16" y="563" type="qcurve"/>
      <point x="51" y="586" type="line"/>
      <point x="135" y="491" type="line"/>
      <point x="146" y="496"/>
      <point x="168" y="497"/>
      <point x="180" y="497" type="qcurve" smooth="yes"/>
      <point x="190" y="497"/>
      <point x="212" y="496"/>
      <point x="222" y="491" type="qcurve"/>
      <point x="297" y="586" type="line"/>
      <point x="322" y="563" type="line"/>
      <point x="316" y="543"/>
      <point x="311" y="524" type="qcurve" smooth="yes"/>
      <point x="306" y="507"/>
      <point x="296" y="469"/>
      <point x="291" y="452" type="qcurve"/>
      <point x="314" y="429"/>
      <point x="342" y="370"/>
    </contour>
    <contour>
      <point x="119" y="337" type="qcurve" smooth="yes"/>
      <point x="119" y="311"/>
      <point x="153" y="274"/>
      <point x="180" y="274" type="qcurve" smooth="yes"/>
      <point x="205" y="274"/>
      <point x="242" y="311"/>
      <point x="242" y="337" type="qcurve" smooth="yes"/>
      <point x="242" y="363"/>
      <point x="205" y="399"/>
      <point x="180" y="399" type="qcurve" smooth="yes"/>
      <point x="153" y="399"/>
      <point x="119" y="363"/>
    </contour>
  </outline>
</glyph>
<glyph name="yen" format="2">
  <advance width="753"/>
  <unicode hex="00A5"/>
  <outline>
    <contour>
      <point x="653" y="306" type="line"/>
      <point x="653" y="227" type="line"/>
      <point x="533" y="227" type="line"/>
      <point x="533" y="0" type="line"/>
      <point x="252" y="0" type="line"/>
      <point x="252" y="227" type="line"/>
      <point x="117" y="227" type="line"/>
      <point x="117" y="306" type="line"/>
      <point x="252" y="306" type="line"/>
      <point x="252" y="365" type="line"/>
      <point x="117" y="365" type="line"/>
      <point x="117" y="444" type="line"/>
      <point x="217" y="444" type="line"/>
      <point x="10" y="696" type="line"/>
      <point x="133" y="696" type="line"/>
      <point x="304" y="488" type="line"/>
      <point x="470" y="696" type="line"/>
      <point x="744" y="696" type="line"/>
      <point x="563" y="444" type="line"/>
      <point x="653" y="444" type="line"/>
      <point x="653" y="365" type="line"/>
      <point x="533" y="365" type="line"/>
      <point x="533" y="306" type="line"/>
    </contour>
  </outline>
</glyph>
<glyph name="brokenbar" format="2">
  <advance width="172"/>
  <unicode hex="00A6"/>
  <outline>
    <contour>
      <point x="29" y="-176" type="line"/>
      <point x="29" y="97" type="line"/>
      <point x="144" y="97" type="line"/>
      <point x="144" y="-176" type="line"/>
    </contour>
    <contour>
      <point x="144" y="864" type="line"/>
      <point x="144" y="597" type="line"/>
      <point x="29" y="597" type="line"/>
      <point x="29" y="864" type="line"/>
    </contour>
  </outline>
</glyph>
<glyph name="section" format="2">
  <advance width="784"/>
  <unicode hex="00A7"/>
  <outline>
    <contour>
      <point x="655" y="492" type="line"/>
      <point x="655" y="510"/>
      <point x="652" y="550"/>
      <point x="638" y="583"/>
      <point x="612" y="604"/>
      <point x="589" y="604" type="qcurve" smooth="yes"/>
      <point x="298" y="604" type="line"/>
      <point x="299" y="603" type="line"/>
      <point x="291" y="601"/>
      <point x="274" y="588"/>
      <point x="274" y="578" type="qcurve" smooth="yes"/>
      <point x="274" y="555"/>
      <point x="298" y="514"/>
      <point x="310" y="497" type="qcurve"/>
      <point x="325" y="479" type="line"/>
      <point x="361" y="492"/>
      <point x="397" y="492" type="qcurve" smooth="yes"/>
      <point x="419" y="492"/>
      <point x="498" y="474"/>
      <point x="546" y="431" type="qcurve"/>
      <point x="566" y="411"/>
      <point x="596" y="374"/>
      <point x="605" y="360" type="qcurve"/>
      <point x="715" y="209" type="line" smooth="yes"/>
      <point x="727" y="192"/>
      <point x="745" y="168"/>
      <point x="758" y="142"/>
      <point x="764" y="113"/>
      <point x="764" y="92" type="qcurve" smooth="yes"/>
      <point x="764" y="23"/>
      <point x="687" y="-65"/>
      <point x="616" y="-68" type="qcurve"/>
      <point x="182" y="-68" type="line" smooth="yes"/>
      <point x="148" y="-68"/>
      <point x="88" y="-35"/>
      <point x="43" y="18"/>
      <point x="17" y="85"/>
      <point x="17" y="119" type="qcurve" smooth="yes"/>
      <point x="17" y="156" type="line"/>
      <point x="126" y="156" type="line"/>
      <point x="126" y="138"/>
      <point x="129" y="98"/>
      <point x="143" y="65"/>
      <point x="169" y="44"/>
      <point x="192" y="44" type="qcurve" smooth="yes"/>
      <point x="483" y="44" type="line"/>
      <point x="482" y="45" type="line"/>
      <point x="490" y="47"/>
      <point x="507" y="60"/>
      <point x="507" y="70" type="qcurve" smooth="yes"/>
      <point x="507" y="93"/>
      <point x="483" y="135"/>
      <point x="471" y="152" type="qcurve"/>
      <point x="453" y="170" type="line"/>
      <point x="416" y="157"/>
      <point x="382" y="157" type="qcurve" smooth="yes"/>
      <point x="377" y="157"/>
      <point x="332" y="160"/>
      <point x="262" y="193"/>
      <point x="201" y="250"/>
      <point x="175" y="289" type="qcurve"/>
      <point x="66" y="439" type="line" smooth="yes"/>
      <point x="54" y="455"/>
      <point x="36" y="481"/>
      <point x="23" y="506"/>
      <point x="17" y="535"/>
      <point x="17" y="556" type="qcurve" smooth="yes"/>
      <point x="17" y="626"/>
      <point x="94" y="713"/>
      <point x="165" y="717" type="qcurve"/>
      <point x="598" y="717" type="line" smooth="yes"/>
      <point x="632" y="717"/>
      <point x="693" y="684"/>
      <point x="738" y="631"/>
      <point x="764" y="564"/>
      <point x="764" y="530" type="qcurve" smooth="yes"/>
      <point x="764" y="492" type="line"/>
    </contour>
    <contour>
      <point x="475" y="351" type="qcurve" smooth="yes"/>
      <point x="439" y="384"/>
      <point x="401" y="384" type="qcurve" smooth="yes"/>
      <point x="395" y="384"/>
      <point x="389" y="383" type="qcurve"/>
      <point x="437" y="315" type="line" smooth="yes"/>
      <point x="441" y="310"/>
      <point x="445" y="307" type="qcurve"/>
      <point x="445" y="306"/>
      <point x="445" y="306" type="qcurve"/>
      <point x="446" y="305" type="line"/>
      <point x="446" y="305"/>
      <point x="446" y="305" type="qcurve"/>
      <point x="449" y="302" type="line"/>
      <point x="449" y="302"/>
      <point x="449" y="302" type="qcurve"/>
      <point x="451" y="300" type="line"/>
      <point x="451" y="300"/>
      <point x="451" y="300" type="qcurve"/>
      <point x="453" y="298" type="line"/>
      <point x="453" y="298"/>
      <point x="453" y="298" type="qcurve"/>
      <point x="490" y="264"/>
      <point x="529" y="264" type="qcurve" smooth="yes"/>
      <point x="534" y="264"/>
      <point x="539" y="265" type="qcurve"/>
      <point x="491" y="334" type="line"/>
      <point x="491" y="335" type="line"/>
      <point x="485" y="343"/>
    </contour>
  </outline>
</glyph>
<glyph name="dieresis" format="1">
  <advance width="523"/>
  <unicode hex="00A8"/>
  <outline>
    <contour>
      <point x="32" y="842" type="qcurve" smooth="yes"/>
      <point x="32" y="880"/>
      <point x="87" y="935"/>
      <point x="125" y="935" type="qcurve" smooth="yes"/>
      <point x="163" y="935"/>
      <point x="218" y="880"/>
      <point x="218" y="842" type="qcurve" smooth="yes"/>
      <point x="218" y="804"/>
      <point x="163" y="750"/>
      <point x="125" y="750" type="qcurve" smooth="yes"/>
      <point x="87" y="750"/>
      <point x="32" y="804"/>
    </contour>
    <contour>
      <point x="308" y="842" type="qcurve" smooth="yes"/>
      <point x="308" y="880"/>
      <point x="362" y="935"/>
      <point x="400" y="935" type="qcurve" smooth="yes"/>
      <point x="438" y="935"/>
      <point x="493" y="880"/>
      <point x="493" y="842" type="qcurve" smooth="yes"/>
      <point x="493" y="804"/>
      <point x="438" y="750"/>
      <point x="400" y="750" type="qcurve" smooth="yes"/>
      <point x="362" y="750"/>
      <point x="308" y="804"/>
    </contour>
  </outline>
</glyph>
<glyph name="copyright" format="1">
  <advance width="593"/>
  <unicode hex="00A9"/>
  <outline>
    <contour>
      <point x="292" y="128" type="qcurve" smooth="yes"/>
      <point x="235" y="128"/>
      <point x="134" y="173"/>
      <point x="58" y="249"/>
      <point x="14" y="350"/>
      <point x="14" y="406" type="qcurve" smooth="yes"/>
      <point x="14" y="463"/>
      <point x="58" y="564"/>
      <point x="134" y="640"/>
      <point x="235" y="684"/>
      <point x="292" y="684" type="qcurve" smooth="yes"/>
      <point x="349" y="684"/>
      <point x="450" y="640"/>
      <point x="525" y="564"/>
      <point x="569" y="463"/>
      <point x="569" y="406" type="qcurve" smooth="yes"/>
      <point x="569" y="350"/>
      <point x="525" y="249"/>
      <point x="450" y="173"/>
      <point x="349" y="128"/>
    </contour>
    <contour>
      <point x="292" y="625" type="qcurve" smooth="yes"/>
      <point x="246" y="625"/>
      <point x="166" y="591"/>
      <point x="107" y="532"/>
      <point x="73" y="452"/>
      <point x="73" y="406" type="qcurve" smooth="yes"/>
      <point x="73" y="360"/>
      <point x="107" y="280"/>
      <point x="166" y="221"/>
      <point x="246" y="187"/>
      <point x="292" y="187" type="qcurve" smooth="yes"/>
      <point x="337" y="187"/>
      <point x="417" y="221"/>
      <point x="476" y="280"/>
      <point x="510" y="360"/>
      <point x="510" y="406" type="qcurve" smooth="yes"/>
      <point x="510" y="452"/>
      <point x="476" y="532"/>
      <point x="417" y="591"/>
      <point x="337" y="625"/>
    </contour>
    <contour>
      <point x="359" y="559" type="line" smooth="yes"/>
      <point x="376" y="559"/>
      <point x="406" y="543"/>
      <point x="428" y="517"/>
      <point x="440" y="486"/>
      <point x="440" y="470" type="qcurve"/>
      <point x="386" y="470" type="line"/>
      <point x="386" y="474" type="line" smooth="yes"/>
      <point x="386" y="484"/>
      <point x="367" y="505"/>
      <point x="354" y="505" type="qcurve" smooth="yes"/>
      <point x="297" y="505" type="line"/>
      <point x="297" y="309" type="line"/>
      <point x="354" y="309" type="line" smooth="yes"/>
      <point x="367" y="309"/>
      <point x="386" y="330"/>
      <point x="386" y="341" type="qcurve" smooth="yes"/>
      <point x="386" y="345" type="line"/>
      <point x="440" y="345" type="line"/>
      <point x="439" y="307"/>
      <point x="389" y="255"/>
      <point x="351" y="255" type="qcurve" smooth="yes"/>
      <point x="218" y="255" type="line" smooth="yes"/>
      <point x="201" y="255"/>
      <point x="172" y="271"/>
      <point x="150" y="297"/>
      <point x="137" y="329"/>
      <point x="137" y="345" type="qcurve" smooth="yes"/>
      <point x="137" y="470" type="line" smooth="yes"/>
      <point x="137" y="486"/>
      <point x="150" y="517"/>
      <point x="172" y="543"/>
      <point x="201" y="559"/>
      <point x="218" y="559" type="qcurve" smooth="yes"/>
    </contour>
  </outline>
</glyph>
<glyph name="ordfeminine" format="2">
  <advance width="394"/>
  <unicode hex="00AA"/>
  <outline>
    <contour>
      <point x="185" y="593" type="line"/>
      <point x="185" y="641" type="line"/>
      <point x="123" y="641" type="line" smooth="yes"/>
      <point x="110" y="641"/>
      <point x="88" y="618"/>
      <point x="88" y="606" type="qcurve"/>
      <point x="88" y="605" type="line"/>
      <point x="88" y="604" type="line"/>
      <point x="30" y="604" type="line"/>
      <point x="31" y="620"/>
      <point x="45" y="654"/>
      <point x="68" y="680"/>
      <point x="100" y="697"/>
      <point x="118" y="697" type="qcurve" smooth="yes"/>
      <point x="271" y="697" type="line" smooth="yes"/>
      <point x="302" y="697"/>
      <point x="352" y="647"/>
      <point x="358" y="613" type="qcurve"/>
      <point x="358" y="610"/>
      <point x="359" y="600"/>
      <point x="359" y="579" type="qcurve"/>
      <point x="359" y="578" type="line"/>
      <point x="359" y="577" type="line"/>
      <point x="359" y="576" type="line"/>
      <point x="359" y="574" type="line"/>
      <point x="359" y="573" type="line"/>
      <point x="359" y="571" type="line"/>
      <point x="359" y="570" type="line"/>
      <point x="359" y="566" type="line"/>
      <point x="359" y="565" type="line"/>
      <point x="359" y="564" type="line"/>
      <point x="359" y="563" type="line"/>
      <point x="359" y="560" type="line"/>
      <point x="359" y="559" type="line"/>
      <point x="359" y="557" type="line"/>
      <point x="359" y="556" type="line"/>
      <point x="359" y="553" type="line"/>
      <point x="359" y="552" type="line"/>
      <point x="359" y="509" type="line"/>
      <point x="359" y="508" type="line"/>
      <point x="359" y="502" type="line"/>
      <point x="359" y="501" type="line"/>
      <point x="359" y="500" type="line"/>
      <point x="359" y="496" type="line"/>
      <point x="359" y="495" type="line"/>
      <point x="359" y="494" type="line"/>
      <point x="359" y="486" type="line"/>
      <point x="359" y="485" type="line"/>
      <point x="359" y="484" type="line"/>
      <point x="359" y="483" type="line"/>
      <point x="359" y="482" type="line"/>
      <point x="359" y="481" type="line"/>
      <point x="359" y="475" type="line"/>
      <point x="359" y="474" type="line"/>
      <point x="359" y="468" type="line"/>
      <point x="359" y="467" type="line"/>
      <point x="359" y="466" type="line"/>
      <point x="359" y="460" type="line"/>
      <point x="359" y="459" type="line"/>
      <point x="359" y="458" type="line"/>
      <point x="359" y="384" type="line"/>
      <point x="127" y="384" type="line" smooth="yes"/>
      <point x="107" y="384"/>
      <point x="72" y="399"/>
      <point x="45" y="424"/>
      <point x="30" y="458"/>
      <point x="30" y="477" type="qcurve"/>
      <point x="31" y="500" type="line"/>
      <point x="31" y="519"/>
      <point x="46" y="553"/>
      <point x="73" y="579"/>
      <point x="108" y="593"/>
      <point x="128" y="593" type="qcurve" smooth="yes"/>
    </contour>
    <contour>
      <point x="185" y="440" type="line"/>
      <point x="185" y="538" type="line"/>
      <point x="124" y="538" type="line" smooth="yes"/>
      <point x="112" y="538"/>
      <point x="89" y="516"/>
      <point x="89" y="504" type="qcurve"/>
      <point x="88" y="474" type="line"/>
      <point x="88" y="463"/>
      <point x="112" y="440"/>
      <point x="123" y="440" type="qcurve" smooth="yes"/>
    </contour>
  </outline>
</glyph>
<glyph name="guillemotleft" format="2">
  <advance width="564"/>
  <unicode hex="00AB"/>
  <outline>
    <contour>
      <point x="211" y="675" type="line"/>
      <point x="301" y="606" type="line"/>
      <point x="195" y="355" type="line"/>
      <point x="301" y="102" type="line"/>
      <point x="211" y="33" type="line"/>
      <point x="24" y="287" type="line"/>
      <point x="24" y="422" type="line"/>
    </contour>
    <contour>
      <point x="459" y="675" type="line"/>
      <point x="549" y="606" type="line"/>
      <point x="443" y="355" type="line"/>
      <point x="549" y="102" type="line"/>
      <point x="459" y="33" type="line"/>
      <point x="272" y="287" type="line"/>
      <point x="272" y="422" type="line"/>
    </contour>
  </outline>
</glyph>
<glyph name="uni00AD" format="2">
  <advance width="415"/>
  <unicode hex="00AD"/>
  <outline>
    <contour>
      <point x="393" y="377" type="line"/>
      <point x="393" y="298" type="line"/>
      <point x="16" y="298" type="line"/>
      <point x="16" y="377" type="line"/>
    </contour>
  </outline>
</glyph>
<glyph name="registered" format="2">
  <advance width="570"/>
  <unicode hex="00AE"/>
  <outline>
    <contour>
      <point x="288" y="155" type="qcurve" smooth="yes"/>
      <point x="232" y="155"/>
      <point x="135" y="197"/>
      <point x="62" y="270"/>
      <point x="20" y="367"/>
      <point x="20" y="422" type="qcurve" smooth="yes"/>
      <point x="20" y="477"/>
      <point x="62" y="573"/>
      <point x="135" y="645"/>
      <point x="232" y="687"/>
      <point x="288" y="687" type="qcurve" smooth="yes"/>
      <point x="343" y="687"/>
      <point x="439" y="645"/>
      <point x="511" y="573"/>
      <point x="553" y="477"/>
      <point x="553" y="422" type="qcurve" smooth="yes"/>
      <point x="553" y="367"/>
      <point x="511" y="270"/>
      <point x="439" y="197"/>
      <point x="343" y="155"/>
    </contour>
    <contour>
      <point x="288" y="630" type="qcurve" smooth="yes"/>
      <point x="244" y="630"/>
      <point x="168" y="597"/>
      <point x="111" y="541"/>
      <point x="78" y="465"/>
      <point x="78" y="422" type="qcurve" smooth="yes"/>
      <point x="78" y="378"/>
      <point x="111" y="302"/>
      <point x="168" y="245"/>
      <point x="244" y="212"/>
      <point x="288" y="212" type="qcurve" smooth="yes"/>
      <point x="331" y="212"/>
      <point x="406" y="245"/>
      <point x="462" y="302"/>
      <point x="495" y="378"/>
      <point x="495" y="422" type="qcurve" smooth="yes"/>
      <point x="495" y="465"/>
      <point x="462" y="541"/>
      <point x="406" y="597"/>
      <point x="331" y="630"/>
    </contour>
    <contour>
      <point x="410" y="489" type="qcurve" smooth="yes"/>
      <point x="410" y="468"/>
      <point x="389" y="433"/>
      <point x="371" y="420" type="qcurve"/>
      <point x="444" y="294" type="line"/>
      <point x="343" y="294" type="line"/>
      <point x="337" y="309"/>
      <point x="317" y="337"/>
      <point x="309" y="351" type="qcurve"/>
      <point x="309" y="294" type="line"/>
      <point x="159" y="294" type="line"/>
      <point x="159" y="569" type="line"/>
      <point x="327" y="569" type="line" smooth="yes"/>
      <point x="360" y="569"/>
      <point x="410" y="523"/>
    </contour>
    <contour>
      <point x="361" y="489" type="qcurve" smooth="yes"/>
      <point x="361" y="503"/>
      <point x="340" y="521"/>
      <point x="327" y="521" type="qcurve" smooth="yes"/>
      <point x="309" y="521" type="line"/>
      <point x="309" y="457" type="line"/>
      <point x="329" y="457" type="line" smooth="yes"/>
      <point x="341" y="457"/>
      <point x="361" y="478"/>
    </contour>
  </outline>
</glyph>
<glyph name="macron" format="2">
  <advance width="372"/>
  <unicode hex="00AF"/>
  <outline>
    <contour>
      <point x="364" y="830" type="line"/>
      <point x="364" y="740" type="line"/>
      <point x="7" y="740" type="line"/>
      <point x="7" y="830" type="line"/>
    </contour>
  </outline>
</glyph>
<glyph name="degree" format="1">
  <advance width="413"/>
  <unicode hex="00B0"/>
  <outline>
    <contour>
      <point x="215" y="412" type="qcurve" smooth="yes"/>
      <point x="179" y="412"/>
      <point x="115" y="439"/>
      <point x="68" y="487"/>
      <point x="41" y="550"/>
      <point x="41" y="586" type="qcurve" smooth="yes"/>
      <point x="41" y="621"/>
      <point x="68" y="684"/>
      <point x="115" y="731"/>
      <point x="179" y="758"/>
      <point x="215" y="758" type="qcurve" smooth="yes"/>
      <point x="251" y="758"/>
      <point x="313" y="731"/>
      <point x="360" y="684"/>
      <point x="387" y="621"/>
      <point x="387" y="586" type="qcurve" smooth="yes"/>
      <point x="387" y="550"/>
      <point x="360" y="487"/>
      <point x="313" y="439"/>
      <point x="251" y="412"/>
    </contour>
    <contour>
      <point x="215" y="664" type="qcurve" smooth="yes"/>
      <point x="183" y="664"/>
      <point x="136" y="618"/>
      <point x="136" y="586" type="qcurve" smooth="yes"/>
      <point x="136" y="553"/>
      <point x="183" y="507"/>
      <point x="215" y="507" type="qcurve" smooth="yes"/>
      <point x="247" y="507"/>
      <point x="293" y="553"/>
      <point x="293" y="586" type="qcurve" smooth="yes"/>
      <point x="293" y="602"/>
      <point x="280" y="631"/>
      <point x="259" y="652"/>
      <point x="231" y="664"/>
    </contour>
  </outline>
</glyph>
<glyph name="plusminus" format="2">
  <advance width="420"/>
  <unicode hex="00B1"/>
  <outline>
    <contour>
      <point x="397" y="447" type="line"/>
      <point x="397" y="303" type="line"/>
      <point x="18" y="303" type="line"/>
      <point x="18" y="447" type="line"/>
    </contour>
    <contour>
      <point x="280" y="178" type="line"/>
      <point x="136" y="178" type="line"/>
      <point x="136" y="557" type="line"/>
      <point x="280" y="557" type="line"/>
    </contour>
    <contour>
      <point x="397" y="144" type="line"/>
      <point x="397" y="0" type="line"/>
      <point x="18" y="0" type="line"/>
      <point x="18" y="144" type="line"/>
    </contour>
  </outline>
</glyph>
<glyph name="twosuperior" format="2">
  <advance width="347"/>
  <unicode hex="00B2"/>
  <outline>
    <contour>
      <point x="241" y="681" type="line" smooth="yes"/>
      <point x="255" y="681"/>
      <point x="283" y="667"/>
      <point x="306" y="644"/>
      <point x="320" y="616"/>
      <point x="320" y="602" type="qcurve"/>
      <point x="321" y="541" type="line"/>
      <point x="321" y="523"/>
      <point x="293" y="489"/>
      <point x="273" y="489" type="qcurve" smooth="yes"/>
      <point x="93" y="489" type="line" smooth="yes"/>
      <point x="79" y="489"/>
      <point x="76" y="463"/>
      <point x="76" y="452" type="qcurve" smooth="yes"/>
      <point x="76" y="447"/>
      <point x="86" y="437"/>
      <point x="91" y="437" type="qcurve" smooth="yes"/>
      <point x="321" y="437" type="line"/>
      <point x="321" y="384" type="line"/>
      <point x="24" y="384" type="line"/>
      <point x="24" y="489" type="line" smooth="yes"/>
      <point x="24" y="508"/>
      <point x="52" y="541"/>
      <point x="72" y="541" type="qcurve" smooth="yes"/>
      <point x="164" y="541" type="line"/>
      <point x="164" y="628" type="line"/>
      <point x="108" y="628" type="line" smooth="yes"/>
      <point x="97" y="628"/>
      <point x="84" y="618"/>
      <point x="78" y="602"/>
      <point x="76" y="584"/>
      <point x="76" y="576" type="qcurve"/>
      <point x="24" y="576" type="line"/>
      <point x="24" y="594" type="line" smooth="yes"/>
      <point x="24" y="609"/>
      <point x="37" y="640"/>
      <point x="58" y="665"/>
      <point x="87" y="681"/>
      <point x="104" y="681" type="qcurve" smooth="yes"/>
    </contour>
  </outline>
</glyph>
<glyph name="threesuperior" format="2">
  <advance width="332"/>
  <unicode hex="00B3"/>
  <outline>
    <contour>
      <point x="226" y="681" type="line" smooth="yes"/>
      <point x="270" y="681"/>
      <point x="309" y="622"/>
      <point x="309" y="582" type="qcurve" smooth="yes"/>
      <point x="309" y="562"/>
      <point x="279" y="534"/>
      <point x="259" y="532" type="qcurve"/>
      <point x="261" y="532" type="line"/>
      <point x="262" y="532" type="line"/>
      <point x="263" y="532" type="line"/>
      <point x="289" y="532"/>
      <point x="309" y="493"/>
      <point x="309" y="467" type="qcurve" smooth="yes"/>
      <point x="309" y="433"/>
      <point x="260" y="384"/>
      <point x="226" y="384" type="qcurve" smooth="yes"/>
      <point x="104" y="384" type="line" smooth="yes"/>
      <point x="81" y="384"/>
      <point x="47" y="401"/>
      <point x="26" y="430"/>
      <point x="16" y="468"/>
      <point x="16" y="489" type="qcurve"/>
      <point x="69" y="489" type="line"/>
      <point x="69" y="481"/>
      <point x="71" y="463"/>
      <point x="77" y="447"/>
      <point x="90" y="437"/>
      <point x="101" y="437" type="qcurve" smooth="yes"/>
      <point x="156" y="437" type="line"/>
      <point x="156" y="507" type="line"/>
      <point x="121" y="507" type="line"/>
      <point x="121" y="559" type="line"/>
      <point x="156" y="559" type="line"/>
      <point x="156" y="629" type="line"/>
      <point x="104" y="629" type="line" smooth="yes"/>
      <point x="80" y="629"/>
      <point x="69" y="595"/>
      <point x="69" y="576" type="qcurve"/>
      <point x="16" y="576" type="line"/>
      <point x="16" y="594" type="line" smooth="yes"/>
      <point x="16" y="630"/>
      <point x="68" y="681"/>
      <point x="104" y="681" type="qcurve" smooth="yes"/>
    </contour>
  </outline>
</glyph>
<glyph name="acute" format="2">
  <advance width="242"/>
  <unicode hex="00B4"/>
  <outline>
    <contour>
      <point x="150" y="927" type="line"/>
      <point x="225" y="829" type="line"/>
      <point x="58" y="735" type="line"/>
      <point x="18" y="787" type="line"/>
    </contour>
  </outline>
</glyph>
<glyph name="paragraph" format="2">
  <advance width="687"/>
  <unicode hex="00B6"/>
  <outline>
    <contour>
      <point x="666" y="679" type="line"/>
      <point x="667" y="588" type="line"/>
      <point x="604" y="588" type="line"/>
      <point x="604" y="-146" type="line"/>
      <point x="516" y="-146" type="line"/>
      <point x="516" y="588" type="line"/>
      <point x="383" y="588" type="line"/>
      <point x="383" y="-146" type="line"/>
      <point x="295" y="-146" type="line"/>
      <point x="295" y="254" type="line"/>
      <point x="186" y="254" type="line" smooth="yes"/>
      <point x="154" y="254"/>
      <point x="98" y="280"/>
      <point x="56" y="324"/>
      <point x="31" y="383"/>
      <point x="31" y="417" type="qcurve" smooth="yes"/>
      <point x="31" y="516" type="line" smooth="yes"/>
      <point x="31" y="549"/>
      <point x="56" y="608"/>
      <point x="98" y="653"/>
      <point x="154" y="679"/>
      <point x="186" y="679" type="qcurve" smooth="yes"/>
      <point x="295" y="679" type="line"/>
      <point x="295" y="680" type="line"/>
    </contour>
  </outline>
</glyph>
<glyph name="periodcentered" format="2">
  <advance width="259"/>
  <unicode hex="00B7"/>
  <outline>
    <contour>
      <point x="26" y="358" type="qcurve" smooth="yes"/>
      <point x="26" y="399"/>
      <point x="82" y="456"/>
      <point x="123" y="456" type="qcurve" smooth="yes"/>
      <point x="164" y="456"/>
      <point x="221" y="399"/>
      <point x="221" y="358" type="qcurve" smooth="yes"/>
      <point x="221" y="317"/>
      <point x="164" y="261"/>
      <point x="123" y="261" type="qcurve" smooth="yes"/>
      <point x="82" y="261"/>
      <point x="26" y="317"/>
    </contour>
  </outline>
</glyph>
<glyph name="cedilla" format="2">
  <advance width="290"/>
  <unicode hex="00B8"/>
  <outline>
    <contour>
      <point x="123" y="-27" type="line"/>
      <point x="130" y="-26"/>
      <point x="143" y="-26"/>
      <point x="150" y="-26" type="qcurve" smooth="yes"/>
      <point x="182" y="-26"/>
      <point x="243" y="-46"/>
      <point x="259" y="-66" type="qcurve" smooth="yes"/>
      <point x="275" y="-85"/>
      <point x="275" y="-107" type="qcurve"/>
      <point x="275" y="-109"/>
      <point x="276" y="-119"/>
      <point x="271" y="-134"/>
      <point x="259" y="-156"/>
      <point x="246" y="-169" type="qcurve" smooth="yes"/>
      <point x="219" y="-197"/>
      <point x="152" y="-227"/>
      <point x="123" y="-234" type="qcurve"/>
      <point x="88" y="-245"/>
      <point x="55" y="-246" type="qcurve"/>
      <point x="43" y="-198" type="line"/>
      <point x="62" y="-193"/>
      <point x="96" y="-182"/>
      <point x="110" y="-177" type="qcurve"/>
      <point x="136" y="-163"/>
      <point x="169" y="-140"/>
      <point x="169" y="-125" type="qcurve"/>
      <point x="169" y="-124" type="line"/>
      <point x="169" y="-123" type="line"/>
      <point x="169" y="-122" type="line"/>
      <point x="169" y="-121" type="line"/>
      <point x="164" y="-103"/>
      <point x="128" y="-86"/>
      <point x="108" y="-83" type="qcurve"/>
      <point x="83" y="-81"/>
      <point x="44" y="-79"/>
      <point x="30" y="-79" type="qcurve"/>
      <point x="51" y="4" type="line"/>
      <point x="130" y="4" type="line"/>
    </contour>
  </outline>
</glyph>
<glyph name="onesuperior" format="2">
  <advance width="228"/>
  <unicode hex="00B9"/>
  <outline>
    <contour>
      <point x="69" y="681" type="line"/>
      <point x="209" y="681" type="line"/>
      <point x="209" y="384" type="line"/>
      <point x="69" y="384" type="line"/>
      <point x="69" y="594" type="line"/>
      <point x="17" y="594" type="line"/>
      <point x="17" y="628" type="line"/>
    </contour>
  </outline>
</glyph>
<glyph name="ordmasculine" format="2">
  <advance width="322"/>
  <unicode hex="00BA"/>
  <outline>
    <contour>
      <point x="310" y="463" type="line" smooth="yes"/>
      <point x="310" y="446"/>
      <point x="295" y="418"/>
      <point x="270" y="396"/>
      <point x="239" y="384"/>
      <point x="223" y="384" type="qcurve" smooth="yes"/>
      <point x="93" y="384" type="line" smooth="yes"/>
      <point x="77" y="384"/>
      <point x="48" y="400"/>
      <point x="26" y="425"/>
      <point x="13" y="456"/>
      <point x="13" y="471" type="qcurve" smooth="yes"/>
      <point x="13" y="602" type="line" smooth="yes"/>
      <point x="13" y="616"/>
      <point x="28" y="644"/>
      <point x="51" y="667"/>
      <point x="79" y="681"/>
      <point x="93" y="681" type="qcurve" smooth="yes"/>
      <point x="231" y="681" type="line" smooth="yes"/>
      <point x="247" y="681"/>
      <point x="276" y="665"/>
      <point x="298" y="640"/>
      <point x="310" y="609"/>
      <point x="310" y="594" type="qcurve" smooth="yes"/>
    </contour>
    <contour>
      <point x="258" y="594" type="line" smooth="yes"/>
      <point x="258" y="606"/>
      <point x="239" y="628"/>
      <point x="227" y="628" type="qcurve" smooth="yes"/>
      <point x="171" y="628" type="line"/>
      <point x="171" y="437" type="line"/>
      <point x="227" y="437" type="line" smooth="yes"/>
      <point x="238" y="437"/>
      <point x="258" y="457"/>
      <point x="258" y="468" type="qcurve" smooth="yes"/>
    </contour>
  </outline>
</glyph>
<glyph name="guillemotright" format="2">
  <advance width="564"/>
  <unicode hex="00BB"/>
  <outline>
    <contour>
      <point x="301" y="422" type="line"/>
      <point x="301" y="287" type="line"/>
      <point x="114" y="33" type="line"/>
      <point x="24" y="102" type="line"/>
      <point x="130" y="355" type="line"/>
      <point x="24" y="606" type="line"/>
      <point x="114" y="675" type="line"/>
    </contour>
    <contour>
      <point x="549" y="422" type="line"/>
      <point x="549" y="287" type="line"/>
      <point x="362" y="33" type="line"/>
      <point x="272" y="102" type="line"/>
      <point x="378" y="355" type="line"/>
      <point x="272" y="606" type="line"/>
      <point x="362" y="675" type="line"/>
    </contour>
  </outline>
</glyph>
<glyph name="questiondown" format="2">
  <advance width="729"/>
  <unicode hex="00BF"/>
  <outline>
    <contour>
      <point x="205" y="571" type="line"/>
      <point x="205" y="694" type="line"/>
      <point x="499" y="694" type="line"/>
      <point x="499" y="571" type="line"/>
    </contour>
    <contour>
      <point x="341" y="122" type="line"/>
      <point x="384" y="122" type="line" smooth="yes"/>
      <point x="436" y="122"/>
      <point x="480" y="120"/>
      <point x="485" y="120" type="qcurve" smooth="yes"/>
      <point x="509" y="120"/>
      <point x="547" y="128"/>
      <point x="574" y="154"/>
      <point x="588" y="203"/>
      <point x="588" y="245" type="qcurve"/>
      <point x="711" y="245" type="line"/>
      <point x="711" y="204" type="line" smooth="yes"/>
      <point x="711" y="162"/>
      <point x="679" y="88"/>
      <point x="623" y="33"/>
      <point x="549" y="0"/>
      <point x="507" y="0" type="qcurve"/>
      <point x="203" y="1" type="line"/>
      <point x="170" y="1"/>
      <point x="104" y="34"/>
      <point x="51" y="86"/>
      <point x="18" y="153"/>
      <point x="18" y="186" type="qcurve"/>
      <point x="17" y="326" type="line"/>
      <point x="17" y="369"/>
      <point x="51" y="419"/>
      <point x="105" y="443"/>
      <point x="172" y="449"/>
      <point x="205" y="449" type="qcurve"/>
      <point x="205" y="512" type="line"/>
      <point x="499" y="512" type="line"/>
      <point x="499" y="438" type="line" smooth="yes"/>
      <point x="499" y="405"/>
      <point x="469" y="362"/>
      <point x="424" y="337"/>
      <point x="371" y="326"/>
      <point x="349" y="326" type="qcurve" smooth="yes"/>
      <point x="345" y="326" type="line"/>
      <point x="344" y="326" type="line"/>
      <point x="343" y="326" type="line"/>
      <point x="341" y="326" type="line"/>
    </contour>
  </outline>
</glyph>
<glyph name="Adieresis" format="2">
  <advance width="844"/>
  <unicode hex="00C4"/>
  <outline>
    <contour>
      <point x="240" y="807" type="qcurve" smooth="yes"/>
      <point x="240" y="836"/>
      <point x="282" y="878"/>
      <point x="311" y="878" type="qcurve" smooth="yes"/>
      <point x="340" y="878"/>
      <point x="382" y="836"/>
      <point x="382" y="807" type="qcurve" smooth="yes"/>
      <point x="382" y="778"/>
      <point x="340" y="736"/>
      <point x="311" y="736" type="qcurve" smooth="yes"/>
      <point x="282" y="736"/>
      <point x="240" y="778"/>
    </contour>
    <contour>
      <point x="451" y="807" type="qcurve" smooth="yes"/>
      <point x="451" y="836"/>
      <point x="493" y="878"/>
      <point x="522" y="878" type="qcurve" smooth="yes"/>
      <point x="551" y="878"/>
      <point x="593" y="836"/>
      <point x="593" y="807" type="qcurve" smooth="yes"/>
      <point x="593" y="778"/>
      <point x="551" y="736"/>
      <point x="522" y="736" type="qcurve" smooth="yes"/>
      <point x="493" y="736"/>
      <point x="451" y="778"/>
    </contour>
    <contour>
      <point x="409" y="205" type="line"/>
      <point x="214" y="205" type="line"/>
      <point x="141" y="0" type="line"/>
      <point x="18" y="0" type="line"/>
      <point x="264" y="696" type="line"/>
      <point x="592" y="696" type="line"/>
      <point x="838" y="0" type="line"/>
      <point x="469" y="0" type="line"/>
    </contour>
    <contour>
      <point x="385" y="287" type="line"/>
      <point x="320" y="506" type="line"/>
      <point x="243" y="287" type="line"/>
    </contour>
  </outline>
</glyph>
<glyph name="Aring" format="2">
  <advance width="844"/>
  <unicode hex="00C5"/>
  <outline>
    <contour>
      <point x="408" y="738" type="qcurve" smooth="yes"/>
      <point x="387" y="738"/>
      <point x="350" y="754"/>
      <point x="321" y="781"/>
      <point x="305" y="817"/>
      <point x="305" y="837" type="qcurve" smooth="yes"/>
      <point x="305" y="857"/>
      <point x="321" y="894"/>
      <point x="350" y="921"/>
      <point x="387" y="937"/>
      <point x="408" y="937" type="qcurve" smooth="yes"/>
      <point x="429" y="937"/>
      <point x="467" y="921"/>
      <point x="494" y="894"/>
      <point x="510" y="857"/>
      <point x="510" y="837" type="qcurve" smooth="yes"/>
      <point x="510" y="817"/>
      <point x="494" y="781"/>
      <point x="467" y="754"/>
      <point x="429" y="738"/>
    </contour>
    <contour>
      <point x="408" y="868" type="qcurve" smooth="yes"/>
      <point x="395" y="868"/>
      <point x="376" y="850"/>
      <point x="376" y="837" type="qcurve" smooth="yes"/>
      <point x="376" y="825"/>
      <point x="395" y="806"/>
      <point x="408" y="806" type="qcurve" smooth="yes"/>
      <point x="422" y="806"/>
      <point x="439" y="825"/>
      <point x="439" y="837" type="qcurve" smooth="yes"/>
      <point x="439" y="850"/>
      <point x="422" y="868"/>
    </contour>
    <contour>
      <point x="409" y="205" type="line"/>
      <point x="214" y="205" type="line"/>
      <point x="141" y="0" type="line"/>
      <point x="18" y="0" type="line"/>
      <point x="264" y="696" type="line"/>
      <point x="592" y="696" type="line"/>
      <point x="838" y="0" type="line"/>
      <point x="469" y="0" type="line"/>
    </contour>
    <contour>
      <point x="385" y="287" type="line"/>
      <point x="320" y="506" type="line"/>
      <point x="243" y="287" type="line"/>
    </contour>
  </outline>
</glyph>
<glyph name="AE" format="2">
  <advance width="1127"/>
  <unicode hex="00C6"/>
  <outline>
    <contour>
      <point x="862" y="410" type="line"/>
      <point x="1067" y="410" type="line"/>
      <point x="1067" y="328" type="line"/>
      <point x="862" y="328" type="line"/>
      <point x="862" y="123" type="line"/>
      <point x="1108" y="123" type="line"/>
      <point x="1108" y="0" type="line"/>
      <point x="535" y="0" type="line"/>
      <point x="535" y="205" type="line"/>
      <point x="297" y="205" type="line"/>
      <point x="141" y="0" type="line"/>
      <point x="18" y="0" type="line"/>
      <point x="535" y="693" type="line"/>
      <point x="535" y="696" type="line"/>
      <point x="1108" y="696" type="line"/>
      <point x="1108" y="573" type="line"/>
      <point x="862" y="573" type="line"/>
    </contour>
    <contour>
      <point x="535" y="287" type="line"/>
      <point x="535" y="497" type="line"/>
      <point x="367" y="287" type="line"/>
    </contour>
  </outline>
</glyph>
<glyph name="Ccedilla" format="2">
  <advance width="723"/>
  <unicode hex="00C7"/>
  <outline>
    <contour>
      <point x="524" y="696" type="line" smooth="yes"/>
      <point x="563" y="696"/>
      <point x="630" y="660"/>
      <point x="680" y="601"/>
      <point x="709" y="528"/>
      <point x="710" y="492" type="qcurve"/>
      <point x="587" y="492" type="line"/>
      <point x="587" y="494" type="line"/>
      <point x="587" y="495" type="line"/>
      <point x="587" y="496" type="line"/>
      <point x="587" y="508"/>
      <point x="575" y="535"/>
      <point x="555" y="558"/>
      <point x="528" y="573"/>
      <point x="513" y="573" type="qcurve" smooth="yes"/>
      <point x="382" y="573" type="line"/>
      <point x="382" y="123" type="line"/>
      <point x="513" y="123" type="line" smooth="yes"/>
      <point x="528" y="123"/>
      <point x="555" y="138"/>
      <point x="575" y="162"/>
      <point x="587" y="189"/>
      <point x="587" y="201" type="qcurve"/>
      <point x="587" y="203" type="line"/>
      <point x="587" y="204" type="line"/>
      <point x="587" y="205" type="line"/>
      <point x="710" y="205" type="line"/>
      <point x="709" y="163"/>
      <point x="677" y="88"/>
      <point x="623" y="32"/>
      <point x="549" y="0"/>
      <point x="506" y="0" type="qcurve" smooth="yes"/>
      <point x="376" y="0" type="line"/>
      <point x="370" y="-27" type="line"/>
      <point x="377" y="-26"/>
      <point x="390" y="-26"/>
      <point x="397" y="-26" type="qcurve" smooth="yes"/>
      <point x="429" y="-26"/>
      <point x="490" y="-46"/>
      <point x="506" y="-66" type="qcurve" smooth="yes"/>
      <point x="522" y="-85"/>
      <point x="522" y="-107" type="qcurve"/>
      <point x="522" y="-109"/>
      <point x="523" y="-119"/>
      <point x="518" y="-134"/>
      <point x="506" y="-156"/>
      <point x="493" y="-169" type="qcurve" smooth="yes"/>
      <point x="466" y="-197"/>
      <point x="399" y="-227"/>
      <point x="370" y="-234" type="qcurve"/>
      <point x="335" y="-245"/>
      <point x="302" y="-246" type="qcurve"/>
      <point x="290" y="-198" type="line"/>
      <point x="309" y="-193"/>
      <point x="343" y="-182"/>
      <point x="357" y="-177" type="qcurve"/>
      <point x="383" y="-163"/>
      <point x="416" y="-140"/>
      <point x="416" y="-125" type="qcurve"/>
      <point x="416" y="-124" type="line"/>
      <point x="416" y="-123" type="line"/>
      <point x="416" y="-122" type="line"/>
      <point x="416" y="-121" type="line"/>
      <point x="411" y="-103"/>
      <point x="375" y="-86"/>
      <point x="355" y="-83" type="qcurve"/>
      <point x="330" y="-81"/>
      <point x="291" y="-79"/>
      <point x="277" y="-79" type="qcurve"/>
      <point x="297" y="0" type="line"/>
      <point x="200" y="0" type="line" smooth="yes"/>
      <point x="161" y="0"/>
      <point x="94" y="37"/>
      <point x="43" y="95"/>
      <point x="14" y="169"/>
      <point x="14" y="205" type="qcurve" smooth="yes"/>
      <point x="14" y="492" type="line" smooth="yes"/>
      <point x="14" y="528"/>
      <point x="43" y="601"/>
      <point x="94" y="659"/>
      <point x="161" y="696"/>
      <point x="200" y="696" type="qcurve" smooth="yes"/>
    </contour>
  </outline>
</glyph>
<glyph name="Odieresis" format="2">
  <advance width="744"/>
  <unicode hex="00D6"/>
  <outline>
    <contour>
      <point x="719" y="186" type="line" smooth="yes"/>
      <point x="719" y="148"/>
      <point x="683" y="80"/>
      <point x="624" y="29"/>
      <point x="551" y="0"/>
      <point x="515" y="0" type="qcurve"/>
      <point x="210" y="1" type="line"/>
      <point x="171" y="1"/>
      <point x="103" y="37"/>
      <point x="52" y="95"/>
      <point x="23" y="168"/>
      <point x="23" y="205" type="qcurve" smooth="yes"/>
      <point x="23" y="510" type="line" smooth="yes"/>
      <point x="23" y="543"/>
      <point x="57" y="609"/>
      <point x="110" y="663"/>
      <point x="177" y="696"/>
      <point x="210" y="696" type="qcurve" smooth="yes"/>
      <point x="533" y="696" type="line" smooth="yes"/>
      <point x="571" y="696"/>
      <point x="639" y="659"/>
      <point x="690" y="601"/>
      <point x="719" y="528"/>
      <point x="719" y="492" type="qcurve" smooth="yes"/>
    </contour>
    <contour>
      <point x="596" y="492" type="line" smooth="yes"/>
      <point x="596" y="507"/>
      <point x="584" y="536"/>
      <point x="564" y="559"/>
      <point x="537" y="573"/>
      <point x="522" y="573" type="qcurve" smooth="yes"/>
      <point x="392" y="573" type="line"/>
      <point x="392" y="123" type="line"/>
      <point x="522" y="123" type="line" smooth="yes"/>
      <point x="535" y="123"/>
      <point x="562" y="136"/>
      <point x="583" y="157"/>
      <point x="596" y="183"/>
      <point x="596" y="197" type="qcurve" smooth="yes"/>
    </contour>
    <contour>
      <point x="144" y="842" type="qcurve" smooth="yes"/>
      <point x="144" y="880"/>
      <point x="199" y="935"/>
      <point x="237" y="935" type="qcurve" smooth="yes"/>
      <point x="275" y="935"/>
      <point x="330" y="880"/>
      <point x="330" y="842" type="qcurve" smooth="yes"/>
      <point x="330" y="804"/>
      <point x="275" y="750"/>
      <point x="237" y="750" type="qcurve" smooth="yes"/>
      <point x="199" y="750"/>
      <point x="144" y="804"/>
    </contour>
    <contour>
      <point x="420" y="842" type="qcurve" smooth="yes"/>
      <point x="420" y="880"/>
      <point x="474" y="935"/>
      <point x="512" y="935" type="qcurve" smooth="yes"/>
      <point x="550" y="935"/>
      <point x="605" y="880"/>
      <point x="605" y="842" type="qcurve" smooth="yes"/>
      <point x="605" y="804"/>
      <point x="550" y="750"/>
      <point x="512" y="750" type="qcurve" smooth="yes"/>
      <point x="474" y="750"/>
      <point x="420" y="804"/>
    </contour>
  </outline>
</glyph>
<glyph name="multiply" format="2">
  <advance width="526"/>
  <unicode hex="00D7"/>
  <outline>
    <contour>
      <point x="126" y="124" type="line"/>
      <point x="39" y="211" type="line"/>
      <point x="179" y="351" type="line"/>
      <point x="33" y="496" type="line"/>
      <point x="120" y="583" type="line"/>
      <point x="266" y="438" type="line"/>
      <point x="409" y="581" type="line"/>
      <point x="496" y="494" type="line"/>
      <point x="353" y="351" type="line"/>
      <point x="490" y="213" type="line"/>
      <point x="403" y="126" type="line"/>
      <point x="266" y="264" type="line"/>
    </contour>
  </outline>
</glyph>
<glyph name="Udieresis" format="2">
  <advance width="761"/>
  <unicode hex="00DC"/>
  <outline>
    <contour>
      <point x="211" y="807" type="qcurve" smooth="yes"/>
      <point x="211" y="836"/>
      <point x="253" y="878"/>
      <point x="282" y="878" type="qcurve" smooth="yes"/>
      <point x="311" y="878"/>
      <point x="353" y="836"/>
      <point x="353" y="807" type="qcurve" smooth="yes"/>
      <point x="353" y="778"/>
      <point x="311" y="736"/>
      <point x="282" y="736" type="qcurve" smooth="yes"/>
      <point x="253" y="736"/>
      <point x="211" y="778"/>
    </contour>
    <contour>
      <point x="422" y="807" type="qcurve" smooth="yes"/>
      <point x="422" y="836"/>
      <point x="464" y="878"/>
      <point x="493" y="878" type="qcurve" smooth="yes"/>
      <point x="522" y="878"/>
      <point x="564" y="836"/>
      <point x="564" y="807" type="qcurve" smooth="yes"/>
      <point x="564" y="778"/>
      <point x="522" y="736"/>
      <point x="493" y="736" type="qcurve" smooth="yes"/>
      <point x="464" y="736"/>
      <point x="422" y="778"/>
    </contour>
    <contour>
      <point x="732" y="696" type="line"/>
      <point x="732" y="185" type="line" smooth="yes"/>
      <point x="732" y="152"/>
      <point x="699" y="86"/>
      <point x="645" y="33"/>
      <point x="579" y="0"/>
      <point x="546" y="0" type="qcurve"/>
      <point x="241" y="-1" type="line"/>
      <point x="205" y="-1"/>
      <point x="132" y="28"/>
      <point x="73" y="79"/>
      <point x="37" y="147"/>
      <point x="37" y="185" type="qcurve" smooth="yes"/>
      <point x="37" y="696" type="line"/>
      <point x="405" y="696" type="line"/>
      <point x="405" y="122" type="line"/>
      <point x="535" y="122" type="line" smooth="yes"/>
      <point x="548" y="122"/>
      <point x="575" y="135"/>
      <point x="596" y="156"/>
      <point x="609" y="182"/>
      <point x="609" y="196" type="qcurve" smooth="yes"/>
      <point x="609" y="696" type="line"/>
    </contour>
  </outline>
</glyph>
<glyph name="Yacute" format="2">
  <advance width="692"/>
  <unicode hex="00DD"/>
  <outline>
    <contour>
      <point x="351" y="927" type="line"/>
      <point x="426" y="829" type="line"/>
      <point x="259" y="735" type="line"/>
      <point x="219" y="787" type="line"/>
    </contour>
    <contour>
      <point x="140" y="696" type="line"/>
      <point x="243" y="405" type="line"/>
      <point x="345" y="696" type="line"/>
      <point x="672" y="696" type="line"/>
      <point x="493" y="187" type="line"/>
      <point x="493" y="0" type="line"/>
      <point x="182" y="0" type="line"/>
      <point x="182" y="231" type="line"/>
      <point x="18" y="696" type="line"/>
    </contour>
  </outline>
</glyph>
<glyph name="Thorn" format="2">
  <advance width="466"/>
  <unicode hex="00DE"/>
  <outline>
    <contour>
      <point x="449" y="265" type="line" smooth="yes"/>
      <point x="449" y="237"/>
      <point x="426" y="188"/>
      <point x="387" y="152"/>
      <point x="334" y="131"/>
      <point x="304" y="131" type="qcurve" smooth="yes"/>
      <point x="212" y="131" type="line"/>
      <point x="212" y="0" type="line"/>
      <point x="17" y="0" type="line"/>
      <point x="17" y="698" type="line"/>
      <point x="212" y="698" type="line"/>
      <point x="212" y="570" type="line"/>
      <point x="304" y="570" type="line" smooth="yes"/>
      <point x="334" y="570"/>
      <point x="387" y="549"/>
      <point x="426" y="513"/>
      <point x="449" y="464"/>
      <point x="449" y="436" type="qcurve" smooth="yes"/>
    </contour>
    <contour>
      <point x="345" y="440" type="line" smooth="yes"/>
      <point x="345" y="451"/>
      <point x="321" y="473"/>
      <point x="309" y="473" type="qcurve" smooth="yes"/>
      <point x="212" y="473" type="line"/>
      <point x="212" y="228" type="line"/>
      <point x="309" y="228" type="line" smooth="yes"/>
      <point x="321" y="228"/>
      <point x="345" y="249"/>
      <point x="345" y="260" type="qcurve" smooth="yes"/>
    </contour>
  </outline>
</glyph>
<glyph name="Germandbls" format="1">
  <advance width="725"/>
  <unicode hex="00DF"/>
  <outline>
    <contour>
      <point x="517" y="697" type="qcurve"/>
      <point x="560" y="697"/>
      <point x="631" y="663"/>
      <point x="680" y="606"/>
      <point x="707" y="530"/>
      <point x="707" y="488" type="qcurve" smooth="yes"/>
      <point x="707" y="467"/>
      <point x="689" y="416"/>
      <point x="674" y="395" type="qcurve" smooth="yes"/>
      <point x="658" y="373"/>
      <point x="619" y="348"/>
      <point x="600" y="348" type="qcurve" smooth="yes"/>
      <point x="596" y="348" type="line"/>
      <point x="615" y="345"/>
      <point x="634" y="334" type="qcurve" smooth="yes"/>
      <point x="665" y="317"/>
      <point x="707" y="249"/>
      <point x="707" y="209" type="qcurve" smooth="yes"/>
      <point x="707" y="168"/>
      <point x="680" y="93"/>
      <point x="630" y="35"/>
      <point x="559" y="0"/>
      <point x="514" y="0" type="qcurve" smooth="yes"/>
      <point x="379" y="0" type="line"/>
      <point x="379" y="123" type="line"/>
      <point x="509" y="123" type="line" smooth="yes"/>
      <point x="524" y="123"/>
      <point x="551" y="137"/>
      <point x="572" y="160"/>
      <point x="584" y="189"/>
      <point x="584" y="204" type="qcurve" smooth="yes"/>
      <point x="584" y="237"/>
      <point x="536" y="286"/>
      <point x="503" y="286" type="qcurve" smooth="yes"/>
      <point x="379" y="286" type="line"/>
      <point x="379" y="410" type="line"/>
      <point x="510" y="410" type="line" smooth="yes"/>
      <point x="526" y="410"/>
      <point x="553" y="425"/>
      <point x="573" y="451"/>
      <point x="584" y="482"/>
      <point x="584" y="499" type="qcurve" smooth="yes"/>
      <point x="584" y="512"/>
      <point x="570" y="539"/>
      <point x="549" y="560"/>
      <point x="522" y="573"/>
      <point x="509" y="573" type="qcurve" smooth="yes"/>
      <point x="341" y="573" type="line"/>
      <point x="341" y="0" type="line"/>
      <point x="22" y="0" type="line"/>
      <point x="22" y="511" type="line" smooth="yes"/>
      <point x="22" y="535"/>
      <point x="29" y="556" type="qcurve" smooth="yes"/>
      <point x="38" y="587"/>
      <point x="74" y="639"/>
      <point x="123" y="676"/>
      <point x="182" y="696"/>
      <point x="215" y="696" type="qcurve" smooth="yes"/>
      <point x="291" y="696"/>
      <point x="404" y="698"/>
      <point x="441" y="698" type="qcurve"/>
      <point x="442" y="698" type="line"/>
      <point x="443" y="698"/>
      <point x="443" y="698" type="qcurve"/>
      <point x="447" y="698" type="line"/>
      <point x="447" y="698"/>
      <point x="448" y="698" type="qcurve"/>
      <point x="452" y="698" type="line"/>
      <point x="453" y="698"/>
      <point x="455" y="698" type="qcurve"/>
      <point x="459" y="698" type="line"/>
      <point x="459" y="698"/>
      <point x="460" y="698" type="qcurve"/>
      <point x="473" y="698" type="line"/>
      <point x="474" y="698"/>
      <point x="475" y="698" type="qcurve"/>
      <point x="479" y="698" type="line" smooth="yes"/>
      <point x="498" y="698"/>
    </contour>
  </outline>
</glyph>
<glyph name="atilde" format="2">
  <advance width="844"/>
  <unicode hex="00E3"/>
  <outline>
    <contour>
      <point x="496" y="871" type="qcurve" smooth="yes"/>
      <point x="506" y="867"/>
      <point x="515" y="867" type="qcurve" smooth="yes"/>
      <point x="522" y="867"/>
      <point x="545" y="875"/>
      <point x="557" y="884" type="qcurve" smooth="yes"/>
      <point x="571" y="895"/>
      <point x="584" y="911" type="qcurve"/>
      <point x="612" y="901" type="line"/>
      <point x="587" y="832"/>
      <point x="532" y="767"/>
      <point x="509" y="755" type="qcurve" smooth="yes"/>
      <point x="490" y="745"/>
      <point x="471" y="745" type="qcurve" smooth="yes"/>
      <point x="463" y="745"/>
      <point x="455" y="747" type="qcurve"/>
      <point x="434" y="755"/>
      <point x="408" y="764"/>
      <point x="385" y="773"/>
      <point x="358" y="783"/>
      <point x="335" y="792" type="qcurve" smooth="yes"/>
      <point x="326" y="795"/>
      <point x="318" y="795" type="qcurve" smooth="yes"/>
      <point x="310" y="795"/>
      <point x="286" y="787"/>
      <point x="274" y="778" type="qcurve" smooth="yes"/>
      <point x="260" y="767"/>
      <point x="247" y="752" type="qcurve"/>
      <point x="219" y="761" type="line"/>
      <point x="244" y="829"/>
      <point x="299" y="895"/>
      <point x="322" y="907" type="qcurve" smooth="yes"/>
      <point x="341" y="917"/>
      <point x="360" y="917" type="qcurve" smooth="yes"/>
      <point x="368" y="917"/>
      <point x="376" y="915" type="qcurve"/>
      <point x="397" y="907"/>
      <point x="424" y="897"/>
      <point x="447" y="889"/>
      <point x="474" y="879"/>
    </contour>
    <contour>
      <point x="408" y="212" type="line"/>
      <point x="216" y="212" type="line"/>
      <point x="141" y="2" type="line"/>
      <point x="141" y="7" type="line"/>
      <point x="21" y="7" type="line"/>
      <point x="264" y="694" type="line"/>
      <point x="264" y="689" type="line"/>
      <point x="592" y="689" type="line"/>
      <point x="592" y="694" type="line"/>
      <point x="652" y="522"/>
      <point x="775" y="179"/>
      <point x="835" y="7" type="qcurve"/>
      <point x="469" y="7" type="line"/>
      <point x="469" y="2" type="line"/>
    </contour>
    <contour>
      <point x="388" y="280" type="line"/>
      <point x="320" y="508" type="line"/>
      <point x="240" y="280" type="line"/>
    </contour>
  </outline>
</glyph>
<glyph name="egrave" format="2">
  <advance width="616"/>
  <unicode hex="00E8"/>
  <outline>
    <contour>
      <point x="349" y="410" type="line"/>
      <point x="554" y="410" type="line"/>
      <point x="554" y="328" type="line"/>
      <point x="349" y="328" type="line"/>
      <point x="349" y="123" type="line"/>
      <point x="595" y="123" type="line"/>
      <point x="595" y="0" type="line"/>
      <point x="22" y="0" type="line"/>
      <point x="22" y="696" type="line"/>
      <point x="595" y="696" type="line"/>
      <point x="595" y="573" type="line"/>
      <point x="349" y="573" type="line"/>
    </contour>
    <contour>
      <point x="397" y="786" type="line"/>
      <point x="357" y="734" type="line"/>
      <point x="190" y="828" type="line"/>
      <point x="265" y="926" type="line"/>
    </contour>
  </outline>
</glyph>
<glyph name="eacute" format="2">
  <advance width="616"/>
  <unicode hex="00E9"/>
  <outline>
    <contour>
      <point x="349" y="410" type="line"/>
      <point x="554" y="410" type="line"/>
      <point x="554" y="328" type="line"/>
      <point x="349" y="328" type="line"/>
      <point x="349" y="123" type="line"/>
      <point x="595" y="123" type="line"/>
      <point x="595" y="0" type="line"/>
      <point x="22" y="0" type="line"/>
      <point x="22" y="696" type="line"/>
      <point x="595" y="696" type="line"/>
      <point x="595" y="573" type="line"/>
      <point x="349" y="573" type="line"/>
    </contour>
    <contour>
      <point x="351" y="926" type="line"/>
      <point x="426" y="828" type="line"/>
      <point x="259" y="734" type="line"/>
      <point x="219" y="786" type="line"/>
    </contour>
  </outline>
</glyph>
<glyph name="ecircumflex" format="2">
  <advance width="616"/>
  <unicode hex="00EA"/>
  <outline>
    <contour>
      <point x="349" y="410" type="line"/>
      <point x="554" y="410" type="line"/>
      <point x="554" y="328" type="line"/>
      <point x="349" y="328" type="line"/>
      <point x="349" y="123" type="line"/>
      <point x="595" y="123" type="line"/>
      <point x="595" y="0" type="line"/>
      <point x="22" y="0" type="line"/>
      <point x="22" y="696" type="line"/>
      <point x="595" y="696" type="line"/>
      <point x="595" y="573" type="line"/>
      <point x="349" y="573" type="line"/>
    </contour>
    <contour>
      <point x="282" y="927" type="line"/>
      <point x="346" y="927" type="line"/>
      <point x="478" y="787" type="line"/>
      <point x="438" y="735" type="line"/>
      <point x="314" y="805" type="line"/>
      <point x="190" y="735" type="line"/>
      <point x="150" y="787" type="line"/>
    </contour>
  </outline>
</glyph>
<glyph name="edieresis" format="2">
  <advance width="616"/>
  <unicode hex="00EB"/>
  <outline>
    <contour>
      <point x="133" y="807" type="qcurve" smooth="yes"/>
      <point x="133" y="836"/>
      <point x="175" y="878"/>
      <point x="204" y="878" type="qcurve" smooth="yes"/>
      <point x="233" y="878"/>
      <point x="275" y="836"/>
      <point x="275" y="807" type="qcurve" smooth="yes"/>
      <point x="275" y="778"/>
      <point x="233" y="736"/>
      <point x="204" y="736" type="qcurve" smooth="yes"/>
      <point x="175" y="736"/>
      <point x="133" y="778"/>
    </contour>
    <contour>
      <point x="344" y="807" type="qcurve" smooth="yes"/>
      <point x="344" y="836"/>
      <point x="386" y="878"/>
      <point x="415" y="878" type="qcurve" smooth="yes"/>
      <point x="444" y="878"/>
      <point x="486" y="836"/>
      <point x="486" y="807" type="qcurve" smooth="yes"/>
      <point x="486" y="778"/>
      <point x="444" y="736"/>
      <point x="415" y="736" type="qcurve" smooth="yes"/>
      <point x="386" y="736"/>
      <point x="344" y="778"/>
    </contour>
    <contour>
      <point x="349" y="410" type="line"/>
      <point x="554" y="410" type="line"/>
      <point x="554" y="328" type="line"/>
      <point x="349" y="328" type="line"/>
      <point x="349" y="123" type="line"/>
      <point x="595" y="123" type="line"/>
      <point x="595" y="0" type="line"/>
      <point x="22" y="0" type="line"/>
      <point x="22" y="696" type="line"/>
      <point x="595" y="696" type="line"/>
      <point x="595" y="573" type="line"/>
      <point x="349" y="573" type="line"/>
    </contour>
  </outline>
</glyph>
<glyph name="igrave" format="2">
  <advance width="383"/>
  <unicode hex="00EC"/>
  <outline>
    <contour>
      <point x="356" y="696" type="line"/>
      <point x="356" y="0" type="line"/>
      <point x="29" y="0" type="line"/>
      <point x="29" y="696" type="line"/>
    </contour>
    <contour>
      <point x="299" y="787" type="line"/>
      <point x="259" y="735" type="line"/>
      <point x="92" y="829" type="line"/>
      <point x="167" y="927" type="line"/>
    </contour>
  </outline>
</glyph>
<glyph name="iacute" format="2">
  <advance width="383"/>
  <unicode hex="00ED"/>
  <outline>
    <contour>
      <point x="356" y="696" type="line"/>
      <point x="356" y="0" type="line"/>
      <point x="29" y="0" type="line"/>
      <point x="29" y="696" type="line"/>
    </contour>
    <contour>
      <point x="224" y="927" type="line"/>
      <point x="299" y="829" type="line"/>
      <point x="132" y="735" type="line"/>
      <point x="92" y="787" type="line"/>
    </contour>
  </outline>
</glyph>
<glyph name="icircumflex" format="2">
  <advance width="383"/>
  <unicode hex="00EE"/>
  <outline>
    <contour>
      <point x="356" y="696" type="line"/>
      <point x="356" y="0" type="line"/>
      <point x="29" y="0" type="line"/>
      <point x="29" y="696" type="line"/>
    </contour>
    <contour>
      <point x="157" y="927" type="line"/>
      <point x="221" y="927" type="line"/>
      <point x="353" y="787" type="line"/>
      <point x="313" y="735" type="line"/>
      <point x="189" y="805" type="line"/>
      <point x="65" y="735" type="line"/>
      <point x="25" y="787" type="line"/>
    </contour>
  </outline>
</glyph>
<glyph name="idieresis" format="2">
  <advance width="383"/>
  <unicode hex="00EF"/>
  <outline>
    <contour>
      <point x="17" y="807" type="qcurve" smooth="yes"/>
      <point x="17" y="836"/>
      <point x="59" y="878"/>
      <point x="88" y="878" type="qcurve" smooth="yes"/>
      <point x="117" y="878"/>
      <point x="159" y="836"/>
      <point x="159" y="807" type="qcurve" smooth="yes"/>
      <point x="159" y="778"/>
      <point x="117" y="736"/>
      <point x="88" y="736" type="qcurve" smooth="yes"/>
      <point x="59" y="736"/>
      <point x="17" y="778"/>
    </contour>
    <contour>
      <point x="228" y="807" type="qcurve" smooth="yes"/>
      <point x="228" y="836"/>
      <point x="270" y="878"/>
      <point x="299" y="878" type="qcurve" smooth="yes"/>
      <point x="328" y="878"/>
      <point x="370" y="836"/>
      <point x="370" y="807" type="qcurve" smooth="yes"/>
      <point x="370" y="778"/>
      <point x="328" y="736"/>
      <point x="299" y="736" type="qcurve" smooth="yes"/>
      <point x="270" y="736"/>
      <point x="228" y="778"/>
    </contour>
    <contour>
      <point x="356" y="696" type="line"/>
      <point x="356" y="0" type="line"/>
      <point x="29" y="0" type="line"/>
      <point x="29" y="696" type="line"/>
    </contour>
  </outline>
</glyph>
<glyph name="ntilde" format="2">
  <advance width="794"/>
  <unicode hex="00F1"/>
  <outline>
    <contour>
      <point x="496" y="871" type="qcurve" smooth="yes"/>
      <point x="505" y="867"/>
      <point x="515" y="867" type="qcurve" smooth="yes"/>
      <point x="522" y="867"/>
      <point x="545" y="875"/>
      <point x="557" y="884" type="qcurve" smooth="yes"/>
      <point x="570" y="894"/>
      <point x="584" y="911" type="qcurve"/>
      <point x="612" y="901" type="line"/>
      <point x="587" y="832"/>
      <point x="532" y="767"/>
      <point x="509" y="755" type="qcurve" smooth="yes"/>
      <point x="490" y="745"/>
      <point x="471" y="745" type="qcurve" smooth="yes"/>
      <point x="465" y="745"/>
      <point x="455" y="747" type="qcurve"/>
      <point x="434" y="755"/>
      <point x="408" y="764"/>
      <point x="385" y="773"/>
      <point x="358" y="783"/>
      <point x="335" y="792" type="qcurve" smooth="yes"/>
      <point x="326" y="795"/>
      <point x="318" y="795" type="qcurve" smooth="yes"/>
      <point x="310" y="795"/>
      <point x="286" y="787"/>
      <point x="274" y="778" type="qcurve" smooth="yes"/>
      <point x="262" y="769"/>
      <point x="247" y="752" type="qcurve"/>
      <point x="219" y="761" type="line"/>
      <point x="244" y="829"/>
      <point x="299" y="895"/>
      <point x="322" y="907" type="qcurve" smooth="yes"/>
      <point x="341" y="917"/>
      <point x="360" y="917" type="qcurve" smooth="yes"/>
      <point x="366" y="917"/>
      <point x="376" y="915" type="qcurve"/>
      <point x="397" y="907"/>
      <point x="424" y="897"/>
      <point x="447" y="888"/>
      <point x="474" y="879"/>
    </contour>
    <contour>
      <point x="395" y="697" type="line"/>
      <point x="641" y="232" type="line"/>
      <point x="641" y="697" type="line"/>
      <point x="763" y="697" type="line"/>
      <point x="763" y="0" type="line"/>
      <point x="641" y="0" type="line"/>
      <point x="395" y="464" type="line"/>
      <point x="395" y="0" type="line"/>
      <point x="26" y="0" type="line"/>
      <point x="26" y="697" type="line"/>
    </contour>
  </outline>
</glyph>
<glyph name="divide" format="2">
  <advance width="558"/>
  <unicode hex="00F7"/>
  <outline>
    <contour>
      <point x="202" y="521" type="qcurve" smooth="yes"/>
      <point x="202" y="553"/>
      <point x="247" y="599"/>
      <point x="279" y="599" type="qcurve" smooth="yes"/>
      <point x="311" y="599"/>
      <point x="357" y="553"/>
      <point x="357" y="521" type="qcurve" smooth="yes"/>
      <point x="357" y="489"/>
      <point x="311" y="444"/>
      <point x="279" y="444" type="qcurve" smooth="yes"/>
      <point x="247" y="444"/>
      <point x="202" y="489"/>
    </contour>
    <contour>
      <point x="520" y="406" type="line"/>
      <point x="520" y="283" type="line"/>
      <point x="36" y="283" type="line"/>
      <point x="36" y="406" type="line"/>
    </contour>
    <contour>
      <point x="202" y="158" type="qcurve" smooth="yes"/>
      <point x="202" y="190"/>
      <point x="247" y="236"/>
      <point x="279" y="236" type="qcurve" smooth="yes"/>
      <point x="311" y="236"/>
      <point x="357" y="190"/>
      <point x="357" y="158" type="qcurve" smooth="yes"/>
      <point x="357" y="126"/>
      <point x="311" y="81"/>
      <point x="279" y="81" type="qcurve" smooth="yes"/>
      <point x="247" y="81"/>
      <point x="202" y="126"/>
    </contour>
  </outline>
</glyph>
<glyph name="oslash" format="2">
  <advance width="744"/>
  <unicode hex="00F8"/>
  <outline>
    <contour>
      <point x="719" y="492" type="qcurve" smooth="yes"/>
      <point x="719" y="186" type="line" smooth="yes"/>
      <point x="719" y="148"/>
      <point x="683" y="80"/>
      <point x="624" y="29"/>
      <point x="551" y="0"/>
      <point x="515" y="0" type="qcurve" smooth="yes"/>
      <point x="406" y="0" type="line"/>
      <point x="374" y="-99" type="line"/>
      <point x="288" y="-71" type="line"/>
      <point x="311" y="1" type="line"/>
      <point x="210" y="1" type="line" smooth="yes"/>
      <point x="171" y="1"/>
      <point x="103" y="37"/>
      <point x="52" y="95"/>
      <point x="23" y="168"/>
      <point x="23" y="205" type="qcurve" smooth="yes"/>
      <point x="23" y="510" type="line" smooth="yes"/>
      <point x="23" y="543"/>
      <point x="57" y="609"/>
      <point x="110" y="663"/>
      <point x="177" y="696"/>
      <point x="210" y="696" type="qcurve" smooth="yes"/>
      <point x="533" y="696" type="line" smooth="yes"/>
      <point x="536" y="696"/>
      <point x="538" y="696" type="qcurve"/>
      <point x="565" y="778" type="line"/>
      <point x="651" y="750" type="line"/>
      <point x="624" y="666" type="line"/>
      <point x="646" y="651"/>
      <point x="665" y="630" type="qcurve" smooth="yes"/>
      <point x="690" y="601"/>
      <point x="719" y="528"/>
    </contour>
    <contour>
      <point x="392" y="248" type="line"/>
      <point x="498" y="573" type="line"/>
      <point x="392" y="573" type="line"/>
    </contour>
    <contour>
      <point x="596" y="492" type="line" smooth="yes"/>
      <point x="596" y="507"/>
      <point x="590" y="522" type="qcurve" smooth="yes"/>
      <point x="586" y="530"/>
      <point x="582" y="537" type="qcurve"/>
      <point x="446" y="123" type="line"/>
      <point x="522" y="123" type="line" smooth="yes"/>
      <point x="535" y="123"/>
      <point x="562" y="136"/>
      <point x="583" y="157"/>
      <point x="596" y="183"/>
      <point x="596" y="197" type="qcurve" smooth="yes"/>
    </contour>
  </outline>
</glyph>
<glyph name="yacute" format="2">
  <advance width="692"/>
  <unicode hex="00FD"/>
  <outline>
    <contour>
      <point x="371" y="927" type="line"/>
      <point x="446" y="829" type="line"/>
      <point x="279" y="735" type="line"/>
      <point x="239" y="787" type="line"/>
    </contour>
    <contour>
      <point x="140" y="696" type="line"/>
      <point x="243" y="405" type="line"/>
      <point x="345" y="696" type="line"/>
      <point x="672" y="696" type="line"/>
      <point x="493" y="187" type="line"/>
      <point x="493" y="0" type="line"/>
      <point x="182" y="0" type="line"/>
      <point x="182" y="231" type="line"/>
      <point x="18" y="696" type="line"/>
    </contour>
  </outline>
</glyph>
<glyph name="ydieresis" format="2">
  <advance width="753"/>
  <unicode hex="00FF"/>
  <outline>
    <contour>
      <point x="198" y="807" type="qcurve" smooth="yes"/>
      <point x="198" y="836"/>
      <point x="240" y="878"/>
      <point x="269" y="878" type="qcurve" smooth="yes"/>
      <point x="298" y="878"/>
      <point x="340" y="836"/>
      <point x="340" y="807" type="qcurve" smooth="yes"/>
      <point x="340" y="778"/>
      <point x="298" y="736"/>
      <point x="269" y="736" type="qcurve" smooth="yes"/>
      <point x="240" y="736"/>
      <point x="198" y="778"/>
    </contour>
    <contour>
      <point x="409" y="807" type="qcurve" smooth="yes"/>
      <point x="409" y="836"/>
      <point x="451" y="878"/>
      <point x="480" y="878" type="qcurve" smooth="yes"/>
      <point x="509" y="878"/>
      <point x="551" y="836"/>
      <point x="551" y="807" type="qcurve" smooth="yes"/>
      <point x="551" y="778"/>
      <point x="509" y="736"/>
      <point x="480" y="736" type="qcurve" smooth="yes"/>
      <point x="451" y="736"/>
      <point x="409" y="778"/>
    </contour>
    <contour>
      <point x="501" y="491" type="line"/>
      <point x="597" y="696" type="line"/>
      <point x="745" y="696" type="line"/>
      <point x="560" y="329" type="line"/>
      <point x="560" y="0" type="line"/>
      <point x="200" y="0" type="line"/>
      <point x="200" y="329" type="line"/>
      <point x="15" y="696" type="line"/>
      <point x="406" y="696" type="line"/>
    </contour>
  </outline>
</glyph>
<glyph name="Abreve" format="2">
  <advance width="844"/>
  <unicode hex="0102"/>
  <outline>
    <contour>
      <point x="584" y="905" type="line"/>
      <point x="584" y="859" type="line"/>
      <point x="574" y="829"/>
      <point x="555" y="804" type="qcurve" smooth="yes"/>
      <point x="538" y="783"/>
      <point x="478" y="745"/>
      <point x="430" y="743" type="qcurve"/>
      <point x="377" y="745"/>
      <point x="314" y="783"/>
      <point x="296" y="804" type="qcurve" smooth="yes"/>
      <point x="275" y="829"/>
      <point x="266" y="859" type="qcurve"/>
      <point x="266" y="905" type="line"/>
      <point x="310" y="905" type="line"/>
      <point x="310" y="882" type="line" smooth="yes"/>
      <point x="310" y="872"/>
      <point x="339" y="858"/>
      <point x="378" y="849"/>
      <point x="416" y="844"/>
      <point x="425" y="844" type="qcurve" smooth="yes"/>
      <point x="433" y="844"/>
      <point x="471" y="849"/>
      <point x="509" y="858"/>
      <point x="539" y="872"/>
      <point x="540" y="882" type="qcurve"/>
      <point x="540" y="905" type="line"/>
    </contour>
    <contour>
      <point x="409" y="205" type="line"/>
      <point x="214" y="205" type="line"/>
      <point x="141" y="0" type="line"/>
      <point x="18" y="0" type="line"/>
      <point x="264" y="696" type="line"/>
      <point x="592" y="696" type="line"/>
      <point x="838" y="0" type="line"/>
      <point x="469" y="0" type="line"/>
    </contour>
    <contour>
      <point x="385" y="287" type="line"/>
      <point x="320" y="506" type="line"/>
      <point x="243" y="287" type="line"/>
    </contour>
  </outline>
</glyph>
<glyph name="Aogonek" format="2">
  <advance width="844"/>
  <unicode hex="0104"/>
  <outline>
    <contour>
      <point x="409" y="205" type="line"/>
      <point x="214" y="205" type="line"/>
      <point x="141" y="0" type="line"/>
      <point x="18" y="0" type="line"/>
      <point x="264" y="696" type="line"/>
      <point x="592" y="696" type="line"/>
      <point x="838" y="0" type="line"/>
      <point x="694" y="0" type="line"/>
      <point x="667" y="-30"/>
      <point x="652" y="-50" type="qcurve" smooth="yes"/>
      <point x="634" y="-72"/>
      <point x="631" y="-80" type="qcurve"/>
      <point x="624" y="-93"/>
      <point x="624" y="-107" type="qcurve" smooth="yes"/>
      <point x="624" y="-118"/>
      <point x="640" y="-127"/>
      <point x="664" y="-127"/>
      <point x="693" y="-119"/>
      <point x="706" y="-112" type="qcurve"/>
      <point x="731" y="-148" type="line"/>
      <point x="717" y="-159"/>
      <point x="682" y="-186"/>
      <point x="641" y="-208"/>
      <point x="598" y="-223"/>
      <point x="576" y="-223" type="qcurve" smooth="yes"/>
      <point x="559" y="-223"/>
      <point x="531" y="-212"/>
      <point x="522" y="-200" type="qcurve" smooth="yes"/>
      <point x="510" y="-185"/>
      <point x="510" y="-165" type="qcurve" smooth="yes"/>
      <point x="510" y="-141"/>
      <point x="535" y="-92"/>
      <point x="571" y="-46"/>
      <point x="591" y="-27" type="qcurve"/>
      <point x="591" y="-26"/>
      <point x="591" y="-26" type="qcurve"/>
      <point x="598" y="-19" type="line"/>
      <point x="598" y="-19"/>
      <point x="599" y="-18" type="qcurve"/>
      <point x="617" y="0" type="line"/>
      <point x="469" y="0" type="line"/>
    </contour>
    <contour>
      <point x="385" y="287" type="line"/>
      <point x="320" y="506" type="line"/>
      <point x="243" y="287" type="line"/>
    </contour>
  </outline>
</glyph>
<glyph name="ebreve" format="2">
  <advance width="616"/>
  <unicode hex="0115"/>
  <outline>
    <contour>
      <point x="479" y="905" type="line"/>
      <point x="479" y="859" type="line"/>
      <point x="469" y="829"/>
      <point x="450" y="804" type="qcurve" smooth="yes"/>
      <point x="433" y="783"/>
      <point x="373" y="745"/>
      <point x="325" y="743" type="qcurve"/>
      <point x="272" y="745"/>
      <point x="209" y="783"/>
      <point x="191" y="804" type="qcurve" smooth="yes"/>
      <point x="170" y="829"/>
      <point x="161" y="859" type="qcurve"/>
      <point x="161" y="905" type="line"/>
      <point x="205" y="905" type="line"/>
      <point x="205" y="882" type="line" smooth="yes"/>
      <point x="205" y="872"/>
      <point x="234" y="858"/>
      <point x="273" y="849"/>
      <point x="311" y="844"/>
      <point x="320" y="844" type="qcurve" smooth="yes"/>
      <point x="328" y="844"/>
      <point x="366" y="849"/>
      <point x="404" y="858"/>
      <point x="434" y="872"/>
      <point x="435" y="882" type="qcurve"/>
      <point x="435" y="905" type="line"/>
    </contour>
    <contour>
      <point x="349" y="410" type="line"/>
      <point x="554" y="410" type="line"/>
      <point x="554" y="328" type="line"/>
      <point x="349" y="328" type="line"/>
      <point x="349" y="123" type="line"/>
      <point x="595" y="123" type="line"/>
      <point x="595" y="0" type="line"/>
      <point x="22" y="0" type="line"/>
      <point x="22" y="696" type="line"/>
      <point x="595" y="696" type="line"/>
      <point x="595" y="573" type="line"/>
      <point x="349" y="573" type="line"/>
    </contour>
  </outline>
</glyph>
<glyph name="Edotaccent" format="2">
  <advance width="616"/>
  <unicode hex="0116"/>
  <outline>
    <contour>
      <point x="208" y="826" type="qcurve" smooth="yes"/>
      <point x="208" y="868"/>
      <point x="263" y="924"/>
      <point x="305" y="924" type="qcurve" smooth="yes"/>
      <point x="347" y="924"/>
      <point x="403" y="868"/>
      <point x="403" y="826" type="qcurve" smooth="yes"/>
      <point x="403" y="784"/>
      <point x="347" y="729"/>
      <point x="305" y="729" type="qcurve" smooth="yes"/>
      <point x="263" y="729"/>
      <point x="208" y="784"/>
    </contour>
    <contour>
      <point x="349" y="410" type="line"/>
      <point x="554" y="410" type="line"/>
      <point x="554" y="328" type="line"/>
      <point x="349" y="328" type="line"/>
      <point x="349" y="123" type="line"/>
      <point x="595" y="123" type="line"/>
      <point x="595" y="0" type="line"/>
      <point x="22" y="0" type="line"/>
      <point x="22" y="696" type="line"/>
      <point x="595" y="696" type="line"/>
      <point x="595" y="573" type="line"/>
      <point x="349" y="573" type="line"/>
    </contour>
  </outline>
</glyph>
<glyph name="edotaccent" format="2">
  <advance width="616"/>
  <unicode hex="0117"/>
  <outline>
    <contour>
      <point x="208" y="826" type="qcurve" smooth="yes"/>
      <point x="208" y="867"/>
      <point x="264" y="924"/>
      <point x="305" y="924" type="qcurve" smooth="yes"/>
      <point x="346" y="924"/>
      <point x="403" y="867"/>
      <point x="403" y="826" type="qcurve" smooth="yes"/>
      <point x="403" y="785"/>
      <point x="346" y="729"/>
      <point x="305" y="729" type="qcurve" smooth="yes"/>
      <point x="264" y="729"/>
      <point x="208" y="785"/>
    </contour>
    <contour>
      <point x="349" y="410" type="line"/>
      <point x="554" y="410" type="line"/>
      <point x="554" y="328" type="line"/>
      <point x="349" y="328" type="line"/>
      <point x="349" y="123" type="line"/>
      <point x="595" y="123" type="line"/>
      <point x="595" y="0" type="line"/>
      <point x="22" y="0" type="line"/>
      <point x="22" y="696" type="line"/>
      <point x="595" y="696" type="line"/>
      <point x="595" y="573" type="line"/>
      <point x="349" y="573" type="line"/>
    </contour>
  </outline>
</glyph>
<glyph name="eogonek" format="2">
  <advance width="616"/>
  <unicode hex="0119"/>
  <outline>
    <contour>
      <point x="553" y="415" type="line"/>
      <point x="553" y="322" type="line"/>
      <point x="351" y="322" type="line"/>
      <point x="351" y="134" type="line"/>
      <point x="593" y="134" type="line"/>
      <point x="593" y="0" type="line"/>
      <point x="368" y="0" type="line"/>
      <point x="341" y="-30"/>
      <point x="326" y="-50" type="qcurve" smooth="yes"/>
      <point x="308" y="-72"/>
      <point x="305" y="-80" type="qcurve"/>
      <point x="298" y="-93"/>
      <point x="298" y="-107" type="qcurve" smooth="yes"/>
      <point x="298" y="-118"/>
      <point x="314" y="-127"/>
      <point x="338" y="-127"/>
      <point x="367" y="-119"/>
      <point x="380" y="-112" type="qcurve"/>
      <point x="405" y="-148" type="line"/>
      <point x="391" y="-159"/>
      <point x="356" y="-186"/>
      <point x="315" y="-208"/>
      <point x="272" y="-223"/>
      <point x="250" y="-223" type="qcurve" smooth="yes"/>
      <point x="233" y="-223"/>
      <point x="205" y="-212"/>
      <point x="196" y="-200" type="qcurve" smooth="yes"/>
      <point x="184" y="-185"/>
      <point x="184" y="-165" type="qcurve" smooth="yes"/>
      <point x="184" y="-141"/>
      <point x="209" y="-92"/>
      <point x="245" y="-46"/>
      <point x="265" y="-27" type="qcurve"/>
      <point x="265" y="-26"/>
      <point x="265" y="-26" type="qcurve"/>
      <point x="272" y="-19" type="line"/>
      <point x="272" y="-19"/>
      <point x="273" y="-18" type="qcurve"/>
      <point x="291" y="0" type="line"/>
      <point x="25" y="0" type="line"/>
      <point x="25" y="696" type="line"/>
      <point x="593" y="696" type="line"/>
      <point x="593" y="562" type="line"/>
      <point x="351" y="562" type="line"/>
      <point x="351" y="415" type="line"/>
    </contour>
  </outline>
</glyph>
<glyph name="gcircumflex" format="2">
  <advance width="744"/>
  <unicode hex="011D"/>
  <outline>
    <contour>
      <point x="335" y="927" type="line"/>
      <point x="399" y="927" type="line"/>
      <point x="531" y="787" type="line"/>
      <point x="491" y="735" type="line"/>
      <point x="367" y="805" type="line"/>
      <point x="243" y="735" type="line"/>
      <point x="203" y="787" type="line"/>
    </contour>
    <contour>
      <point x="591" y="492" type="line"/>
      <point x="591" y="496" type="line"/>
      <point x="591" y="497" type="line"/>
      <point x="591" y="499" type="line"/>
      <point x="591" y="500" type="line"/>
      <point x="591" y="533"/>
      <point x="547" y="568"/>
      <point x="512" y="574" type="qcurve" smooth="yes"/>
      <point x="477" y="579"/>
      <point x="406" y="574"/>
      <point x="386" y="574" type="qcurve"/>
      <point x="386" y="123" type="line"/>
      <point x="399" y="123"/>
      <point x="436" y="120"/>
      <point x="453" y="120" type="qcurve" smooth="yes"/>
      <point x="456" y="120"/>
      <point x="477" y="120"/>
      <point x="505" y="123"/>
      <point x="538" y="130"/>
      <point x="553" y="137" type="qcurve" smooth="yes"/>
      <point x="591" y="156"/>
      <point x="591" y="197" type="qcurve" smooth="yes"/>
      <point x="591" y="201" type="line"/>
      <point x="591" y="202" type="line"/>
      <point x="591" y="204" type="line"/>
      <point x="591" y="205" type="line"/>
      <point x="468" y="205" type="line"/>
      <point x="468" y="328" type="line"/>
      <point x="714" y="328" type="line"/>
      <point x="714" y="205" type="line" smooth="yes"/>
      <point x="714" y="163"/>
      <point x="681" y="89"/>
      <point x="626" y="33"/>
      <point x="551" y="0"/>
      <point x="509" y="0" type="qcurve" smooth="yes"/>
      <point x="204" y="0" type="line" smooth="yes"/>
      <point x="165" y="0"/>
      <point x="97" y="37"/>
      <point x="46" y="95"/>
      <point x="17" y="169"/>
      <point x="17" y="205" type="qcurve" smooth="yes"/>
      <point x="17" y="492" type="line" smooth="yes"/>
      <point x="17" y="529"/>
      <point x="46" y="602"/>
      <point x="97" y="660"/>
      <point x="165" y="696"/>
      <point x="204" y="696" type="qcurve"/>
      <point x="509" y="697" type="line"/>
      <point x="552" y="697"/>
      <point x="627" y="665"/>
      <point x="681" y="609"/>
      <point x="713" y="534"/>
      <point x="714" y="492" type="qcurve"/>
    </contour>
  </outline>
</glyph>
<glyph name="gbreve" format="2">
  <advance width="744"/>
  <unicode hex="011F"/>
  <outline>
    <contour>
      <point x="534" y="905" type="line"/>
      <point x="534" y="859" type="line"/>
      <point x="523" y="828"/>
      <point x="505" y="804" type="qcurve" smooth="yes"/>
      <point x="488" y="783"/>
      <point x="428" y="745"/>
      <point x="380" y="743" type="qcurve"/>
      <point x="327" y="745"/>
      <point x="264" y="783"/>
      <point x="246" y="804" type="qcurve" smooth="yes"/>
      <point x="225" y="830"/>
      <point x="216" y="859" type="qcurve"/>
      <point x="216" y="905" type="line"/>
      <point x="260" y="905" type="line"/>
      <point x="260" y="882" type="line" smooth="yes"/>
      <point x="260" y="872"/>
      <point x="289" y="858"/>
      <point x="328" y="849"/>
      <point x="366" y="844"/>
      <point x="375" y="844" type="qcurve" smooth="yes"/>
      <point x="383" y="844"/>
      <point x="420" y="849"/>
      <point x="459" y="858"/>
      <point x="489" y="872"/>
      <point x="490" y="882" type="qcurve"/>
      <point x="490" y="905" type="line"/>
    </contour>
    <contour>
      <point x="591" y="492" type="line"/>
      <point x="591" y="496" type="line"/>
      <point x="591" y="497" type="line"/>
      <point x="591" y="499" type="line"/>
      <point x="591" y="500" type="line"/>
      <point x="591" y="533"/>
      <point x="547" y="568"/>
      <point x="512" y="574" type="qcurve" smooth="yes"/>
      <point x="477" y="579"/>
      <point x="406" y="574"/>
      <point x="386" y="574" type="qcurve"/>
      <point x="386" y="123" type="line"/>
      <point x="399" y="123"/>
      <point x="436" y="120"/>
      <point x="453" y="120" type="qcurve" smooth="yes"/>
      <point x="456" y="120"/>
      <point x="477" y="120"/>
      <point x="505" y="123"/>
      <point x="538" y="130"/>
      <point x="553" y="137" type="qcurve" smooth="yes"/>
      <point x="591" y="156"/>
      <point x="591" y="197" type="qcurve" smooth="yes"/>
      <point x="591" y="201" type="line"/>
      <point x="591" y="202" type="line"/>
      <point x="591" y="204" type="line"/>
      <point x="591" y="205" type="line"/>
      <point x="468" y="205" type="line"/>
      <point x="468" y="328" type="line"/>
      <point x="714" y="328" type="line"/>
      <point x="714" y="205" type="line" smooth="yes"/>
      <point x="714" y="163"/>
      <point x="681" y="89"/>
      <point x="626" y="33"/>
      <point x="551" y="0"/>
      <point x="509" y="0" type="qcurve" smooth="yes"/>
      <point x="204" y="0" type="line" smooth="yes"/>
      <point x="165" y="0"/>
      <point x="97" y="37"/>
      <point x="46" y="95"/>
      <point x="17" y="169"/>
      <point x="17" y="205" type="qcurve" smooth="yes"/>
      <point x="17" y="492" type="line" smooth="yes"/>
      <point x="17" y="529"/>
      <point x="46" y="602"/>
      <point x="97" y="660"/>
      <point x="165" y="696"/>
      <point x="204" y="696" type="qcurve"/>
      <point x="509" y="697" type="line"/>
      <point x="552" y="697"/>
      <point x="627" y="665"/>
      <point x="681" y="609"/>
      <point x="713" y="534"/>
      <point x="714" y="492" type="qcurve"/>
    </contour>
  </outline>
</glyph>
<glyph name="hcircumflex" format="2">
  <advance width="779"/>
  <unicode hex="0125"/>
  <outline>
    <contour>
      <point x="636" y="410" type="line"/>
      <point x="636" y="697" type="line"/>
      <point x="759" y="697" type="line"/>
      <point x="759" y="0" type="line"/>
      <point x="636" y="0" type="line"/>
      <point x="636" y="328" type="line"/>
      <point x="390" y="328" type="line"/>
      <point x="390" y="0" type="line"/>
      <point x="21" y="0" type="line"/>
      <point x="21" y="697" type="line"/>
      <point x="390" y="697" type="line"/>
      <point x="390" y="410" type="line"/>
    </contour>
    <contour>
      <point x="374" y="927" type="line"/>
      <point x="438" y="927" type="line"/>
      <point x="570" y="787" type="line"/>
      <point x="530" y="735" type="line"/>
      <point x="406" y="805" type="line"/>
      <point x="282" y="735" type="line"/>
      <point x="242" y="787" type="line"/>
    </contour>
  </outline>
</glyph>
<glyph name="hbar" format="2">
  <advance width="887"/>
  <unicode hex="0127"/>
  <outline>
    <contour>
      <point x="669" y="410" type="line"/>
      <point x="669" y="484" type="line"/>
      <point x="458" y="484" type="line"/>
      <point x="458" y="410" type="line"/>
    </contour>
    <contour>
      <point x="792" y="568" type="line"/>
      <point x="866" y="568" type="line"/>
      <point x="866" y="484" type="line"/>
      <point x="792" y="484" type="line"/>
      <point x="792" y="0" type="line"/>
      <point x="669" y="0" type="line"/>
      <point x="669" y="328" type="line"/>
      <point x="458" y="328" type="line"/>
      <point x="458" y="0" type="line"/>
      <point x="89" y="0" type="line"/>
      <point x="89" y="484" type="line"/>
      <point x="19" y="484" type="line"/>
      <point x="19" y="568" type="line"/>
      <point x="89" y="568" type="line"/>
      <point x="89" y="697" type="line"/>
      <point x="458" y="697" type="line"/>
      <point x="458" y="568" type="line"/>
      <point x="669" y="568" type="line"/>
      <point x="669" y="697" type="line"/>
      <point x="792" y="697" type="line"/>
    </contour>
  </outline>
</glyph>
<glyph name="itilde" format="2">
  <advance width="383"/>
  <unicode hex="0129"/>
  <outline>
    <contour>
      <point x="288" y="871" type="qcurve" smooth="yes"/>
      <point x="297" y="867"/>
      <point x="307" y="867" type="qcurve" smooth="yes"/>
      <point x="314" y="867"/>
      <point x="337" y="875"/>
      <point x="349" y="884" type="qcurve" smooth="yes"/>
      <point x="362" y="894"/>
      <point x="376" y="911" type="qcurve"/>
      <point x="404" y="901" type="line"/>
      <point x="379" y="832"/>
      <point x="324" y="767"/>
      <point x="301" y="755" type="qcurve" smooth="yes"/>
      <point x="282" y="745"/>
      <point x="263" y="745" type="qcurve" smooth="yes"/>
      <point x="257" y="745"/>
      <point x="247" y="747" type="qcurve"/>
      <point x="226" y="755"/>
      <point x="200" y="764"/>
      <point x="177" y="773"/>
      <point x="150" y="783"/>
      <point x="127" y="792" type="qcurve" smooth="yes"/>
      <point x="118" y="795"/>
      <point x="110" y="795" type="qcurve" smooth="yes"/>
      <point x="102" y="795"/>
      <point x="78" y="787"/>
      <point x="66" y="778" type="qcurve" smooth="yes"/>
      <point x="54" y="769"/>
      <point x="39" y="752" type="qcurve"/>
      <point x="11" y="761" type="line"/>
      <point x="36" y="829"/>
      <point x="91" y="895"/>
      <point x="114" y="907" type="qcurve" smooth="yes"/>
      <point x="133" y="917"/>
      <point x="152" y="917" type="qcurve" smooth="yes"/>
      <point x="158" y="917"/>
      <point x="168" y="915" type="qcurve"/>
      <point x="189" y="907"/>
      <point x="216" y="897"/>
      <point x="239" y="888"/>
      <point x="266" y="879"/>
    </contour>
    <contour>
      <point x="356" y="696" type="line"/>
      <point x="356" y="0" type="line"/>
      <point x="29" y="0" type="line"/>
      <point x="29" y="696" type="line"/>
    </contour>
  </outline>
</glyph>
<glyph name="Imacron" format="2">
  <advance width="383"/>
  <unicode hex="012A"/>
  <outline>
    <contour>
      <point x="356" y="696" type="line"/>
      <point x="356" y="0" type="line"/>
      <point x="29" y="0" type="line"/>
      <point x="29" y="696" type="line"/>
    </contour>
    <contour>
      <point x="370" y="830" type="line"/>
      <point x="370" y="740" type="line"/>
      <point x="13" y="740" type="line"/>
      <point x="13" y="830" type="line"/>
    </contour>
  </outline>
</glyph>
<glyph name="imacron" format="2">
  <advance width="383"/>
  <unicode hex="012B"/>
  <outline>
    <contour>
      <point x="356" y="696" type="line"/>
      <point x="356" y="0" type="line"/>
      <point x="29" y="0" type="line"/>
      <point x="29" y="696" type="line"/>
    </contour>
    <contour>
      <point x="370" y="830" type="line"/>
      <point x="370" y="740" type="line"/>
      <point x="13" y="740" type="line"/>
      <point x="13" y="830" type="line"/>
    </contour>
  </outline>
</glyph>
<glyph name="iogonek" format="2">
  <advance width="383"/>
  <unicode hex="012F"/>
  <outline>
    <contour>
      <point x="356" y="696" type="line"/>
      <point x="356" y="0" type="line"/>
      <point x="248" y="0" type="line"/>
      <point x="234" y="-15"/>
      <point x="214" y="-40"/>
      <point x="206" y="-50" type="qcurve" smooth="yes"/>
      <point x="188" y="-73"/>
      <point x="185" y="-80" type="qcurve" smooth="yes"/>
      <point x="178" y="-93"/>
      <point x="178" y="-107" type="qcurve" smooth="yes"/>
      <point x="178" y="-118"/>
      <point x="194" y="-127"/>
      <point x="218" y="-127"/>
      <point x="247" y="-119"/>
      <point x="260" y="-112" type="qcurve"/>
      <point x="285" y="-148" type="line"/>
      <point x="271" y="-159"/>
      <point x="235" y="-186"/>
      <point x="195" y="-208"/>
      <point x="152" y="-223"/>
      <point x="130" y="-223" type="qcurve" smooth="yes"/>
      <point x="93" y="-223"/>
      <point x="76" y="-200" type="qcurve" smooth="yes"/>
      <point x="64" y="-185"/>
      <point x="64" y="-165" type="qcurve" smooth="yes"/>
      <point x="64" y="-147"/>
      <point x="78" y="-110"/>
      <point x="101" y="-74"/>
      <point x="130" y="-41"/>
      <point x="145" y="-27" type="qcurve"/>
      <point x="145" y="-26" type="line"/>
      <point x="152" y="-19" type="line"/>
      <point x="153" y="-18" type="line"/>
      <point x="171" y="0" type="line"/>
      <point x="29" y="0" type="line"/>
      <point x="29" y="696" type="line"/>
    </contour>
  </outline>
</glyph>
<glyph name="Idotaccent" format="2">
  <advance width="383"/>
  <unicode hex="0130"/>
  <outline>
    <contour>
      <point x="94" y="826" type="qcurve" smooth="yes"/>
      <point x="94" y="868"/>
      <point x="149" y="924"/>
      <point x="191" y="924" type="qcurve" smooth="yes"/>
      <point x="233" y="924"/>
      <point x="289" y="868"/>
      <point x="289" y="826" type="qcurve" smooth="yes"/>
      <point x="289" y="784"/>
      <point x="233" y="729"/>
      <point x="191" y="729" type="qcurve" smooth="yes"/>
      <point x="149" y="729"/>
      <point x="94" y="784"/>
    </contour>
    <contour>
      <point x="356" y="696" type="line"/>
      <point x="356" y="0" type="line"/>
      <point x="29" y="0" type="line"/>
      <point x="29" y="696" type="line"/>
    </contour>
  </outline>
</glyph>
<glyph name="dotlessi" format="1">
  <advance width="383"/>
  <unicode hex="0131"/>
  <outline>
    <contour>
      <point x="356" y="696" type="line"/>
      <point x="356" y="0" type="line"/>
      <point x="29" y="0" type="line"/>
      <point x="29" y="696" type="line"/>
    </contour>
  </outline>
</glyph>
<glyph name="IJ" format="2">
  <advance width="881"/>
  <unicode hex="0132"/>
  <outline>
    <contour>
      <point x="854" y="697" type="line"/>
      <point x="854" y="205" type="line" smooth="yes"/>
      <point x="854" y="163"/>
      <point x="821" y="88"/>
      <point x="766" y="33"/>
      <point x="691" y="0"/>
      <point x="649" y="0" type="qcurve" smooth="yes"/>
      <point x="403" y="0" type="line"/>
      <point x="403" y="123" type="line"/>
      <point x="526" y="123" type="line"/>
      <point x="526" y="697" type="line"/>
    </contour>
    <contour>
      <point x="356" y="696" type="line"/>
      <point x="356" y="0" type="line"/>
      <point x="29" y="0" type="line"/>
      <point x="29" y="696" type="line"/>
    </contour>
  </outline>
</glyph>
<glyph name="jcircumflex" format="2">
  <advance width="491"/>
  <unicode hex="0135"/>
  <outline>
    <contour>
      <point x="280" y="927" type="line"/>
      <point x="344" y="927" type="line"/>
      <point x="476" y="787" type="line"/>
      <point x="436" y="735" type="line"/>
      <point x="312" y="805" type="line"/>
      <point x="188" y="735" type="line"/>
      <point x="148" y="787" type="line"/>
    </contour>
    <contour>
      <point x="469" y="697" type="line"/>
      <point x="469" y="205" type="line" smooth="yes"/>
      <point x="469" y="163"/>
      <point x="436" y="88"/>
      <point x="381" y="33"/>
      <point x="306" y="0"/>
      <point x="264" y="0" type="qcurve" smooth="yes"/>
      <point x="18" y="0" type="line"/>
      <point x="18" y="123" type="line"/>
      <point x="141" y="123" type="line"/>
      <point x="141" y="697" type="line"/>
    </contour>
  </outline>
</glyph>
<glyph name="uni0136" format="1">
  <advance width="778"/>
  <unicode hex="0136"/>
  <outline>
    <contour>
      <point x="483" y="377" type="line"/>
      <point x="757" y="0" type="line"/>
      <point x="470" y="0" type="line"/>
      <point x="388" y="109" type="line"/>
      <point x="388" y="0" type="line"/>
      <point x="19" y="0" type="line"/>
      <point x="19" y="697" type="line"/>
      <point x="388" y="697" type="line"/>
      <point x="388" y="410" type="line"/>
      <point x="440" y="482"/>
      <point x="542" y="625"/>
      <point x="593" y="697" type="qcurve"/>
      <point x="716" y="697" type="line"/>
    </contour>
    <contour>
      <point x="457" y="-156" type="line"/>
      <point x="299" y="-271" type="line"/>
      <point x="240" y="-218" type="line"/>
      <point x="322" y="-156" type="line"/>
      <point x="267" y="-156" type="line"/>
      <point x="267" y="-33" type="line"/>
      <point x="457" y="-33" type="line"/>
    </contour>
  </outline>
</glyph>
<glyph name="Lacute" format="2">
  <advance width="626"/>
  <unicode hex="0139"/>
  <outline>
    <contour>
      <point x="599" y="123" type="line"/>
      <point x="599" y="0" type="line"/>
      <point x="26" y="0" type="line"/>
      <point x="26" y="697" type="line"/>
      <point x="354" y="697" type="line"/>
      <point x="354" y="123" type="line"/>
    </contour>
    <contour>
      <point x="337" y="927" type="line"/>
      <point x="412" y="829" type="line"/>
      <point x="245" y="735" type="line"/>
      <point x="205" y="787" type="line"/>
    </contour>
  </outline>
</glyph>
<glyph name="uni013C" format="1">
  <advance width="626"/>
  <unicode hex="013C"/>
  <outline>
    <contour>
      <point x="599" y="123" type="line"/>
      <point x="599" y="0" type="line"/>
      <point x="26" y="0" type="line"/>
      <point x="26" y="697" type="line"/>
      <point x="354" y="697" type="line"/>
      <point x="354" y="123" type="line"/>
    </contour>
    <contour>
      <point x="467" y="-49" type="line"/>
      <point x="467" y="-184" type="line"/>
      <point x="297" y="-340" type="line"/>
      <point x="228" y="-271" type="line"/>
      <point x="304" y="-194" type="line"/>
      <point x="228" y="-194" type="line"/>
      <point x="228" y="-49" type="line"/>
    </contour>
  </outline>
</glyph>
<glyph name="lcaron" format="2">
  <advance width="626"/>
  <unicode hex="013E"/>
  <outline>
    <contour>
      <point x="599" y="123" type="line"/>
      <point x="599" y="0" type="line"/>
      <point x="26" y="0" type="line"/>
      <point x="26" y="697" type="line"/>
      <point x="354" y="697" type="line"/>
      <point x="354" y="123" type="line"/>
    </contour>
    <contour>
      <point x="599" y="700" type="line"/>
      <point x="598" y="587" type="line"/>
      <point x="453" y="490" type="line"/>
      <point x="399" y="535" type="line"/>
      <point x="503" y="700" type="line"/>
    </contour>
  </outline>
</glyph>
<glyph name="Ldot" format="2">
  <advance width="626"/>
  <unicode hex="013F"/>
  <outline>
    <contour>
      <point x="599" y="123" type="line"/>
      <point x="599" y="0" type="line"/>
      <point x="26" y="0" type="line"/>
      <point x="26" y="697" type="line"/>
      <point x="354" y="697" type="line"/>
      <point x="354" y="123" type="line"/>
    </contour>
    <contour>
      <point x="405" y="361" type="qcurve" smooth="yes"/>
      <point x="405" y="403"/>
      <point x="460" y="459"/>
      <point x="502" y="459" type="qcurve" smooth="yes"/>
      <point x="544" y="459"/>
      <point x="600" y="403"/>
      <point x="600" y="361" type="qcurve" smooth="yes"/>
      <point x="600" y="319"/>
      <point x="544" y="264"/>
      <point x="502" y="264" type="qcurve" smooth="yes"/>
      <point x="460" y="264"/>
      <point x="405" y="319"/>
    </contour>
  </outline>
</glyph>
<glyph name="ldot" format="2">
  <advance width="622"/>
  <unicode hex="0140"/>
  <outline>
    <contour>
      <point x="599" y="123" type="line"/>
      <point x="599" y="0" type="line"/>
      <point x="26" y="0" type="line"/>
      <point x="26" y="697" type="line"/>
      <point x="354" y="697" type="line"/>
      <point x="354" y="123" type="line"/>
    </contour>
    <contour>
      <point x="405" y="361" type="qcurve" smooth="yes"/>
      <point x="405" y="402"/>
      <point x="461" y="459"/>
      <point x="502" y="459" type="qcurve" smooth="yes"/>
      <point x="543" y="459"/>
      <point x="600" y="402"/>
      <point x="600" y="361" type="qcurve" smooth="yes"/>
      <point x="600" y="320"/>
      <point x="543" y="264"/>
      <point x="502" y="264" type="qcurve" smooth="yes"/>
      <point x="461" y="264"/>
      <point x="405" y="320"/>
    </contour>
  </outline>
</glyph>
<glyph name="lslash" format="2">
  <advance width="720"/>
  <unicode hex="0142"/>
  <outline>
    <contour>
      <point x="554" y="565" type="line"/>
      <point x="605" y="481" type="line"/>
      <point x="460" y="388" type="line"/>
      <point x="460" y="123" type="line"/>
      <point x="705" y="123" type="line"/>
      <point x="705" y="0" type="line"/>
      <point x="132" y="0" type="line"/>
      <point x="132" y="179" type="line"/>
      <point x="70" y="139" type="line"/>
      <point x="18" y="222" type="line"/>
      <point x="132" y="295" type="line"/>
      <point x="132" y="697" type="line"/>
      <point x="460" y="697" type="line"/>
      <point x="460" y="505" type="line"/>
    </contour>
  </outline>
</glyph>
<glyph name="uni0146" format="1">
  <advance width="794"/>
  <unicode hex="0146"/>
  <outline>
    <contour>
      <point x="395" y="697" type="line"/>
      <point x="641" y="232" type="line"/>
      <point x="641" y="697" type="line"/>
      <point x="763" y="697" type="line"/>
      <point x="763" y="0" type="line"/>
      <point x="641" y="0" type="line"/>
      <point x="395" y="464" type="line"/>
      <point x="395" y="0" type="line"/>
      <point x="26" y="0" type="line"/>
      <point x="26" y="697" type="line"/>
    </contour>
    <contour>
      <point x="513" y="-49" type="line"/>
      <point x="513" y="-184" type="line"/>
      <point x="343" y="-340" type="line"/>
      <point x="274" y="-271" type="line"/>
      <point x="350" y="-194" type="line"/>
      <point x="274" y="-194" type="line"/>
      <point x="274" y="-49" type="line"/>
    </contour>
  </outline>
</glyph>
<glyph name="ncaron" format="2">
  <advance width="794"/>
  <unicode hex="0148"/>
  <outline>
    <contour>
      <point x="395" y="697" type="line"/>
      <point x="641" y="232" type="line"/>
      <point x="641" y="697" type="line"/>
      <point x="763" y="697" type="line"/>
      <point x="763" y="0" type="line"/>
      <point x="641" y="0" type="line"/>
      <point x="395" y="464" type="line"/>
      <point x="395" y="0" type="line"/>
      <point x="26" y="0" type="line"/>
      <point x="26" y="697" type="line"/>
    </contour>
    <contour>
      <point x="230" y="875" type="line"/>
      <point x="270" y="927" type="line"/>
      <point x="394" y="857" type="line"/>
      <point x="518" y="927" type="line"/>
      <point x="558" y="875" type="line"/>
      <point x="426" y="735" type="line"/>
      <point x="362" y="735" type="line"/>
    </contour>
  </outline>
</glyph>
<glyph name="napostrophe" format="2">
  <advance width="1070"/>
  <unicode hex="0149"/>
  <outline>
    <contour>
      <point x="667" y="697" type="line"/>
      <point x="913" y="232" type="line"/>
      <point x="913" y="697" type="line"/>
      <point x="1035" y="697" type="line"/>
      <point x="1035" y="0" type="line"/>
      <point x="913" y="0" type="line"/>
      <point x="667" y="464" type="line"/>
      <point x="667" y="0" type="line"/>
      <point x="298" y="0" type="line"/>
      <point x="298" y="697" type="line"/>
    </contour>
    <contour>
      <point x="261" y="700" type="line"/>
      <point x="261" y="565" type="line"/>
      <point x="91" y="409" type="line"/>
      <point x="22" y="478" type="line"/>
      <point x="98" y="555" type="line"/>
      <point x="22" y="555" type="line"/>
      <point x="22" y="700" type="line"/>
    </contour>
  </outline>
</glyph>
<glyph name="Eng" format="2">
  <advance width="794"/>
  <unicode hex="014A"/>
  <outline>
    <contour>
      <point x="759" y="0" type="line"/>
      <point x="759" y="-4" type="line"/>
      <point x="759" y="-5"/>
      <point x="759" y="-6" type="qcurve"/>
      <point x="759" y="-17" type="line"/>
      <point x="759" y="-18"/>
      <point x="759" y="-18" type="qcurve"/>
      <point x="759" y="-20" type="line"/>
      <point x="759" y="-20"/>
      <point x="759" y="-21" type="qcurve"/>
      <point x="759" y="-22" type="line"/>
      <point x="759" y="-23"/>
      <point x="759" y="-24" type="qcurve"/>
      <point x="759" y="-42" type="line" smooth="yes"/>
      <point x="759" y="-56"/>
      <point x="756" y="-74"/>
      <point x="750" y="-88"/>
      <point x="745" y="-101" type="qcurve"/>
      <point x="733" y="-127"/>
      <point x="675" y="-191"/>
      <point x="618" y="-212" type="qcurve"/>
      <point x="577" y="-99" type="line"/>
      <point x="600" y="-91"/>
      <point x="636" y="-57"/>
      <point x="638" y="-29" type="qcurve"/>
      <point x="638" y="1" type="line"/>
      <point x="393" y="464" type="line"/>
      <point x="393" y="0" type="line"/>
      <point x="24" y="0" type="line"/>
      <point x="24" y="697" type="line"/>
      <point x="393" y="697" type="line"/>
      <point x="639" y="232" type="line"/>
      <point x="639" y="697" type="line"/>
      <point x="761" y="697" type="line"/>
      <point x="761" y="0" type="line"/>
    </contour>
  </outline>
</glyph>
<glyph name="eng" format="2">
  <advance width="794"/>
  <unicode hex="014B"/>
  <outline>
    <contour>
      <point x="759" y="0" type="line"/>
      <point x="759" y="-5" type="line"/>
      <point x="759" y="-6" type="line"/>
      <point x="759" y="-18" type="line"/>
      <point x="759" y="-20" type="line"/>
      <point x="759" y="-21" type="line"/>
      <point x="759" y="-23" type="line"/>
      <point x="759" y="-24" type="line"/>
      <point x="759" y="-42" type="line" smooth="yes"/>
      <point x="759" y="-53"/>
      <point x="757" y="-67"/>
      <point x="754" y="-79"/>
      <point x="749" y="-91"/>
      <point x="745" y="-101" type="qcurve" smooth="yes"/>
      <point x="733" y="-127"/>
      <point x="675" y="-191"/>
      <point x="618" y="-212" type="qcurve"/>
      <point x="577" y="-99" type="line"/>
      <point x="600" y="-91"/>
      <point x="636" y="-57"/>
      <point x="638" y="-29" type="qcurve"/>
      <point x="638" y="1" type="line"/>
      <point x="393" y="464" type="line"/>
      <point x="393" y="0" type="line"/>
      <point x="24" y="0" type="line"/>
      <point x="24" y="697" type="line"/>
      <point x="393" y="697" type="line"/>
      <point x="639" y="232" type="line"/>
      <point x="639" y="697" type="line"/>
      <point x="761" y="697" type="line"/>
      <point x="761" y="0" type="line"/>
    </contour>
  </outline>
</glyph>
<glyph name="OE" format="2">
  <advance width="1235"/>
  <unicode hex="0152"/>
  <outline>
    <contour>
      <point x="970" y="410" type="line"/>
      <point x="1175" y="410" type="line"/>
      <point x="1175" y="328" type="line"/>
      <point x="970" y="328" type="line"/>
      <point x="970" y="123" type="line"/>
      <point x="1216" y="123" type="line"/>
      <point x="1216" y="0" type="line"/>
      <point x="643" y="0" type="line"/>
      <point x="643" y="46" type="line"/>
      <point x="614" y="24"/>
      <point x="548" y="0"/>
      <point x="515" y="0" type="qcurve"/>
      <point x="210" y="1" type="line"/>
      <point x="171" y="1"/>
      <point x="103" y="37"/>
      <point x="52" y="95"/>
      <point x="23" y="168"/>
      <point x="23" y="205" type="qcurve" smooth="yes"/>
      <point x="23" y="510" type="line" smooth="yes"/>
      <point x="23" y="543"/>
      <point x="57" y="609"/>
      <point x="110" y="663"/>
      <point x="177" y="696"/>
      <point x="210" y="696" type="qcurve" smooth="yes"/>
      <point x="533" y="696" type="line" smooth="yes"/>
      <point x="564" y="696"/>
      <point x="620" y="671"/>
      <point x="643" y="651" type="qcurve"/>
      <point x="643" y="696" type="line"/>
      <point x="1216" y="696" type="line"/>
      <point x="1216" y="573" type="line"/>
      <point x="970" y="573" type="line"/>
    </contour>
    <contour>
      <point x="596" y="492" type="line" smooth="yes"/>
      <point x="596" y="507"/>
      <point x="584" y="536"/>
      <point x="564" y="559"/>
      <point x="537" y="573"/>
      <point x="522" y="573" type="qcurve" smooth="yes"/>
      <point x="392" y="573" type="line"/>
      <point x="392" y="123" type="line"/>
      <point x="522" y="123" type="line" smooth="yes"/>
      <point x="535" y="123"/>
      <point x="562" y="136"/>
      <point x="583" y="157"/>
      <point x="596" y="183"/>
      <point x="596" y="197" type="qcurve" smooth="yes"/>
    </contour>
  </outline>
</glyph>
